  0
SECTION
  2
HEADER
  9
$ACADVER
  1
AC1009
  9
$EXTMIN
 10
0.0
 20
0.0
 30
0.0
  9
$EXTMAX
 10
1000.0
 20
1000.0
 30
0.0
  9
$FILLMODE
 70
 0
  9
$SPLFRAME
 70
 1
  0
ENDSEC
  0
SECTION
  2
TABLES
  0
TABLE
  2
LAYER
 70
1
  0
LAYER
  2
0
 70
     0
 62
     7
  6
CONTINUOUS
  0
ENDTAB
  0
ENDSEC
  0
SECTION
  2
ENTITIES
  0
LINE
  8
0
 62
     0
 10
0.0950846
 20
125.846
 30
0.0
 11
301.847
 21
125.846
 31
0.0
  0
LINE
  8
0
 62
     0
 10
301.847
 20
125.846
 30
0.0
 11
301.847
 21
0.418924
 31
0.0
  0
LINE
  8
0
 62
     0
 10
301.847
 20
0.418924
 30
0.0
 11
0.0950846
 21
0.418924
 31
0.0
  0
LINE
  8
0
 62
     0
 10
0.0950846
 20
0.418924
 30
0.0
 11
0.0950846
 21
125.846
 31
0.0
  0
LINE
  8
0
 62
     0
 10
166.387
 20
19.123
 30
0.0
 11
168.854
 21
5.1387
 31
0.0
  0
LINE
  8
0
 62
     0
 10
168.854
 20
5.1387
 30
0.0
 11
172.103
 21
5.71197
 31
0.0
  0
LINE
  8
0
 62
     0
 10
172.103
 20
5.71197
 30
0.0
 11
169.638
 21
19.6963
 31
0.0
  0
LINE
  8
0
 62
     0
 10
169.638
 20
19.6963
 30
0.0
 11
166.387
 21
19.123
 31
0.0
  0
LINE
  8
0
 62
     0
 10
117.63
 20
6.97699
 30
0.0
 11
120.88
 21
6.40373
 31
0.0
  0
LINE
  8
0
 62
     0
 10
120.88
 20
6.40373
 30
0.0
 11
123.346
 21
20.3881
 31
0.0
  0
LINE
  8
0
 62
     0
 10
123.346
 20
20.3881
 30
0.0
 11
120.096
 21
20.9613
 31
0.0
  0
LINE
  8
0
 62
     0
 10
120.096
 20
20.9613
 30
0.0
 11
117.63
 21
6.97699
 31
0.0
  0
LINE
  8
0
 62
     0
 10
102.803
 20
22.2333
 30
0.0
 11
102.016
 21
22.3725
 31
0.0
  0
LINE
  8
0
 62
     0
 10
102.016
 20
22.3725
 30
0.0
 11
101.477
 21
19.3187
 31
0.0
  0
LINE
  8
0
 62
     0
 10
101.477
 20
19.3187
 30
0.0
 11
102.266
 21
19.1795
 31
0.0
  0
LINE
  8
0
 62
     0
 10
102.266
 20
19.1795
 30
0.0
 11
101.258
 21
13.4676
 31
0.0
  0
LINE
  8
0
 62
     0
 10
101.258
 20
13.4676
 30
0.0
 11
100.47
 21
13.6067
 31
0.0
  0
LINE
  8
0
 62
     0
 10
100.47
 20
13.6067
 30
0.0
 11
99.9324
 21
10.5544
 31
0.0
  0
LINE
  8
0
 62
     0
 10
99.9324
 20
10.5544
 30
0.0
 11
100.721
 21
10.4152
 31
0.0
  0
LINE
  8
0
 62
     0
 10
100.721
 20
10.4152
 30
0.0
 11
100.546
 21
9.4313
 31
0.0
  0
LINE
  8
0
 62
     0
 10
100.546
 20
9.4313
 30
0.0
 11
114.333
 21
7.00045
 31
0.0
  0
LINE
  8
0
 62
     0
 10
114.333
 20
7.00045
 30
0.0
 11
114.508
 21
7.98435
 31
0.0
  0
LINE
  8
0
 62
     0
 10
114.508
 20
7.98435
 30
0.0
 11
115.295
 21
7.84518
 31
0.0
  0
LINE
  8
0
 62
     0
 10
115.295
 20
7.84518
 30
0.0
 11
115.834
 21
10.8975
 31
0.0
  0
LINE
  8
0
 62
     0
 10
115.834
 20
10.8975
 30
0.0
 11
115.045
 21
11.0367
 31
0.0
  0
LINE
  8
0
 62
     0
 10
115.045
 20
11.0367
 30
0.0
 11
116.053
 21
16.7487
 31
0.0
  0
LINE
  8
0
 62
     0
 10
116.053
 20
16.7487
 30
0.0
 11
116.841
 21
16.6095
 31
0.0
  0
LINE
  8
0
 62
     0
 10
116.841
 20
16.6095
 30
0.0
 11
117.38
 21
19.6632
 31
0.0
  0
LINE
  8
0
 62
     0
 10
117.38
 20
19.6632
 30
0.0
 11
116.592
 21
19.8024
 31
0.0
  0
LINE
  8
0
 62
     0
 10
116.592
 20
19.8024
 30
0.0
 11
116.764
 21
20.7877
 31
0.0
  0
LINE
  8
0
 62
     0
 10
116.764
 20
20.7877
 30
0.0
 11
102.978
 21
23.2186
 31
0.0
  0
LINE
  8
0
 62
     0
 10
102.978
 20
23.2186
 30
0.0
 11
102.803
 21
22.2333
 31
0.0
  0
LINE
  8
0
 62
     0
 10
172.743
 20
20.8029
 30
0.0
 11
172.916
 21
19.8176
 31
0.0
  0
LINE
  8
0
 62
     0
 10
172.916
 20
19.8176
 30
0.0
 11
172.128
 21
19.6798
 31
0.0
  0
LINE
  8
0
 62
     0
 10
172.128
 20
19.6798
 30
0.0
 11
172.667
 21
16.626
 31
0.0
  0
LINE
  8
0
 62
     0
 10
172.667
 20
16.626
 30
0.0
 11
173.455
 21
16.7652
 31
0.0
  0
LINE
  8
0
 62
     0
 10
173.455
 20
16.7652
 30
0.0
 11
174.461
 21
11.0532
 31
0.0
  0
LINE
  8
0
 62
     0
 10
174.461
 20
11.0532
 30
0.0
 11
173.674
 21
10.9141
 31
0.0
  0
LINE
  8
0
 62
     0
 10
173.674
 20
10.9141
 30
0.0
 11
174.213
 21
7.86172
 31
0.0
  0
LINE
  8
0
 62
     0
 10
174.213
 20
7.86172
 30
0.0
 11
175
 21
7.99952
 31
0.0
  0
LINE
  8
0
 62
     0
 10
175
 20
7.99952
 30
0.0
 11
175.174
 21
7.01559
 31
0.0
  0
LINE
  8
0
 62
     0
 10
175.174
 20
7.01559
 30
0.0
 11
188.962
 21
9.44644
 31
0.0
  0
LINE
  8
0
 62
     0
 10
188.962
 20
9.44644
 30
0.0
 11
188.787
 21
10.4317
 31
0.0
  0
LINE
  8
0
 62
     0
 10
188.787
 20
10.4317
 30
0.0
 11
189.575
 21
10.5695
 31
0.0
  0
LINE
  8
0
 62
     0
 10
189.575
 20
10.5695
 30
0.0
 11
189.037
 21
13.6233
 31
0.0
  0
LINE
  8
0
 62
     0
 10
189.037
 20
13.6233
 30
0.0
 11
188.25
 21
13.4841
 31
0.0
  0
LINE
  8
0
 62
     0
 10
188.25
 20
13.4841
 30
0.0
 11
187.241
 21
19.1961
 31
0.0
  0
LINE
  8
0
 62
     0
 10
187.241
 20
19.1961
 30
0.0
 11
188.029
 21
19.3353
 31
0.0
  0
LINE
  8
0
 62
     0
 10
188.029
 20
19.3353
 30
0.0
 11
187.492
 21
22.3876
 31
0.0
  0
LINE
  8
0
 62
     0
 10
187.492
 20
22.3876
 30
0.0
 11
186.703
 21
22.2498
 31
0.0
  0
LINE
  8
0
 62
     0
 10
186.703
 20
22.2498
 30
0.0
 11
186.53
 21
23.2337
 31
0.0
  0
LINE
  8
0
 62
     0
 10
186.53
 20
23.2337
 30
0.0
 11
172.743
 21
20.8029
 31
0.0
  0
LINE
  8
0
 62
     0
 10
189.826
 20
23.2558
 30
0.0
 11
192.291
 21
9.27283
 31
0.0
  0
LINE
  8
0
 62
     0
 10
192.291
 20
9.27283
 30
0.0
 11
195.541
 21
9.84472
 31
0.0
  0
LINE
  8
0
 62
     0
 10
195.541
 20
9.84472
 30
0.0
 11
193.076
 21
23.829
 31
0.0
  0
LINE
  8
0
 62
     0
 10
193.076
 20
23.829
 30
0.0
 11
189.826
 21
23.2558
 31
0.0
  0
LINE
  8
0
 62
     0
 10
94.1917
 20
11.1097
 30
0.0
 11
97.4411
 21
10.5379
 31
0.0
  0
LINE
  8
0
 62
     0
 10
97.4411
 20
10.5379
 30
0.0
 11
99.9077
 21
24.5208
 31
0.0
  0
LINE
  8
0
 62
     0
 10
99.9077
 20
24.5208
 30
0.0
 11
96.6569
 21
25.0941
 31
0.0
  0
LINE
  8
0
 62
     0
 10
96.6569
 20
25.0941
 30
0.0
 11
94.1917
 21
11.1097
 31
0.0
  0
LINE
  8
0
 62
     0
 10
74.6622
 20
27.1956
 30
0.0
 11
73.8752
 21
27.3348
 31
0.0
  0
LINE
  8
0
 62
     0
 10
73.8752
 20
27.3348
 30
0.0
 11
73.3365
 21
24.281
 31
0.0
  0
LINE
  8
0
 62
     0
 10
73.3365
 20
24.281
 30
0.0
 11
74.1246
 21
24.1419
 31
0.0
  0
LINE
  8
0
 62
     0
 10
74.1246
 20
24.1419
 30
0.0
 11
73.1174
 21
18.4299
 31
0.0
  0
LINE
  8
0
 62
     0
 10
73.1174
 20
18.4299
 30
0.0
 11
72.329
 21
18.5691
 31
0.0
  0
LINE
  8
0
 62
     0
 10
72.329
 20
18.5691
 30
0.0
 11
71.7917
 21
15.5167
 31
0.0
  0
LINE
  8
0
 62
     0
 10
71.7917
 20
15.5167
 30
0.0
 11
72.5798
 21
15.3775
 31
0.0
  0
LINE
  8
0
 62
     0
 10
72.5798
 20
15.3775
 30
0.0
 11
72.4048
 21
14.3936
 31
0.0
  0
LINE
  8
0
 62
     0
 10
72.4048
 20
14.3936
 30
0.0
 11
86.1921
 21
11.9628
 31
0.0
  0
LINE
  8
0
 62
     0
 10
86.1921
 20
11.9628
 30
0.0
 11
86.3671
 21
12.9467
 31
0.0
  0
LINE
  8
0
 62
     0
 10
86.3671
 20
12.9467
 30
0.0
 11
87.1541
 21
12.8075
 31
0.0
  0
LINE
  8
0
 62
     0
 10
87.1541
 20
12.8075
 30
0.0
 11
87.6928
 21
15.8598
 31
0.0
  0
LINE
  8
0
 62
     0
 10
87.6928
 20
15.8598
 30
0.0
 11
86.9047
 21
15.999
 31
0.0
  0
LINE
  8
0
 62
     0
 10
86.9047
 20
15.999
 30
0.0
 11
87.9119
 21
21.711
 31
0.0
  0
LINE
  8
0
 62
     0
 10
87.9119
 20
21.711
 30
0.0
 11
88.6989
 21
21.5718
 31
0.0
  0
LINE
  8
0
 62
     0
 10
88.6989
 20
21.5718
 30
0.0
 11
89.239
 21
24.6255
 31
0.0
  0
LINE
  8
0
 62
     0
 10
89.239
 20
24.6255
 30
0.0
 11
88.4509
 21
24.7647
 31
0.0
  0
LINE
  8
0
 62
     0
 10
88.4509
 20
24.7647
 30
0.0
 11
88.6231
 21
25.7486
 31
0.0
  0
LINE
  8
0
 62
     0
 10
88.6231
 20
25.7486
 30
0.0
 11
74.8372
 21
28.1795
 31
0.0
  0
LINE
  8
0
 62
     0
 10
74.8372
 20
28.1795
 30
0.0
 11
74.6622
 21
27.1956
 31
0.0
  0
LINE
  8
0
 62
     0
 10
200.884
 20
25.7638
 30
0.0
 11
201.057
 21
24.7799
 31
0.0
  0
LINE
  8
0
 62
     0
 10
201.057
 20
24.7799
 30
0.0
 11
200.269
 21
24.6407
 31
0.0
  0
LINE
  8
0
 62
     0
 10
200.269
 20
24.6407
 30
0.0
 11
200.808
 21
21.5883
 31
0.0
  0
LINE
  8
0
 62
     0
 10
200.808
 20
21.5883
 30
0.0
 11
201.596
 21
21.7275
 31
0.0
  0
LINE
  8
0
 62
     0
 10
201.596
 20
21.7275
 30
0.0
 11
202.602
 21
16.0155
 31
0.0
  0
LINE
  8
0
 62
     0
 10
202.602
 20
16.0155
 30
0.0
 11
201.815
 21
15.8764
 31
0.0
  0
LINE
  8
0
 62
     0
 10
201.815
 20
15.8764
 30
0.0
 11
202.354
 21
12.8227
 31
0.0
  0
LINE
  8
0
 62
     0
 10
202.354
 20
12.8227
 30
0.0
 11
203.141
 21
12.9618
 31
0.0
  0
LINE
  8
0
 62
     0
 10
203.141
 20
12.9618
 30
0.0
 11
203.314
 21
11.9765
 31
0.0
  0
LINE
  8
0
 62
     0
 10
203.314
 20
11.9765
 30
0.0
 11
217.102
 21
14.4088
 31
0.0
  0
LINE
  8
0
 62
     0
 10
217.102
 20
14.4088
 30
0.0
 11
216.928
 21
15.3927
 31
0.0
  0
LINE
  8
0
 62
     0
 10
216.928
 20
15.3927
 30
0.0
 11
217.716
 21
15.5319
 31
0.0
  0
LINE
  8
0
 62
     0
 10
217.716
 20
15.5319
 30
0.0
 11
217.177
 21
18.5856
 31
0.0
  0
LINE
  8
0
 62
     0
 10
217.177
 20
18.5856
 30
0.0
 11
216.389
 21
18.4464
 31
0.0
  0
LINE
  8
0
 62
     0
 10
216.389
 20
18.4464
 30
0.0
 11
215.382
 21
24.1584
 31
0.0
  0
LINE
  8
0
 62
     0
 10
215.382
 20
24.1584
 30
0.0
 11
216.17
 21
24.2976
 31
0.0
  0
LINE
  8
0
 62
     0
 10
216.17
 20
24.2976
 30
0.0
 11
215.633
 21
27.3499
 31
0.0
  0
LINE
  8
0
 62
     0
 10
215.633
 20
27.3499
 30
0.0
 11
214.844
 21
27.2107
 31
0.0
  0
LINE
  8
0
 62
     0
 10
214.844
 20
27.2107
 30
0.0
 11
214.671
 21
28.1947
 31
0.0
  0
LINE
  8
0
 62
     0
 10
214.671
 20
28.1947
 30
0.0
 11
200.884
 21
25.7638
 31
0.0
  0
LINE
  8
0
 62
     0
 10
55.7361
 20
29.5658
 30
0.0
 11
54.9494
 21
29.7036
 31
0.0
  0
LINE
  8
0
 62
     0
 10
54.9494
 20
29.7036
 30
0.0
 11
54.4103
 21
26.6513
 31
0.0
  0
LINE
  8
0
 62
     0
 10
54.4103
 20
26.6513
 30
0.0
 11
55.1988
 21
26.5121
 31
0.0
  0
LINE
  8
0
 62
     0
 10
55.1988
 20
26.5121
 30
0.0
 11
54.1913
 21
20.8001
 31
0.0
  0
LINE
  8
0
 62
     0
 10
54.1913
 20
20.8001
 30
0.0
 11
53.4031
 21
20.9393
 31
0.0
  0
LINE
  8
0
 62
     0
 10
53.4031
 20
20.9393
 30
0.0
 11
52.8655
 21
17.8856
 31
0.0
  0
LINE
  8
0
 62
     0
 10
52.8655
 20
17.8856
 30
0.0
 11
53.654
 21
17.7478
 31
0.0
  0
LINE
  8
0
 62
     0
 10
53.654
 20
17.7478
 30
0.0
 11
53.479
 21
16.7638
 31
0.0
  0
LINE
  8
0
 62
     0
 10
53.479
 20
16.7638
 30
0.0
 11
67.2663
 21
14.3316
 31
0.0
  0
LINE
  8
0
 62
     0
 10
67.2663
 20
14.3316
 30
0.0
 11
67.4398
 21
15.3155
 31
0.0
  0
LINE
  8
0
 62
     0
 10
67.4398
 20
15.3155
 30
0.0
 11
68.2279
 21
15.1777
 31
0.0
  0
LINE
  8
0
 62
     0
 10
68.2279
 20
15.1777
 30
0.0
 11
68.767
 21
18.2301
 31
0.0
  0
LINE
  8
0
 62
     0
 10
68.767
 20
18.2301
 30
0.0
 11
67.9785
 21
18.3692
 31
0.0
  0
LINE
  8
0
 62
     0
 10
67.9785
 20
18.3692
 30
0.0
 11
68.986
 21
24.0812
 31
0.0
  0
LINE
  8
0
 62
     0
 10
68.986
 20
24.0812
 30
0.0
 11
69.7727
 21
23.942
 31
0.0
  0
LINE
  8
0
 62
     0
 10
69.7727
 20
23.942
 30
0.0
 11
70.3132
 21
26.9958
 31
0.0
  0
LINE
  8
0
 62
     0
 10
70.3132
 20
26.9958
 30
0.0
 11
69.5247
 21
27.1336
 31
0.0
  0
LINE
  8
0
 62
     0
 10
69.5247
 20
27.1336
 30
0.0
 11
69.6969
 21
28.1189
 31
0.0
  0
LINE
  8
0
 62
     0
 10
69.6969
 20
28.1189
 30
0.0
 11
55.911
 21
30.5497
 31
0.0
  0
LINE
  8
0
 62
     0
 10
55.911
 20
30.5497
 30
0.0
 11
55.7361
 21
29.5658
 31
0.0
  0
LINE
  8
0
 62
     0
 10
34.1464
 20
28.9305
 30
0.0
 11
34.1464
 21
27.9301
 31
0.0
  0
LINE
  8
0
 62
     0
 10
34.1464
 20
27.9301
 30
0.0
 11
33.3471
 21
27.9301
 31
0.0
  0
LINE
  8
0
 62
     0
 10
33.3471
 20
27.9301
 30
0.0
 11
33.3471
 21
24.8309
 31
0.0
  0
LINE
  8
0
 62
     0
 10
33.3471
 20
24.8309
 30
0.0
 11
34.1464
 21
24.8309
 31
0.0
  0
LINE
  8
0
 62
     0
 10
34.1464
 20
24.8309
 30
0.0
 11
34.1464
 21
19.0307
 31
0.0
  0
LINE
  8
0
 62
     0
 10
34.1464
 20
19.0307
 30
0.0
 11
33.3471
 21
19.0307
 31
0.0
  0
LINE
  8
0
 62
     0
 10
33.3471
 20
19.0307
 30
0.0
 11
33.3471
 21
15.9301
 31
0.0
  0
LINE
  8
0
 62
     0
 10
33.3471
 20
15.9301
 30
0.0
 11
34.1464
 21
15.9301
 31
0.0
  0
LINE
  8
0
 62
     0
 10
34.1464
 20
15.9301
 30
0.0
 11
34.1464
 21
14.9297
 31
0.0
  0
LINE
  8
0
 62
     0
 10
34.1464
 20
14.9297
 30
0.0
 11
48.1461
 21
14.9297
 31
0.0
  0
LINE
  8
0
 62
     0
 10
48.1461
 20
14.9297
 30
0.0
 11
48.1461
 21
15.9301
 31
0.0
  0
LINE
  8
0
 62
     0
 10
48.1461
 20
15.9301
 30
0.0
 11
48.9465
 21
15.9301
 31
0.0
  0
LINE
  8
0
 62
     0
 10
48.9465
 20
15.9301
 30
0.0
 11
48.9465
 21
19.0307
 31
0.0
  0
LINE
  8
0
 62
     0
 10
48.9465
 20
19.0307
 30
0.0
 11
48.1461
 21
19.0307
 31
0.0
  0
LINE
  8
0
 62
     0
 10
48.1461
 20
19.0307
 30
0.0
 11
48.1461
 21
24.8309
 31
0.0
  0
LINE
  8
0
 62
     0
 10
48.1461
 20
24.8309
 30
0.0
 11
48.9465
 21
24.8309
 31
0.0
  0
LINE
  8
0
 62
     0
 10
48.9465
 20
24.8309
 30
0.0
 11
48.9465
 21
27.9301
 31
0.0
  0
LINE
  8
0
 62
     0
 10
48.9465
 20
27.9301
 30
0.0
 11
48.1461
 21
27.9301
 31
0.0
  0
LINE
  8
0
 62
     0
 10
48.1461
 20
27.9301
 30
0.0
 11
48.1461
 21
28.9305
 31
0.0
  0
LINE
  8
0
 62
     0
 10
48.1461
 20
28.9305
 30
0.0
 11
34.1464
 21
28.9305
 31
0.0
  0
LINE
  8
0
 62
     0
 10
15.0964
 20
28.9305
 30
0.0
 11
15.0964
 21
27.9301
 31
0.0
  0
LINE
  8
0
 62
     0
 10
15.0964
 20
27.9301
 30
0.0
 11
14.2971
 21
27.9301
 31
0.0
  0
LINE
  8
0
 62
     0
 10
14.2971
 20
27.9301
 30
0.0
 11
14.2971
 21
24.8309
 31
0.0
  0
LINE
  8
0
 62
     0
 10
14.2971
 20
24.8309
 30
0.0
 11
15.0964
 21
24.8309
 31
0.0
  0
LINE
  8
0
 62
     0
 10
15.0964
 20
24.8309
 30
0.0
 11
15.0964
 21
19.0307
 31
0.0
  0
LINE
  8
0
 62
     0
 10
15.0964
 20
19.0307
 30
0.0
 11
14.2971
 21
19.0307
 31
0.0
  0
LINE
  8
0
 62
     0
 10
14.2971
 20
19.0307
 30
0.0
 11
14.2971
 21
15.9301
 31
0.0
  0
LINE
  8
0
 62
     0
 10
14.2971
 20
15.9301
 30
0.0
 11
15.0964
 21
15.9301
 31
0.0
  0
LINE
  8
0
 62
     0
 10
15.0964
 20
15.9301
 30
0.0
 11
15.0964
 21
14.9297
 31
0.0
  0
LINE
  8
0
 62
     0
 10
15.0964
 20
14.9297
 30
0.0
 11
29.0959
 21
14.9297
 31
0.0
  0
LINE
  8
0
 62
     0
 10
29.0959
 20
14.9297
 30
0.0
 11
29.0959
 21
15.9301
 31
0.0
  0
LINE
  8
0
 62
     0
 10
29.0959
 20
15.9301
 30
0.0
 11
29.8965
 21
15.9301
 31
0.0
  0
LINE
  8
0
 62
     0
 10
29.8965
 20
15.9301
 30
0.0
 11
29.8965
 21
19.0307
 31
0.0
  0
LINE
  8
0
 62
     0
 10
29.8965
 20
19.0307
 30
0.0
 11
29.0959
 21
19.0307
 31
0.0
  0
LINE
  8
0
 62
     0
 10
29.0959
 20
19.0307
 30
0.0
 11
29.0959
 21
24.8309
 31
0.0
  0
LINE
  8
0
 62
     0
 10
29.0959
 20
24.8309
 30
0.0
 11
29.8965
 21
24.8309
 31
0.0
  0
LINE
  8
0
 62
     0
 10
29.8965
 20
24.8309
 30
0.0
 11
29.8965
 21
27.9301
 31
0.0
  0
LINE
  8
0
 62
     0
 10
29.8965
 20
27.9301
 30
0.0
 11
29.0959
 21
27.9301
 31
0.0
  0
LINE
  8
0
 62
     0
 10
29.0959
 20
27.9301
 30
0.0
 11
29.0959
 21
28.9305
 31
0.0
  0
LINE
  8
0
 62
     0
 10
29.0959
 20
28.9305
 30
0.0
 11
15.0964
 21
28.9305
 31
0.0
  0
LINE
  8
0
 62
     0
 10
219.644
 20
29.0725
 30
0.0
 11
219.818
 21
28.0886
 31
0.0
  0
LINE
  8
0
 62
     0
 10
219.818
 20
28.0886
 30
0.0
 11
219.029
 21
27.9494
 31
0.0
  0
LINE
  8
0
 62
     0
 10
219.029
 20
27.9494
 30
0.0
 11
219.568
 21
24.8956
 31
0.0
  0
LINE
  8
0
 62
     0
 10
219.568
 20
24.8956
 30
0.0
 11
220.357
 21
25.0348
 31
0.0
  0
LINE
  8
0
 62
     0
 10
220.357
 20
25.0348
 30
0.0
 11
221.364
 21
19.3228
 31
0.0
  0
LINE
  8
0
 62
     0
 10
221.364
 20
19.3228
 30
0.0
 11
220.576
 21
19.1837
 31
0.0
  0
LINE
  8
0
 62
     0
 10
220.576
 20
19.1837
 30
0.0
 11
221.113
 21
16.1313
 31
0.0
  0
LINE
  8
0
 62
     0
 10
221.113
 20
16.1313
 30
0.0
 11
221.901
 21
16.2705
 31
0.0
  0
LINE
  8
0
 62
     0
 10
221.901
 20
16.2705
 30
0.0
 11
222.075
 21
15.2852
 31
0.0
  0
LINE
  8
0
 62
     0
 10
222.075
 20
15.2852
 30
0.0
 11
235.862
 21
17.7161
 31
0.0
  0
LINE
  8
0
 62
     0
 10
235.862
 20
17.7161
 30
0.0
 11
235.689
 21
18.7013
 31
0.0
  0
LINE
  8
0
 62
     0
 10
235.689
 20
18.7013
 30
0.0
 11
236.477
 21
18.8406
 31
0.0
  0
LINE
  8
0
 62
     0
 10
236.477
 20
18.8406
 30
0.0
 11
235.938
 21
21.8929
 31
0.0
  0
LINE
  8
0
 62
     0
 10
235.938
 20
21.8929
 30
0.0
 11
235.15
 21
21.7537
 31
0.0
  0
LINE
  8
0
 62
     0
 10
235.15
 20
21.7537
 30
0.0
 11
234.144
 21
27.4657
 31
0.0
  0
LINE
  8
0
 62
     0
 10
234.144
 20
27.4657
 30
0.0
 11
234.932
 21
27.6049
 31
0.0
  0
LINE
  8
0
 62
     0
 10
234.932
 20
27.6049
 30
0.0
 11
234.392
 21
30.6586
 31
0.0
  0
LINE
  8
0
 62
     0
 10
234.392
 20
30.6586
 30
0.0
 11
233.605
 21
30.5194
 31
0.0
  0
LINE
  8
0
 62
     0
 10
233.605
 20
30.5194
 30
0.0
 11
233.431
 21
31.5033
 31
0.0
  0
LINE
  8
0
 62
     0
 10
233.431
 20
31.5033
 30
0.0
 11
219.644
 21
29.0725
 31
0.0
  0
LINE
  8
0
 62
     0
 10
278.94
 20
30.835
 30
0.0
 11
278.94
 21
29.8345
 31
0.0
  0
LINE
  8
0
 62
     0
 10
278.94
 20
29.8345
 30
0.0
 11
278.139
 21
29.8345
 31
0.0
  0
LINE
  8
0
 62
     0
 10
278.139
 20
29.8345
 30
0.0
 11
278.139
 21
26.7353
 31
0.0
  0
LINE
  8
0
 62
     0
 10
278.139
 20
26.7353
 30
0.0
 11
278.94
 21
26.7353
 31
0.0
  0
LINE
  8
0
 62
     0
 10
278.94
 20
26.7353
 30
0.0
 11
278.94
 21
20.9352
 31
0.0
  0
LINE
  8
0
 62
     0
 10
278.94
 20
20.9352
 30
0.0
 11
278.139
 21
20.9352
 31
0.0
  0
LINE
  8
0
 62
     0
 10
278.139
 20
20.9352
 30
0.0
 11
278.139
 21
17.8346
 31
0.0
  0
LINE
  8
0
 62
     0
 10
278.139
 20
17.8346
 30
0.0
 11
278.94
 21
17.8346
 31
0.0
  0
LINE
  8
0
 62
     0
 10
278.94
 20
17.8346
 30
0.0
 11
278.94
 21
16.8355
 31
0.0
  0
LINE
  8
0
 62
     0
 10
278.94
 20
16.8355
 30
0.0
 11
292.939
 21
16.8355
 31
0.0
  0
LINE
  8
0
 62
     0
 10
292.939
 20
16.8355
 30
0.0
 11
292.939
 21
17.8346
 31
0.0
  0
LINE
  8
0
 62
     0
 10
292.939
 20
17.8346
 30
0.0
 11
293.74
 21
17.8346
 31
0.0
  0
LINE
  8
0
 62
     0
 10
293.74
 20
17.8346
 30
0.0
 11
293.74
 21
20.9352
 31
0.0
  0
LINE
  8
0
 62
     0
 10
293.74
 20
20.9352
 30
0.0
 11
292.939
 21
20.9352
 31
0.0
  0
LINE
  8
0
 62
     0
 10
292.939
 20
20.9352
 30
0.0
 11
292.939
 21
26.7353
 31
0.0
  0
LINE
  8
0
 62
     0
 10
292.939
 20
26.7353
 30
0.0
 11
293.74
 21
26.7353
 31
0.0
  0
LINE
  8
0
 62
     0
 10
293.74
 20
26.7353
 30
0.0
 11
293.74
 21
29.8345
 31
0.0
  0
LINE
  8
0
 62
     0
 10
293.74
 20
29.8345
 30
0.0
 11
292.939
 21
29.8345
 31
0.0
  0
LINE
  8
0
 62
     0
 10
292.939
 20
29.8345
 30
0.0
 11
292.939
 21
30.835
 31
0.0
  0
LINE
  8
0
 62
     0
 10
292.939
 20
30.835
 30
0.0
 11
278.94
 21
30.835
 31
0.0
  0
LINE
  8
0
 62
     0
 10
259.89
 20
30.835
 30
0.0
 11
259.89
 21
29.8345
 31
0.0
  0
LINE
  8
0
 62
     0
 10
259.89
 20
29.8345
 30
0.0
 11
259.089
 21
29.8345
 31
0.0
  0
LINE
  8
0
 62
     0
 10
259.089
 20
29.8345
 30
0.0
 11
259.089
 21
26.7353
 31
0.0
  0
LINE
  8
0
 62
     0
 10
259.089
 20
26.7353
 30
0.0
 11
259.89
 21
26.7353
 31
0.0
  0
LINE
  8
0
 62
     0
 10
259.89
 20
26.7353
 30
0.0
 11
259.89
 21
20.9352
 31
0.0
  0
LINE
  8
0
 62
     0
 10
259.89
 20
20.9352
 30
0.0
 11
259.089
 21
20.9352
 31
0.0
  0
LINE
  8
0
 62
     0
 10
259.089
 20
20.9352
 30
0.0
 11
259.089
 21
17.8346
 31
0.0
  0
LINE
  8
0
 62
     0
 10
259.089
 20
17.8346
 30
0.0
 11
259.89
 21
17.8346
 31
0.0
  0
LINE
  8
0
 62
     0
 10
259.89
 20
17.8346
 30
0.0
 11
259.89
 21
16.8355
 31
0.0
  0
LINE
  8
0
 62
     0
 10
259.89
 20
16.8355
 30
0.0
 11
273.889
 21
16.8355
 31
0.0
  0
LINE
  8
0
 62
     0
 10
273.889
 20
16.8355
 30
0.0
 11
273.889
 21
17.8346
 31
0.0
  0
LINE
  8
0
 62
     0
 10
273.889
 20
17.8346
 30
0.0
 11
274.69
 21
17.8346
 31
0.0
  0
LINE
  8
0
 62
     0
 10
274.69
 20
17.8346
 30
0.0
 11
274.69
 21
20.9352
 31
0.0
  0
LINE
  8
0
 62
     0
 10
274.69
 20
20.9352
 30
0.0
 11
273.889
 21
20.9352
 31
0.0
  0
LINE
  8
0
 62
     0
 10
273.889
 20
20.9352
 30
0.0
 11
273.889
 21
26.7353
 31
0.0
  0
LINE
  8
0
 62
     0
 10
273.889
 20
26.7353
 30
0.0
 11
274.69
 21
26.7353
 31
0.0
  0
LINE
  8
0
 62
     0
 10
274.69
 20
26.7353
 30
0.0
 11
274.69
 21
29.8345
 31
0.0
  0
LINE
  8
0
 62
     0
 10
274.69
 20
29.8345
 30
0.0
 11
273.889
 21
29.8345
 31
0.0
  0
LINE
  8
0
 62
     0
 10
273.889
 20
29.8345
 30
0.0
 11
273.889
 21
30.835
 31
0.0
  0
LINE
  8
0
 62
     0
 10
273.889
 20
30.835
 30
0.0
 11
259.89
 21
30.835
 31
0.0
  0
LINE
  8
0
 62
     0
 10
240.84
 20
30.835
 30
0.0
 11
240.84
 21
29.8345
 31
0.0
  0
LINE
  8
0
 62
     0
 10
240.84
 20
29.8345
 30
0.0
 11
240.039
 21
29.8345
 31
0.0
  0
LINE
  8
0
 62
     0
 10
240.039
 20
29.8345
 30
0.0
 11
240.039
 21
26.7353
 31
0.0
  0
LINE
  8
0
 62
     0
 10
240.039
 20
26.7353
 30
0.0
 11
240.84
 21
26.7353
 31
0.0
  0
LINE
  8
0
 62
     0
 10
240.84
 20
26.7353
 30
0.0
 11
240.84
 21
20.9352
 31
0.0
  0
LINE
  8
0
 62
     0
 10
240.84
 20
20.9352
 30
0.0
 11
240.039
 21
20.9352
 31
0.0
  0
LINE
  8
0
 62
     0
 10
240.039
 20
20.9352
 30
0.0
 11
240.039
 21
17.8346
 31
0.0
  0
LINE
  8
0
 62
     0
 10
240.039
 20
17.8346
 30
0.0
 11
240.84
 21
17.8346
 31
0.0
  0
LINE
  8
0
 62
     0
 10
240.84
 20
17.8346
 30
0.0
 11
240.84
 21
16.8355
 31
0.0
  0
LINE
  8
0
 62
     0
 10
240.84
 20
16.8355
 30
0.0
 11
254.839
 21
16.8355
 31
0.0
  0
LINE
  8
0
 62
     0
 10
254.839
 20
16.8355
 30
0.0
 11
254.839
 21
17.8346
 31
0.0
  0
LINE
  8
0
 62
     0
 10
254.839
 20
17.8346
 30
0.0
 11
255.64
 21
17.8346
 31
0.0
  0
LINE
  8
0
 62
     0
 10
255.64
 20
17.8346
 30
0.0
 11
255.64
 21
20.9352
 31
0.0
  0
LINE
  8
0
 62
     0
 10
255.64
 20
20.9352
 30
0.0
 11
254.839
 21
20.9352
 31
0.0
  0
LINE
  8
0
 62
     0
 10
254.839
 20
20.9352
 30
0.0
 11
254.839
 21
26.7353
 31
0.0
  0
LINE
  8
0
 62
     0
 10
254.839
 20
26.7353
 30
0.0
 11
255.64
 21
26.7353
 31
0.0
  0
LINE
  8
0
 62
     0
 10
255.64
 20
26.7353
 30
0.0
 11
255.64
 21
29.8345
 31
0.0
  0
LINE
  8
0
 62
     0
 10
255.64
 20
29.8345
 30
0.0
 11
254.839
 21
29.8345
 31
0.0
  0
LINE
  8
0
 62
     0
 10
254.839
 20
29.8345
 30
0.0
 11
254.839
 21
30.835
 31
0.0
  0
LINE
  8
0
 62
     0
 10
254.839
 20
30.835
 30
0.0
 11
240.84
 21
30.835
 31
0.0
  0
LINE
  8
0
 62
     0
 10
122.058
 20
38.1826
 30
0.0
 11
121.27
 21
38.3219
 31
0.0
  0
LINE
  8
0
 62
     0
 10
121.27
 20
38.3219
 30
0.0
 11
120.733
 21
35.2681
 31
0.0
  0
LINE
  8
0
 62
     0
 10
120.733
 20
35.2681
 30
0.0
 11
121.521
 21
35.1289
 31
0.0
  0
LINE
  8
0
 62
     0
 10
121.521
 20
35.1289
 30
0.0
 11
120.512
 21
29.417
 31
0.0
  0
LINE
  8
0
 62
     0
 10
120.512
 20
29.417
 30
0.0
 11
119.725
 21
29.5562
 31
0.0
  0
LINE
  8
0
 62
     0
 10
119.725
 20
29.5562
 30
0.0
 11
119.187
 21
26.5038
 31
0.0
  0
LINE
  8
0
 62
     0
 10
119.187
 20
26.5038
 30
0.0
 11
119.975
 21
26.3646
 31
0.0
  0
LINE
  8
0
 62
     0
 10
119.975
 20
26.3646
 30
0.0
 11
119.801
 21
25.3793
 31
0.0
  0
LINE
  8
0
 62
     0
 10
119.801
 20
25.3793
 30
0.0
 11
133.588
 21
22.9485
 31
0.0
  0
LINE
  8
0
 62
     0
 10
133.588
 20
22.9485
 30
0.0
 11
133.762
 21
23.9338
 31
0.0
  0
LINE
  8
0
 62
     0
 10
133.762
 20
23.9338
 30
0.0
 11
134.549
 21
23.7946
 31
0.0
  0
LINE
  8
0
 62
     0
 10
134.549
 20
23.7946
 30
0.0
 11
135.089
 21
26.847
 31
0.0
  0
LINE
  8
0
 62
     0
 10
135.089
 20
26.847
 30
0.0
 11
134.301
 21
26.9861
 31
0.0
  0
LINE
  8
0
 62
     0
 10
134.301
 20
26.9861
 30
0.0
 11
135.307
 21
32.6981
 31
0.0
  0
LINE
  8
0
 62
     0
 10
135.307
 20
32.6981
 30
0.0
 11
136.095
 21
32.5589
 31
0.0
  0
LINE
  8
0
 62
     0
 10
136.095
 20
32.5589
 30
0.0
 11
136.634
 21
35.6126
 31
0.0
  0
LINE
  8
0
 62
     0
 10
136.634
 20
35.6126
 30
0.0
 11
135.846
 21
35.7519
 31
0.0
  0
LINE
  8
0
 62
     0
 10
135.846
 20
35.7519
 30
0.0
 11
136.019
 21
36.7358
 31
0.0
  0
LINE
  8
0
 62
     0
 10
136.019
 20
36.7358
 30
0.0
 11
122.232
 21
39.1664
 31
0.0
  0
LINE
  8
0
 62
     0
 10
122.232
 20
39.1664
 30
0.0
 11
122.058
 21
38.1826
 31
0.0
  0
LINE
  8
0
 62
     0
 10
164.744
 20
38.7368
 30
0.0
 11
164.918
 21
37.7515
 31
0.0
  0
LINE
  8
0
 62
     0
 10
164.918
 20
37.7515
 30
0.0
 11
164.13
 21
37.6121
 31
0.0
  0
LINE
  8
0
 62
     0
 10
164.13
 20
37.6121
 30
0.0
 11
164.669
 21
34.5598
 31
0.0
  0
LINE
  8
0
 62
     0
 10
164.669
 20
34.5598
 30
0.0
 11
165.457
 21
34.6976
 31
0.0
  0
LINE
  8
0
 62
     0
 10
165.457
 20
34.6976
 30
0.0
 11
166.463
 21
28.9857
 31
0.0
  0
LINE
  8
0
 62
     0
 10
166.463
 20
28.9857
 30
0.0
 11
165.676
 21
28.8478
 31
0.0
  0
LINE
  8
0
 62
     0
 10
165.676
 20
28.8478
 30
0.0
 11
166.215
 21
25.7955
 31
0.0
  0
LINE
  8
0
 62
     0
 10
166.215
 20
25.7955
 30
0.0
 11
167.002
 21
25.9333
 31
0.0
  0
LINE
  8
0
 62
     0
 10
167.002
 20
25.9333
 30
0.0
 11
167.175
 21
24.9494
 31
0.0
  0
LINE
  8
0
 62
     0
 10
167.175
 20
24.9494
 30
0.0
 11
180.963
 21
27.3802
 31
0.0
  0
LINE
  8
0
 62
     0
 10
180.963
 20
27.3802
 30
0.0
 11
180.789
 21
28.3641
 31
0.0
  0
LINE
  8
0
 62
     0
 10
180.789
 20
28.3641
 30
0.0
 11
181.577
 21
28.5034
 31
0.0
  0
LINE
  8
0
 62
     0
 10
181.577
 20
28.5034
 30
0.0
 11
181.038
 21
31.5557
 31
0.0
  0
LINE
  8
0
 62
     0
 10
181.038
 20
31.5557
 30
0.0
 11
180.25
 21
31.4165
 31
0.0
  0
LINE
  8
0
 62
     0
 10
180.25
 20
31.4165
 30
0.0
 11
179.243
 21
37.1299
 31
0.0
  0
LINE
  8
0
 62
     0
 10
179.243
 20
37.1299
 30
0.0
 11
180.031
 21
37.2678
 31
0.0
  0
LINE
  8
0
 62
     0
 10
180.031
 20
37.2678
 30
0.0
 11
179.494
 21
40.3214
 31
0.0
  0
LINE
  8
0
 62
     0
 10
179.494
 20
40.3214
 30
0.0
 11
178.705
 21
40.1821
 31
0.0
  0
LINE
  8
0
 62
     0
 10
178.705
 20
40.1821
 30
0.0
 11
178.532
 21
41.1674
 31
0.0
  0
LINE
  8
0
 62
     0
 10
178.532
 20
41.1674
 30
0.0
 11
164.744
 21
38.7368
 31
0.0
  0
LINE
  8
0
 62
     0
 10
103.298
 20
41.4898
 30
0.0
 11
102.509
 21
41.6292
 31
0.0
  0
LINE
  8
0
 62
     0
 10
102.509
 20
41.6292
 30
0.0
 11
101.972
 21
38.577
 31
0.0
  0
LINE
  8
0
 62
     0
 10
101.972
 20
38.577
 30
0.0
 11
102.759
 21
38.4376
 31
0.0
  0
LINE
  8
0
 62
     0
 10
102.759
 20
38.4376
 30
0.0
 11
101.753
 21
32.7256
 31
0.0
  0
LINE
  8
0
 62
     0
 10
101.753
 20
32.7256
 30
0.0
 11
100.965
 21
32.8648
 31
0.0
  0
LINE
  8
0
 62
     0
 10
100.965
 20
32.8648
 30
0.0
 11
100.426
 21
29.8111
 31
0.0
  0
LINE
  8
0
 62
     0
 10
100.426
 20
29.8111
 30
0.0
 11
101.214
 21
29.6719
 31
0.0
  0
LINE
  8
0
 62
     0
 10
101.214
 20
29.6719
 30
0.0
 11
101.04
 21
28.6866
 31
0.0
  0
LINE
  8
0
 62
     0
 10
101.04
 20
28.6866
 30
0.0
 11
114.828
 21
26.2558
 31
0.0
  0
LINE
  8
0
 62
     0
 10
114.828
 20
26.2558
 30
0.0
 11
115.001
 21
27.2411
 31
0.0
  0
LINE
  8
0
 62
     0
 10
115.001
 20
27.2411
 30
0.0
 11
115.79
 21
27.1019
 31
0.0
  0
LINE
  8
0
 62
     0
 10
115.79
 20
27.1019
 30
0.0
 11
116.327
 21
30.1556
 31
0.0
  0
LINE
  8
0
 62
     0
 10
116.327
 20
30.1556
 30
0.0
 11
115.539
 21
30.2948
 31
0.0
  0
LINE
  8
0
 62
     0
 10
115.539
 20
30.2948
 30
0.0
 11
116.546
 21
36.0066
 31
0.0
  0
LINE
  8
0
 62
     0
 10
116.546
 20
36.0066
 30
0.0
 11
117.335
 21
35.8676
 31
0.0
  0
LINE
  8
0
 62
     0
 10
117.335
 20
35.8676
 30
0.0
 11
117.872
 21
38.9199
 31
0.0
  0
LINE
  8
0
 62
     0
 10
117.872
 20
38.9199
 30
0.0
 11
117.085
 21
39.0592
 31
0.0
  0
LINE
  8
0
 62
     0
 10
117.085
 20
39.0592
 30
0.0
 11
117.259
 21
40.0445
 31
0.0
  0
LINE
  8
0
 62
     0
 10
117.259
 20
40.0445
 30
0.0
 11
103.471
 21
42.4752
 31
0.0
  0
LINE
  8
0
 62
     0
 10
103.471
 20
42.4752
 30
0.0
 11
103.298
 21
41.4898
 31
0.0
  0
LINE
  8
0
 62
     0
 10
183.505
 20
42.0441
 30
0.0
 11
183.679
 21
41.0587
 31
0.0
  0
LINE
  8
0
 62
     0
 10
183.679
 20
41.0587
 30
0.0
 11
182.891
 21
40.9208
 31
0.0
  0
LINE
  8
0
 62
     0
 10
182.891
 20
40.9208
 30
0.0
 11
183.429
 21
37.8672
 31
0.0
  0
LINE
  8
0
 62
     0
 10
183.429
 20
37.8672
 30
0.0
 11
184.217
 21
38.0062
 31
0.0
  0
LINE
  8
0
 62
     0
 10
184.217
 20
38.0062
 30
0.0
 11
185.225
 21
32.2943
 31
0.0
  0
LINE
  8
0
 62
     0
 10
185.225
 20
32.2943
 30
0.0
 11
184.437
 21
32.1551
 31
0.0
  0
LINE
  8
0
 62
     0
 10
184.437
 20
32.1551
 30
0.0
 11
184.974
 21
29.1028
 31
0.0
  0
LINE
  8
0
 62
     0
 10
184.974
 20
29.1028
 30
0.0
 11
185.762
 21
29.2406
 31
0.0
  0
LINE
  8
0
 62
     0
 10
185.762
 20
29.2406
 30
0.0
 11
185.936
 21
28.2567
 31
0.0
  0
LINE
  8
0
 62
     0
 10
185.936
 20
28.2567
 30
0.0
 11
199.723
 21
30.6875
 31
0.0
  0
LINE
  8
0
 62
     0
 10
199.723
 20
30.6875
 30
0.0
 11
199.549
 21
31.6728
 31
0.0
  0
LINE
  8
0
 62
     0
 10
199.549
 20
31.6728
 30
0.0
 11
200.338
 21
31.8106
 31
0.0
  0
LINE
  8
0
 62
     0
 10
200.338
 20
31.8106
 30
0.0
 11
199.799
 21
34.8644
 31
0.0
  0
LINE
  8
0
 62
     0
 10
199.799
 20
34.8644
 30
0.0
 11
199.012
 21
34.7252
 31
0.0
  0
LINE
  8
0
 62
     0
 10
199.012
 20
34.7252
 30
0.0
 11
198.005
 21
40.4372
 31
0.0
  0
LINE
  8
0
 62
     0
 10
198.005
 20
40.4372
 30
0.0
 11
198.793
 21
40.5765
 31
0.0
  0
LINE
  8
0
 62
     0
 10
198.793
 20
40.5765
 30
0.0
 11
198.253
 21
43.6287
 31
0.0
  0
LINE
  8
0
 62
     0
 10
198.253
 20
43.6287
 30
0.0
 11
197.466
 21
43.4894
 31
0.0
  0
LINE
  8
0
 62
     0
 10
197.466
 20
43.4894
 30
0.0
 11
197.292
 21
44.4747
 31
0.0
  0
LINE
  8
0
 62
     0
 10
197.292
 20
44.4747
 30
0.0
 11
183.505
 21
42.0441
 31
0.0
  0
LINE
  8
0
 62
     0
 10
84.5372
 20
44.7985
 30
0.0
 11
83.7487
 21
44.9379
 31
0.0
  0
LINE
  8
0
 62
     0
 10
83.7487
 20
44.9379
 30
0.0
 11
83.2115
 21
41.8842
 31
0.0
  0
LINE
  8
0
 62
     0
 10
83.2115
 20
41.8842
 30
0.0
 11
83.9982
 21
41.7449
 31
0.0
  0
LINE
  8
0
 62
     0
 10
83.9982
 20
41.7449
 30
0.0
 11
82.991
 21
36.0331
 31
0.0
  0
LINE
  8
0
 62
     0
 10
82.991
 20
36.0331
 30
0.0
 11
82.2043
 21
36.1721
 31
0.0
  0
LINE
  8
0
 62
     0
 10
82.2043
 20
36.1721
 30
0.0
 11
81.6652
 21
33.1198
 31
0.0
  0
LINE
  8
0
 62
     0
 10
81.6652
 20
33.1198
 30
0.0
 11
82.4537
 21
32.9806
 31
0.0
  0
LINE
  8
0
 62
     0
 10
82.4537
 20
32.9806
 30
0.0
 11
82.2798
 21
31.9953
 31
0.0
  0
LINE
  8
0
 62
     0
 10
82.2798
 20
31.9953
 30
0.0
 11
96.067
 21
29.5644
 31
0.0
  0
LINE
  8
0
 62
     0
 10
96.067
 20
29.5644
 30
0.0
 11
96.2409
 21
30.5497
 31
0.0
  0
LINE
  8
0
 62
     0
 10
96.2409
 20
30.5497
 30
0.0
 11
97.0291
 21
30.4105
 31
0.0
  0
LINE
  8
0
 62
     0
 10
97.0291
 20
30.4105
 30
0.0
 11
97.5663
 21
33.4629
 31
0.0
  0
LINE
  8
0
 62
     0
 10
97.5663
 20
33.4629
 30
0.0
 11
96.7796
 21
33.6021
 31
0.0
  0
LINE
  8
0
 62
     0
 10
96.7796
 20
33.6021
 30
0.0
 11
97.7868
 21
39.3139
 31
0.0
  0
LINE
  8
0
 62
     0
 10
97.7868
 20
39.3139
 30
0.0
 11
98.5739
 21
39.1749
 31
0.0
  0
LINE
  8
0
 62
     0
 10
98.5739
 20
39.1749
 30
0.0
 11
99.1126
 21
42.2286
 31
0.0
  0
LINE
  8
0
 62
     0
 10
99.1126
 20
42.2286
 30
0.0
 11
98.3245
 21
42.3679
 31
0.0
  0
LINE
  8
0
 62
     0
 10
98.3245
 20
42.3679
 30
0.0
 11
98.498
 21
43.3518
 31
0.0
  0
LINE
  8
0
 62
     0
 10
98.498
 20
43.3518
 30
0.0
 11
84.7108
 21
45.7824
 31
0.0
  0
LINE
  8
0
 62
     0
 10
84.7108
 20
45.7824
 30
0.0
 11
84.5372
 21
44.7985
 31
0.0
  0
LINE
  8
0
 62
     0
 10
202.266
 20
45.3528
 30
0.0
 11
202.439
 21
44.3674
 31
0.0
  0
LINE
  8
0
 62
     0
 10
202.439
 20
44.3674
 30
0.0
 11
201.651
 21
44.2281
 31
0.0
  0
LINE
  8
0
 62
     0
 10
201.651
 20
44.2281
 30
0.0
 11
202.19
 21
41.1759
 31
0.0
  0
LINE
  8
0
 62
     0
 10
202.19
 20
41.1759
 30
0.0
 11
202.978
 21
41.3135
 31
0.0
  0
LINE
  8
0
 62
     0
 10
202.978
 20
41.3135
 30
0.0
 11
203.984
 21
35.6016
 31
0.0
  0
LINE
  8
0
 62
     0
 10
203.984
 20
35.6016
 30
0.0
 11
203.196
 21
35.4637
 31
0.0
  0
LINE
  8
0
 62
     0
 10
203.196
 20
35.4637
 30
0.0
 11
203.736
 21
32.4115
 31
0.0
  0
LINE
  8
0
 62
     0
 10
203.736
 20
32.4115
 30
0.0
 11
204.523
 21
32.5493
 31
0.0
  0
LINE
  8
0
 62
     0
 10
204.523
 20
32.5493
 30
0.0
 11
204.696
 21
31.5654
 31
0.0
  0
LINE
  8
0
 62
     0
 10
204.696
 20
31.5654
 30
0.0
 11
218.484
 21
33.9962
 31
0.0
  0
LINE
  8
0
 62
     0
 10
218.484
 20
33.9962
 30
0.0
 11
218.31
 21
34.9801
 31
0.0
  0
LINE
  8
0
 62
     0
 10
218.31
 20
34.9801
 30
0.0
 11
219.098
 21
35.1193
 31
0.0
  0
LINE
  8
0
 62
     0
 10
219.098
 20
35.1193
 30
0.0
 11
218.56
 21
38.1716
 31
0.0
  0
LINE
  8
0
 62
     0
 10
218.56
 20
38.1716
 30
0.0
 11
217.773
 21
38.034
 31
0.0
  0
LINE
  8
0
 62
     0
 10
217.773
 20
38.034
 30
0.0
 11
216.764
 21
43.7459
 31
0.0
  0
LINE
  8
0
 62
     0
 10
216.764
 20
43.7459
 30
0.0
 11
217.552
 21
43.8838
 31
0.0
  0
LINE
  8
0
 62
     0
 10
217.552
 20
43.8838
 30
0.0
 11
217.015
 21
46.9374
 31
0.0
  0
LINE
  8
0
 62
     0
 10
217.015
 20
46.9374
 30
0.0
 11
216.227
 21
46.7981
 31
0.0
  0
LINE
  8
0
 62
     0
 10
216.227
 20
46.7981
 30
0.0
 11
216.053
 21
47.7834
 31
0.0
  0
LINE
  8
0
 62
     0
 10
216.053
 20
47.7834
 30
0.0
 11
202.266
 21
45.3528
 31
0.0
  0
LINE
  8
0
 62
     0
 10
65.7765
 20
48.1058
 30
0.0
 11
64.9884
 21
48.2452
 31
0.0
  0
LINE
  8
0
 62
     0
 10
64.9884
 20
48.2452
 30
0.0
 11
64.4507
 21
45.1926
 31
0.0
  0
LINE
  8
0
 62
     0
 10
64.4507
 20
45.1926
 30
0.0
 11
65.2392
 21
45.0536
 31
0.0
  0
LINE
  8
0
 62
     0
 10
65.2392
 20
45.0536
 30
0.0
 11
64.2317
 21
39.3418
 31
0.0
  0
LINE
  8
0
 62
     0
 10
64.2317
 20
39.3418
 30
0.0
 11
63.4436
 21
39.4808
 31
0.0
  0
LINE
  8
0
 62
     0
 10
63.4436
 20
39.4808
 30
0.0
 11
62.9049
 21
36.4271
 31
0.0
  0
LINE
  8
0
 62
     0
 10
62.9049
 20
36.4271
 30
0.0
 11
63.693
 21
36.2878
 31
0.0
  0
LINE
  8
0
 62
     0
 10
63.693
 20
36.2878
 30
0.0
 11
63.5194
 21
35.3025
 31
0.0
  0
LINE
  8
0
 62
     0
 10
63.5194
 20
35.3025
 30
0.0
 11
77.3067
 21
32.8717
 31
0.0
  0
LINE
  8
0
 62
     0
 10
77.3067
 20
32.8717
 30
0.0
 11
77.4802
 21
33.857
 31
0.0
  0
LINE
  8
0
 62
     0
 10
77.4802
 20
33.857
 30
0.0
 11
78.2669
 21
33.7178
 31
0.0
  0
LINE
  8
0
 62
     0
 10
78.2669
 20
33.7178
 30
0.0
 11
78.806
 21
36.7714
 31
0.0
  0
LINE
  8
0
 62
     0
 10
78.806
 20
36.7714
 30
0.0
 11
78.0189
 21
36.9108
 31
0.0
  0
LINE
  8
0
 62
     0
 10
78.0189
 20
36.9108
 30
0.0
 11
79.025
 21
42.6226
 31
0.0
  0
LINE
  8
0
 62
     0
 10
79.025
 20
42.6226
 30
0.0
 11
79.8132
 21
42.4836
 31
0.0
  0
LINE
  8
0
 62
     0
 10
79.8132
 20
42.4836
 30
0.0
 11
80.3522
 21
45.5359
 31
0.0
  0
LINE
  8
0
 62
     0
 10
80.3522
 20
45.5359
 30
0.0
 11
79.5637
 21
45.6752
 31
0.0
  0
LINE
  8
0
 62
     0
 10
79.5637
 20
45.6752
 30
0.0
 11
79.7373
 21
46.6605
 31
0.0
  0
LINE
  8
0
 62
     0
 10
79.7373
 20
46.6605
 30
0.0
 11
65.95
 21
49.0911
 31
0.0
  0
LINE
  8
0
 62
     0
 10
65.95
 20
49.0911
 30
0.0
 11
65.7765
 21
48.1058
 31
0.0
  0
LINE
  8
0
 62
     0
 10
18.4299
 20
47.9806
 30
0.0
 11
18.4299
 21
46.9801
 31
0.0
  0
LINE
  8
0
 62
     0
 10
18.4299
 20
46.9801
 30
0.0
 11
17.6306
 21
46.9801
 31
0.0
  0
LINE
  8
0
 62
     0
 10
17.6306
 20
46.9801
 30
0.0
 11
17.6306
 21
43.881
 31
0.0
  0
LINE
  8
0
 62
     0
 10
17.6306
 20
43.881
 30
0.0
 11
18.4299
 21
43.881
 31
0.0
  0
LINE
  8
0
 62
     0
 10
18.4299
 20
43.881
 30
0.0
 11
18.4299
 21
38.0806
 31
0.0
  0
LINE
  8
0
 62
     0
 10
18.4299
 20
38.0806
 30
0.0
 11
17.6306
 21
38.0806
 31
0.0
  0
LINE
  8
0
 62
     0
 10
17.6306
 20
38.0806
 30
0.0
 11
17.6306
 21
34.9801
 31
0.0
  0
LINE
  8
0
 62
     0
 10
17.6306
 20
34.9801
 30
0.0
 11
18.4299
 21
34.9801
 31
0.0
  0
LINE
  8
0
 62
     0
 10
18.4299
 20
34.9801
 30
0.0
 11
18.4299
 21
33.9797
 31
0.0
  0
LINE
  8
0
 62
     0
 10
18.4299
 20
33.9797
 30
0.0
 11
32.4308
 21
33.9797
 31
0.0
  0
LINE
  8
0
 62
     0
 10
32.4308
 20
33.9797
 30
0.0
 11
32.4308
 21
34.9801
 31
0.0
  0
LINE
  8
0
 62
     0
 10
32.4308
 20
34.9801
 30
0.0
 11
33.23
 21
34.9801
 31
0.0
  0
LINE
  8
0
 62
     0
 10
33.23
 20
34.9801
 30
0.0
 11
33.23
 21
38.0806
 31
0.0
  0
LINE
  8
0
 62
     0
 10
33.23
 20
38.0806
 30
0.0
 11
32.4308
 21
38.0806
 31
0.0
  0
LINE
  8
0
 62
     0
 10
32.4308
 20
38.0806
 30
0.0
 11
32.4308
 21
43.881
 31
0.0
  0
LINE
  8
0
 62
     0
 10
32.4308
 20
43.881
 30
0.0
 11
33.23
 21
43.881
 31
0.0
  0
LINE
  8
0
 62
     0
 10
33.23
 20
43.881
 30
0.0
 11
33.23
 21
46.9801
 31
0.0
  0
LINE
  8
0
 62
     0
 10
33.23
 20
46.9801
 30
0.0
 11
32.4308
 21
46.9801
 31
0.0
  0
LINE
  8
0
 62
     0
 10
32.4308
 20
46.9801
 30
0.0
 11
32.4308
 21
47.9806
 31
0.0
  0
LINE
  8
0
 62
     0
 10
32.4308
 20
47.9806
 30
0.0
 11
18.4299
 21
47.9806
 31
0.0
  0
LINE
  8
0
 62
     0
 10
221.026
 20
48.6601
 30
0.0
 11
221.2
 21
47.6747
 31
0.0
  0
LINE
  8
0
 62
     0
 10
221.2
 20
47.6747
 30
0.0
 11
220.413
 21
47.5368
 31
0.0
  0
LINE
  8
0
 62
     0
 10
220.413
 20
47.5368
 30
0.0
 11
220.95
 21
44.4832
 31
0.0
  0
LINE
  8
0
 62
     0
 10
220.95
 20
44.4832
 30
0.0
 11
221.739
 21
44.6222
 31
0.0
  0
LINE
  8
0
 62
     0
 10
221.739
 20
44.6222
 30
0.0
 11
222.746
 21
38.9103
 31
0.0
  0
LINE
  8
0
 62
     0
 10
222.746
 20
38.9103
 30
0.0
 11
221.958
 21
38.771
 31
0.0
  0
LINE
  8
0
 62
     0
 10
221.958
 20
38.771
 30
0.0
 11
222.495
 21
35.7188
 31
0.0
  0
LINE
  8
0
 62
     0
 10
222.495
 20
35.7188
 30
0.0
 11
223.284
 21
35.8567
 31
0.0
  0
LINE
  8
0
 62
     0
 10
223.284
 20
35.8567
 30
0.0
 11
223.457
 21
34.8726
 31
0.0
  0
LINE
  8
0
 62
     0
 10
223.457
 20
34.8726
 30
0.0
 11
237.244
 21
37.3034
 31
0.0
  0
LINE
  8
0
 62
     0
 10
237.244
 20
37.3034
 30
0.0
 11
237.071
 21
38.2887
 31
0.0
  0
LINE
  8
0
 62
     0
 10
237.071
 20
38.2887
 30
0.0
 11
237.859
 21
38.4267
 31
0.0
  0
LINE
  8
0
 62
     0
 10
237.859
 20
38.4267
 30
0.0
 11
237.32
 21
41.4803
 31
0.0
  0
LINE
  8
0
 62
     0
 10
237.32
 20
41.4803
 30
0.0
 11
236.532
 21
41.3413
 31
0.0
  0
LINE
  8
0
 62
     0
 10
236.532
 20
41.3413
 30
0.0
 11
235.526
 21
47.0531
 31
0.0
  0
LINE
  8
0
 62
     0
 10
235.526
 20
47.0531
 30
0.0
 11
236.313
 21
47.1921
 31
0.0
  0
LINE
  8
0
 62
     0
 10
236.313
 20
47.1921
 30
0.0
 11
235.776
 21
50.2447
 31
0.0
  0
LINE
  8
0
 62
     0
 10
235.776
 20
50.2447
 30
0.0
 11
234.987
 21
50.1068
 31
0.0
  0
LINE
  8
0
 62
     0
 10
234.987
 20
50.1068
 30
0.0
 11
234.813
 21
51.0907
 31
0.0
  0
LINE
  8
0
 62
     0
 10
234.813
 20
51.0907
 30
0.0
 11
221.026
 21
48.6601
 31
0.0
  0
LINE
  8
0
 62
     0
 10
280.654
 20
49.8849
 30
0.0
 11
280.654
 21
48.8844
 31
0.0
  0
LINE
  8
0
 62
     0
 10
280.654
 20
48.8844
 30
0.0
 11
279.853
 21
48.8844
 31
0.0
  0
LINE
  8
0
 62
     0
 10
279.853
 20
48.8844
 30
0.0
 11
279.853
 21
45.7853
 31
0.0
  0
LINE
  8
0
 62
     0
 10
279.853
 20
45.7853
 30
0.0
 11
280.654
 21
45.7853
 31
0.0
  0
LINE
  8
0
 62
     0
 10
280.654
 20
45.7853
 30
0.0
 11
280.654
 21
39.9852
 31
0.0
  0
LINE
  8
0
 62
     0
 10
280.654
 20
39.9852
 30
0.0
 11
279.853
 21
39.9852
 31
0.0
  0
LINE
  8
0
 62
     0
 10
279.853
 20
39.9852
 30
0.0
 11
279.853
 21
36.8847
 31
0.0
  0
LINE
  8
0
 62
     0
 10
279.853
 20
36.8847
 30
0.0
 11
280.654
 21
36.8847
 31
0.0
  0
LINE
  8
0
 62
     0
 10
280.654
 20
36.8847
 30
0.0
 11
280.654
 21
35.8856
 31
0.0
  0
LINE
  8
0
 62
     0
 10
280.654
 20
35.8856
 30
0.0
 11
294.653
 21
35.8856
 31
0.0
  0
LINE
  8
0
 62
     0
 10
294.653
 20
35.8856
 30
0.0
 11
294.653
 21
36.8847
 31
0.0
  0
LINE
  8
0
 62
     0
 10
294.653
 20
36.8847
 30
0.0
 11
295.454
 21
36.8847
 31
0.0
  0
LINE
  8
0
 62
     0
 10
295.454
 20
36.8847
 30
0.0
 11
295.454
 21
39.9852
 31
0.0
  0
LINE
  8
0
 62
     0
 10
295.454
 20
39.9852
 30
0.0
 11
294.653
 21
39.9852
 31
0.0
  0
LINE
  8
0
 62
     0
 10
294.653
 20
39.9852
 30
0.0
 11
294.653
 21
45.7853
 31
0.0
  0
LINE
  8
0
 62
     0
 10
294.653
 20
45.7853
 30
0.0
 11
295.454
 21
45.7853
 31
0.0
  0
LINE
  8
0
 62
     0
 10
295.454
 20
45.7853
 30
0.0
 11
295.454
 21
48.8844
 31
0.0
  0
LINE
  8
0
 62
     0
 10
295.454
 20
48.8844
 30
0.0
 11
294.653
 21
48.8844
 31
0.0
  0
LINE
  8
0
 62
     0
 10
294.653
 20
48.8844
 30
0.0
 11
294.653
 21
49.8849
 31
0.0
  0
LINE
  8
0
 62
     0
 10
294.653
 20
49.8849
 30
0.0
 11
280.654
 21
49.8849
 31
0.0
  0
LINE
  8
0
 62
     0
 10
261.604
 20
49.8849
 30
0.0
 11
261.604
 21
48.8844
 31
0.0
  0
LINE
  8
0
 62
     0
 10
261.604
 20
48.8844
 30
0.0
 11
260.803
 21
48.8844
 31
0.0
  0
LINE
  8
0
 62
     0
 10
260.803
 20
48.8844
 30
0.0
 11
260.803
 21
45.7853
 31
0.0
  0
LINE
  8
0
 62
     0
 10
260.803
 20
45.7853
 30
0.0
 11
261.604
 21
45.7853
 31
0.0
  0
LINE
  8
0
 62
     0
 10
261.604
 20
45.7853
 30
0.0
 11
261.604
 21
39.9852
 31
0.0
  0
LINE
  8
0
 62
     0
 10
261.604
 20
39.9852
 30
0.0
 11
260.803
 21
39.9852
 31
0.0
  0
LINE
  8
0
 62
     0
 10
260.803
 20
39.9852
 30
0.0
 11
260.803
 21
36.8847
 31
0.0
  0
LINE
  8
0
 62
     0
 10
260.803
 20
36.8847
 30
0.0
 11
261.604
 21
36.8847
 31
0.0
  0
LINE
  8
0
 62
     0
 10
261.604
 20
36.8847
 30
0.0
 11
261.604
 21
35.8856
 31
0.0
  0
LINE
  8
0
 62
     0
 10
261.604
 20
35.8856
 30
0.0
 11
275.603
 21
35.8856
 31
0.0
  0
LINE
  8
0
 62
     0
 10
275.603
 20
35.8856
 30
0.0
 11
275.603
 21
36.8847
 31
0.0
  0
LINE
  8
0
 62
     0
 10
275.603
 20
36.8847
 30
0.0
 11
276.404
 21
36.8847
 31
0.0
  0
LINE
  8
0
 62
     0
 10
276.404
 20
36.8847
 30
0.0
 11
276.404
 21
39.9852
 31
0.0
  0
LINE
  8
0
 62
     0
 10
276.404
 20
39.9852
 30
0.0
 11
275.603
 21
39.9852
 31
0.0
  0
LINE
  8
0
 62
     0
 10
275.603
 20
39.9852
 30
0.0
 11
275.603
 21
45.7853
 31
0.0
  0
LINE
  8
0
 62
     0
 10
275.603
 20
45.7853
 30
0.0
 11
276.404
 21
45.7853
 31
0.0
  0
LINE
  8
0
 62
     0
 10
276.404
 20
45.7853
 30
0.0
 11
276.404
 21
48.8844
 31
0.0
  0
LINE
  8
0
 62
     0
 10
276.404
 20
48.8844
 30
0.0
 11
275.603
 21
48.8844
 31
0.0
  0
LINE
  8
0
 62
     0
 10
275.603
 20
48.8844
 30
0.0
 11
275.603
 21
49.8849
 31
0.0
  0
LINE
  8
0
 62
     0
 10
275.603
 20
49.8849
 30
0.0
 11
261.604
 21
49.8849
 31
0.0
  0
LINE
  8
0
 62
     0
 10
242.554
 20
49.8849
 30
0.0
 11
242.554
 21
48.8844
 31
0.0
  0
LINE
  8
0
 62
     0
 10
242.554
 20
48.8844
 30
0.0
 11
241.753
 21
48.8844
 31
0.0
  0
LINE
  8
0
 62
     0
 10
241.753
 20
48.8844
 30
0.0
 11
241.753
 21
45.7853
 31
0.0
  0
LINE
  8
0
 62
     0
 10
241.753
 20
45.7853
 30
0.0
 11
242.554
 21
45.7853
 31
0.0
  0
LINE
  8
0
 62
     0
 10
242.554
 20
45.7853
 30
0.0
 11
242.554
 21
39.9852
 31
0.0
  0
LINE
  8
0
 62
     0
 10
242.554
 20
39.9852
 30
0.0
 11
241.753
 21
39.9852
 31
0.0
  0
LINE
  8
0
 62
     0
 10
241.753
 20
39.9852
 30
0.0
 11
241.753
 21
36.8847
 31
0.0
  0
LINE
  8
0
 62
     0
 10
241.753
 20
36.8847
 30
0.0
 11
242.554
 21
36.8847
 31
0.0
  0
LINE
  8
0
 62
     0
 10
242.554
 20
36.8847
 30
0.0
 11
242.554
 21
35.8856
 31
0.0
  0
LINE
  8
0
 62
     0
 10
242.554
 20
35.8856
 30
0.0
 11
256.553
 21
35.8856
 31
0.0
  0
LINE
  8
0
 62
     0
 10
256.553
 20
35.8856
 30
0.0
 11
256.553
 21
36.8847
 31
0.0
  0
LINE
  8
0
 62
     0
 10
256.553
 20
36.8847
 30
0.0
 11
257.354
 21
36.8847
 31
0.0
  0
LINE
  8
0
 62
     0
 10
257.354
 20
36.8847
 30
0.0
 11
257.354
 21
39.9852
 31
0.0
  0
LINE
  8
0
 62
     0
 10
257.354
 20
39.9852
 30
0.0
 11
256.553
 21
39.9852
 31
0.0
  0
LINE
  8
0
 62
     0
 10
256.553
 20
39.9852
 30
0.0
 11
256.553
 21
45.7853
 31
0.0
  0
LINE
  8
0
 62
     0
 10
256.553
 20
45.7853
 30
0.0
 11
257.354
 21
45.7853
 31
0.0
  0
LINE
  8
0
 62
     0
 10
257.354
 20
45.7853
 30
0.0
 11
257.354
 21
48.8844
 31
0.0
  0
LINE
  8
0
 62
     0
 10
257.354
 20
48.8844
 30
0.0
 11
256.553
 21
48.8844
 31
0.0
  0
LINE
  8
0
 62
     0
 10
256.553
 20
48.8844
 30
0.0
 11
256.553
 21
49.8849
 31
0.0
  0
LINE
  8
0
 62
     0
 10
256.553
 20
49.8849
 30
0.0
 11
242.554
 21
49.8849
 31
0.0
  0
LINE
  8
0
 62
     0
 10
44.625
 20
49.8849
 30
0.0
 11
44.625
 21
48.8844
 31
0.0
  0
LINE
  8
0
 62
     0
 10
44.625
 20
48.8844
 30
0.0
 11
43.8245
 21
48.8844
 31
0.0
  0
LINE
  8
0
 62
     0
 10
43.8245
 20
48.8844
 30
0.0
 11
43.8245
 21
45.7853
 31
0.0
  0
LINE
  8
0
 62
     0
 10
43.8245
 20
45.7853
 30
0.0
 11
44.625
 21
45.7853
 31
0.0
  0
LINE
  8
0
 62
     0
 10
44.625
 20
45.7853
 30
0.0
 11
44.625
 21
39.9852
 31
0.0
  0
LINE
  8
0
 62
     0
 10
44.625
 20
39.9852
 30
0.0
 11
43.8245
 21
39.9852
 31
0.0
  0
LINE
  8
0
 62
     0
 10
43.8245
 20
39.9852
 30
0.0
 11
43.8245
 21
36.8847
 31
0.0
  0
LINE
  8
0
 62
     0
 10
43.8245
 20
36.8847
 30
0.0
 11
44.625
 21
36.8847
 31
0.0
  0
LINE
  8
0
 62
     0
 10
44.625
 20
36.8847
 30
0.0
 11
44.625
 21
35.8856
 31
0.0
  0
LINE
  8
0
 62
     0
 10
44.625
 20
35.8856
 30
0.0
 11
58.6246
 21
35.8856
 31
0.0
  0
LINE
  8
0
 62
     0
 10
58.6246
 20
35.8856
 30
0.0
 11
58.6246
 21
36.8847
 31
0.0
  0
LINE
  8
0
 62
     0
 10
58.6246
 20
36.8847
 30
0.0
 11
59.4251
 21
36.8847
 31
0.0
  0
LINE
  8
0
 62
     0
 10
59.4251
 20
36.8847
 30
0.0
 11
59.4251
 21
39.9852
 31
0.0
  0
LINE
  8
0
 62
     0
 10
59.4251
 20
39.9852
 30
0.0
 11
58.6246
 21
39.9852
 31
0.0
  0
LINE
  8
0
 62
     0
 10
58.6246
 20
39.9852
 30
0.0
 11
58.6246
 21
45.7853
 31
0.0
  0
LINE
  8
0
 62
     0
 10
58.6246
 20
45.7853
 30
0.0
 11
59.4251
 21
45.7853
 31
0.0
  0
LINE
  8
0
 62
     0
 10
59.4251
 20
45.7853
 30
0.0
 11
59.4251
 21
48.8844
 31
0.0
  0
LINE
  8
0
 62
     0
 10
59.4251
 20
48.8844
 30
0.0
 11
58.6246
 21
48.8844
 31
0.0
  0
LINE
  8
0
 62
     0
 10
58.6246
 20
48.8844
 30
0.0
 11
58.6246
 21
49.8849
 31
0.0
  0
LINE
  8
0
 62
     0
 10
58.6246
 20
49.8849
 30
0.0
 11
44.625
 21
49.8849
 31
0.0
  0
LINE
  8
0
 62
     0
 10
156.746
 20
56.6706
 30
0.0
 11
156.92
 21
55.6853
 31
0.0
  0
LINE
  8
0
 62
     0
 10
156.92
 20
55.6853
 30
0.0
 11
156.133
 21
55.5459
 31
0.0
  0
LINE
  8
0
 62
     0
 10
156.133
 20
55.5459
 30
0.0
 11
156.67
 21
52.4937
 31
0.0
  0
LINE
  8
0
 62
     0
 10
156.67
 20
52.4937
 30
0.0
 11
157.459
 21
52.6327
 31
0.0
  0
LINE
  8
0
 62
     0
 10
157.459
 20
52.6327
 30
0.0
 11
158.466
 21
46.9209
 31
0.0
  0
LINE
  8
0
 62
     0
 10
158.466
 20
46.9209
 30
0.0
 11
157.678
 21
46.7815
 31
0.0
  0
LINE
  8
0
 62
     0
 10
157.678
 20
46.7815
 30
0.0
 11
158.215
 21
43.7279
 31
0.0
  0
LINE
  8
0
 62
     0
 10
158.215
 20
43.7279
 30
0.0
 11
159.004
 21
43.8672
 31
0.0
  0
LINE
  8
0
 62
     0
 10
159.004
 20
43.8672
 30
0.0
 11
159.177
 21
42.8819
 31
0.0
  0
LINE
  8
0
 62
     0
 10
159.177
 20
42.8819
 30
0.0
 11
172.964
 21
45.3125
 31
0.0
  0
LINE
  8
0
 62
     0
 10
172.964
 20
45.3125
 30
0.0
 11
172.791
 21
46.2979
 31
0.0
  0
LINE
  8
0
 62
     0
 10
172.791
 20
46.2979
 30
0.0
 11
173.579
 21
46.4372
 31
0.0
  0
LINE
  8
0
 62
     0
 10
173.579
 20
46.4372
 30
0.0
 11
173.04
 21
49.4908
 31
0.0
  0
LINE
  8
0
 62
     0
 10
173.04
 20
49.4908
 30
0.0
 11
172.252
 21
49.3518
 31
0.0
  0
LINE
  8
0
 62
     0
 10
172.252
 20
49.3518
 30
0.0
 11
171.246
 21
55.0637
 31
0.0
  0
LINE
  8
0
 62
     0
 10
171.246
 20
55.0637
 30
0.0
 11
172.033
 21
55.2027
 31
0.0
  0
LINE
  8
0
 62
     0
 10
172.033
 20
55.2027
 30
0.0
 11
171.496
 21
58.2553
 31
0.0
  0
LINE
  8
0
 62
     0
 10
171.496
 20
58.2553
 30
0.0
 11
170.707
 21
58.1159
 31
0.0
  0
LINE
  8
0
 62
     0
 10
170.707
 20
58.1159
 30
0.0
 11
170.533
 21
59.1012
 31
0.0
  0
LINE
  8
0
 62
     0
 10
170.533
 20
59.1012
 30
0.0
 11
156.746
 21
56.6706
 31
0.0
  0
LINE
  8
0
 62
     0
 10
115.048
 20
58.7622
 30
0.0
 11
114.26
 21
58.9015
 31
0.0
  0
LINE
  8
0
 62
     0
 10
114.26
 20
58.9015
 30
0.0
 11
113.721
 21
55.8479
 31
0.0
  0
LINE
  8
0
 62
     0
 10
113.721
 20
55.8479
 30
0.0
 11
114.51
 21
55.7086
 31
0.0
  0
LINE
  8
0
 62
     0
 10
114.51
 20
55.7086
 30
0.0
 11
113.502
 21
49.9967
 31
0.0
  0
LINE
  8
0
 62
     0
 10
113.502
 20
49.9967
 30
0.0
 11
112.714
 21
50.1357
 31
0.0
  0
LINE
  8
0
 62
     0
 10
112.714
 20
50.1357
 30
0.0
 11
112.176
 21
47.0835
 31
0.0
  0
LINE
  8
0
 62
     0
 10
112.176
 20
47.0835
 30
0.0
 11
112.965
 21
46.9441
 31
0.0
  0
LINE
  8
0
 62
     0
 10
112.965
 20
46.9441
 30
0.0
 11
112.791
 21
45.9588
 31
0.0
  0
LINE
  8
0
 62
     0
 10
112.791
 20
45.9588
 30
0.0
 11
126.577
 21
43.5282
 31
0.0
  0
LINE
  8
0
 62
     0
 10
126.577
 20
43.5282
 30
0.0
 11
126.752
 21
44.5135
 31
0.0
  0
LINE
  8
0
 62
     0
 10
126.752
 20
44.5135
 30
0.0
 11
127.539
 21
44.3742
 31
0.0
  0
LINE
  8
0
 62
     0
 10
127.539
 20
44.3742
 30
0.0
 11
128.078
 21
47.4267
 31
0.0
  0
LINE
  8
0
 62
     0
 10
128.078
 20
47.4267
 30
0.0
 11
127.289
 21
47.5657
 31
0.0
  0
LINE
  8
0
 62
     0
 10
127.289
 20
47.5657
 30
0.0
 11
128.298
 21
53.2776
 31
0.0
  0
LINE
  8
0
 62
     0
 10
128.298
 20
53.2776
 30
0.0
 11
129.085
 21
53.1386
 31
0.0
  0
LINE
  8
0
 62
     0
 10
129.085
 20
53.1386
 30
0.0
 11
129.624
 21
56.1922
 31
0.0
  0
LINE
  8
0
 62
     0
 10
129.624
 20
56.1922
 30
0.0
 11
128.836
 21
56.3316
 31
0.0
  0
LINE
  8
0
 62
     0
 10
128.836
 20
56.3316
 30
0.0
 11
129.008
 21
57.3169
 31
0.0
  0
LINE
  8
0
 62
     0
 10
129.008
 20
57.3169
 30
0.0
 11
115.222
 21
59.7475
 31
0.0
  0
LINE
  8
0
 62
     0
 10
115.222
 20
59.7475
 30
0.0
 11
115.048
 21
58.7622
 31
0.0
  0
LINE
  8
0
 62
     0
 10
175.507
 20
59.9779
 30
0.0
 11
175.681
 21
58.994
 31
0.0
  0
LINE
  8
0
 62
     0
 10
175.681
 20
58.994
 30
0.0
 11
174.892
 21
58.8546
 31
0.0
  0
LINE
  8
0
 62
     0
 10
174.892
 20
58.8546
 30
0.0
 11
175.431
 21
55.801
 31
0.0
  0
LINE
  8
0
 62
     0
 10
175.431
 20
55.801
 30
0.0
 11
176.218
 21
55.94
 31
0.0
  0
LINE
  8
0
 62
     0
 10
176.218
 20
55.94
 30
0.0
 11
177.227
 21
50.2281
 31
0.0
  0
LINE
  8
0
 62
     0
 10
177.227
 20
50.2281
 30
0.0
 11
176.439
 21
50.0888
 31
0.0
  0
LINE
  8
0
 62
     0
 10
176.439
 20
50.0888
 30
0.0
 11
176.976
 21
47.0366
 31
0.0
  0
LINE
  8
0
 62
     0
 10
176.976
 20
47.0366
 30
0.0
 11
177.764
 21
47.1759
 31
0.0
  0
LINE
  8
0
 62
     0
 10
177.764
 20
47.1759
 30
0.0
 11
177.938
 21
46.1906
 31
0.0
  0
LINE
  8
0
 62
     0
 10
177.938
 20
46.1906
 30
0.0
 11
191.725
 21
48.6212
 31
0.0
  0
LINE
  8
0
 62
     0
 10
191.725
 20
48.6212
 30
0.0
 11
191.551
 21
49.6066
 31
0.0
  0
LINE
  8
0
 62
     0
 10
191.551
 20
49.6066
 30
0.0
 11
192.34
 21
49.7459
 31
0.0
  0
LINE
  8
0
 62
     0
 10
192.34
 20
49.7459
 30
0.0
 11
191.801
 21
52.7981
 31
0.0
  0
LINE
  8
0
 62
     0
 10
191.801
 20
52.7981
 30
0.0
 11
191.014
 21
52.6591
 31
0.0
  0
LINE
  8
0
 62
     0
 10
191.014
 20
52.6591
 30
0.0
 11
190.007
 21
58.371
 31
0.0
  0
LINE
  8
0
 62
     0
 10
190.007
 20
58.371
 30
0.0
 11
190.795
 21
58.51
 31
0.0
  0
LINE
  8
0
 62
     0
 10
190.795
 20
58.51
 30
0.0
 11
190.256
 21
61.564
 31
0.0
  0
LINE
  8
0
 62
     0
 10
190.256
 20
61.564
 30
0.0
 11
189.468
 21
61.4246
 31
0.0
  0
LINE
  8
0
 62
     0
 10
189.468
 20
61.4246
 30
0.0
 11
189.294
 21
62.4085
 31
0.0
  0
LINE
  8
0
 62
     0
 10
189.294
 20
62.4085
 30
0.0
 11
175.507
 21
59.9779
 31
0.0
  0
LINE
  8
0
 62
     0
 10
96.2875
 20
62.0695
 30
0.0
 11
95.4994
 21
62.2088
 31
0.0
  0
LINE
  8
0
 62
     0
 10
95.4994
 20
62.2088
 30
0.0
 11
94.9621
 21
59.1566
 31
0.0
  0
LINE
  8
0
 62
     0
 10
94.9621
 20
59.1566
 30
0.0
 11
95.7488
 21
59.0173
 31
0.0
  0
LINE
  8
0
 62
     0
 10
95.7488
 20
59.0173
 30
0.0
 11
94.7416
 21
53.3054
 31
0.0
  0
LINE
  8
0
 62
     0
 10
94.7416
 20
53.3054
 30
0.0
 11
93.9546
 21
53.4444
 31
0.0
  0
LINE
  8
0
 62
     0
 10
93.9546
 20
53.4444
 30
0.0
 11
93.4159
 21
50.3908
 31
0.0
  0
LINE
  8
0
 62
     0
 10
93.4159
 20
50.3908
 30
0.0
 11
94.204
 21
50.2514
 31
0.0
  0
LINE
  8
0
 62
     0
 10
94.204
 20
50.2514
 30
0.0
 11
94.0304
 21
49.2675
 31
0.0
  0
LINE
  8
0
 62
     0
 10
94.0304
 20
49.2675
 30
0.0
 11
107.818
 21
46.8369
 31
0.0
  0
LINE
  8
0
 62
     0
 10
107.818
 20
46.8369
 30
0.0
 11
107.99
 21
47.8208
 31
0.0
  0
LINE
  8
0
 62
     0
 10
107.99
 20
47.8208
 30
0.0
 11
108.778
 21
47.6814
 31
0.0
  0
LINE
  8
0
 62
     0
 10
108.778
 20
47.6814
 30
0.0
 11
109.317
 21
50.7351
 31
0.0
  0
LINE
  8
0
 62
     0
 10
109.317
 20
50.7351
 30
0.0
 11
108.53
 21
50.8744
 31
0.0
  0
LINE
  8
0
 62
     0
 10
108.53
 20
50.8744
 30
0.0
 11
109.536
 21
56.5863
 31
0.0
  0
LINE
  8
0
 62
     0
 10
109.536
 20
56.5863
 30
0.0
 11
110.324
 21
56.4473
 31
0.0
  0
LINE
  8
0
 62
     0
 10
110.324
 20
56.4473
 30
0.0
 11
110.863
 21
59.4995
 31
0.0
  0
LINE
  8
0
 62
     0
 10
110.863
 20
59.4995
 30
0.0
 11
110.075
 21
59.6388
 31
0.0
  0
LINE
  8
0
 62
     0
 10
110.075
 20
59.6388
 30
0.0
 11
110.249
 21
60.6242
 31
0.0
  0
LINE
  8
0
 62
     0
 10
110.249
 20
60.6242
 30
0.0
 11
96.4614
 21
63.0548
 31
0.0
  0
LINE
  8
0
 62
     0
 10
96.4614
 20
63.0548
 30
0.0
 11
96.2875
 21
62.0695
 31
0.0
  0
LINE
  8
0
 62
     0
 10
194.268
 20
63.2866
 30
0.0
 11
194.441
 21
62.3013
 31
0.0
  0
LINE
  8
0
 62
     0
 10
194.441
 20
62.3013
 30
0.0
 11
193.653
 21
62.1619
 31
0.0
  0
LINE
  8
0
 62
     0
 10
193.653
 20
62.1619
 30
0.0
 11
194.192
 21
59.1097
 31
0.0
  0
LINE
  8
0
 62
     0
 10
194.192
 20
59.1097
 30
0.0
 11
194.98
 21
59.2487
 31
0.0
  0
LINE
  8
0
 62
     0
 10
194.98
 20
59.2487
 30
0.0
 11
195.986
 21
53.5368
 31
0.0
  0
LINE
  8
0
 62
     0
 10
195.986
 20
53.5368
 30
0.0
 11
195.199
 21
53.3975
 31
0.0
  0
LINE
  8
0
 62
     0
 10
195.199
 20
53.3975
 30
0.0
 11
195.738
 21
50.3439
 31
0.0
  0
LINE
  8
0
 62
     0
 10
195.738
 20
50.3439
 30
0.0
 11
196.525
 21
50.4832
 31
0.0
  0
LINE
  8
0
 62
     0
 10
196.525
 20
50.4832
 30
0.0
 11
196.698
 21
49.4979
 31
0.0
  0
LINE
  8
0
 62
     0
 10
196.698
 20
49.4979
 30
0.0
 11
210.486
 21
51.9285
 31
0.0
  0
LINE
  8
0
 62
     0
 10
210.486
 20
51.9285
 30
0.0
 11
210.312
 21
52.9138
 31
0.0
  0
LINE
  8
0
 62
     0
 10
210.312
 20
52.9138
 30
0.0
 11
211.1
 21
53.0532
 31
0.0
  0
LINE
  8
0
 62
     0
 10
211.1
 20
53.0532
 30
0.0
 11
210.561
 21
56.1068
 31
0.0
  0
LINE
  8
0
 62
     0
 10
210.561
 20
56.1068
 30
0.0
 11
209.773
 21
55.9675
 31
0.0
  0
LINE
  8
0
 62
     0
 10
209.773
 20
55.9675
 30
0.0
 11
208.766
 21
61.6797
 31
0.0
  0
LINE
  8
0
 62
     0
 10
208.766
 20
61.6797
 30
0.0
 11
209.554
 21
61.8187
 31
0.0
  0
LINE
  8
0
 62
     0
 10
209.554
 20
61.8187
 30
0.0
 11
209.017
 21
64.8712
 31
0.0
  0
LINE
  8
0
 62
     0
 10
209.017
 20
64.8712
 30
0.0
 11
208.229
 21
64.7319
 31
0.0
  0
LINE
  8
0
 62
     0
 10
208.229
 20
64.7319
 30
0.0
 11
208.055
 21
65.7186
 31
0.0
  0
LINE
  8
0
 62
     0
 10
208.055
 20
65.7186
 30
0.0
 11
194.268
 21
63.2866
 31
0.0
  0
LINE
  8
0
 62
     0
 10
77.5271
 20
65.3796
 30
0.0
 11
76.7387
 21
65.5175
 31
0.0
  0
LINE
  8
0
 62
     0
 10
76.7387
 20
65.5175
 30
0.0
 11
76.2
 21
62.4639
 31
0.0
  0
LINE
  8
0
 62
     0
 10
76.2
 20
62.4639
 30
0.0
 11
76.9881
 21
62.3245
 31
0.0
  0
LINE
  8
0
 62
     0
 10
76.9881
 20
62.3245
 30
0.0
 11
75.9809
 21
56.6127
 31
0.0
  0
LINE
  8
0
 62
     0
 10
75.9809
 20
56.6127
 30
0.0
 11
75.1939
 21
56.7517
 31
0.0
  0
LINE
  8
0
 62
     0
 10
75.1939
 20
56.7517
 30
0.0
 11
74.6552
 21
53.6995
 31
0.0
  0
LINE
  8
0
 62
     0
 10
74.6552
 20
53.6995
 30
0.0
 11
75.4433
 21
53.5601
 31
0.0
  0
LINE
  8
0
 62
     0
 10
75.4433
 20
53.5601
 30
0.0
 11
75.2697
 21
52.5748
 31
0.0
  0
LINE
  8
0
 62
     0
 10
75.2697
 20
52.5748
 30
0.0
 11
89.057
 21
50.1442
 31
0.0
  0
LINE
  8
0
 62
     0
 10
89.057
 20
50.1442
 30
0.0
 11
89.2309
 21
51.1295
 31
0.0
  0
LINE
  8
0
 62
     0
 10
89.2309
 20
51.1295
 30
0.0
 11
90.019
 21
50.9901
 31
0.0
  0
LINE
  8
0
 62
     0
 10
90.019
 20
50.9901
 30
0.0
 11
90.5563
 21
54.0424
 31
0.0
  0
LINE
  8
0
 62
     0
 10
90.5563
 20
54.0424
 30
0.0
 11
89.7682
 21
54.1817
 31
0.0
  0
LINE
  8
0
 62
     0
 10
89.7682
 20
54.1817
 30
0.0
 11
90.7754
 21
59.8936
 31
0.0
  0
LINE
  8
0
 62
     0
 10
90.7754
 20
59.8936
 30
0.0
 11
91.5638
 21
59.7546
 31
0.0
  0
LINE
  8
0
 62
     0
 10
91.5638
 20
59.7546
 30
0.0
 11
92.1025
 21
62.8082
 31
0.0
  0
LINE
  8
0
 62
     0
 10
92.1025
 20
62.8082
 30
0.0
 11
91.3144
 21
62.9476
 31
0.0
  0
LINE
  8
0
 62
     0
 10
91.3144
 20
62.9476
 30
0.0
 11
91.488
 21
63.9329
 31
0.0
  0
LINE
  8
0
 62
     0
 10
91.488
 20
63.9329
 30
0.0
 11
77.7007
 21
66.3635
 31
0.0
  0
LINE
  8
0
 62
     0
 10
77.7007
 20
66.3635
 30
0.0
 11
77.5271
 21
65.3796
 31
0.0
  0
LINE
  8
0
 62
     0
 10
213.028
 20
66.5939
 30
0.0
 11
213.202
 21
65.6096
 31
0.0
  0
LINE
  8
0
 62
     0
 10
213.202
 20
65.6096
 30
0.0
 11
212.413
 21
65.4706
 31
0.0
  0
LINE
  8
0
 62
     0
 10
212.413
 20
65.4706
 30
0.0
 11
212.953
 21
62.417
 31
0.0
  0
LINE
  8
0
 62
     0
 10
212.953
 20
62.417
 30
0.0
 11
213.741
 21
62.556
 31
0.0
  0
LINE
  8
0
 62
     0
 10
213.741
 20
62.556
 30
0.0
 11
214.748
 21
56.8441
 31
0.0
  0
LINE
  8
0
 62
     0
 10
214.748
 20
56.8441
 30
0.0
 11
213.96
 21
56.7048
 31
0.0
  0
LINE
  8
0
 62
     0
 10
213.96
 20
56.7048
 30
0.0
 11
214.497
 21
53.6526
 31
0.0
  0
LINE
  8
0
 62
     0
 10
214.497
 20
53.6526
 30
0.0
 11
215.285
 21
53.7916
 31
0.0
  0
LINE
  8
0
 62
     0
 10
215.285
 20
53.7916
 30
0.0
 11
215.459
 21
52.8066
 31
0.0
  0
LINE
  8
0
 62
     0
 10
215.459
 20
52.8066
 30
0.0
 11
229.246
 21
55.2372
 31
0.0
  0
LINE
  8
0
 62
     0
 10
229.246
 20
55.2372
 30
0.0
 11
229.073
 21
56.2225
 31
0.0
  0
LINE
  8
0
 62
     0
 10
229.073
 20
56.2225
 30
0.0
 11
229.861
 21
56.3619
 31
0.0
  0
LINE
  8
0
 62
     0
 10
229.861
 20
56.3619
 30
0.0
 11
229.322
 21
59.4141
 31
0.0
  0
LINE
  8
0
 62
     0
 10
229.322
 20
59.4141
 30
0.0
 11
228.534
 21
59.2748
 31
0.0
  0
LINE
  8
0
 62
     0
 10
228.534
 20
59.2748
 30
0.0
 11
227.528
 21
64.987
 31
0.0
  0
LINE
  8
0
 62
     0
 10
227.528
 20
64.987
 30
0.0
 11
228.316
 21
65.126
 31
0.0
  0
LINE
  8
0
 62
     0
 10
228.316
 20
65.126
 30
0.0
 11
227.776
 21
68.18
 31
0.0
  0
LINE
  8
0
 62
     0
 10
227.776
 20
68.18
 30
0.0
 11
226.989
 21
68.0406
 31
0.0
  0
LINE
  8
0
 62
     0
 10
226.989
 20
68.0406
 30
0.0
 11
226.815
 21
69.0245
 31
0.0
  0
LINE
  8
0
 62
     0
 10
226.815
 20
69.0245
 30
0.0
 11
213.028
 21
66.5939
 31
0.0
  0
LINE
  8
0
 62
     0
 10
13.1919
 20
67.0306
 30
0.0
 11
13.1919
 21
66.0315
 31
0.0
  0
LINE
  8
0
 62
     0
 10
13.1919
 20
66.0315
 30
0.0
 11
12.3913
 21
66.0315
 31
0.0
  0
LINE
  8
0
 62
     0
 10
12.3913
 20
66.0315
 30
0.0
 11
12.3913
 21
62.9296
 31
0.0
  0
LINE
  8
0
 62
     0
 10
12.3913
 20
62.9296
 30
0.0
 11
13.1919
 21
62.9296
 31
0.0
  0
LINE
  8
0
 62
     0
 10
13.1919
 20
62.9296
 30
0.0
 11
13.1919
 21
57.1306
 31
0.0
  0
LINE
  8
0
 62
     0
 10
13.1919
 20
57.1306
 30
0.0
 11
12.3913
 21
57.1306
 31
0.0
  0
LINE
  8
0
 62
     0
 10
12.3913
 20
57.1306
 30
0.0
 11
12.3913
 21
54.03
 31
0.0
  0
LINE
  8
0
 62
     0
 10
12.3913
 20
54.03
 30
0.0
 11
13.1919
 21
54.03
 31
0.0
  0
LINE
  8
0
 62
     0
 10
13.1919
 20
54.03
 30
0.0
 11
13.1919
 21
53.0296
 31
0.0
  0
LINE
  8
0
 62
     0
 10
13.1919
 20
53.0296
 30
0.0
 11
27.1914
 21
53.0296
 31
0.0
  0
LINE
  8
0
 62
     0
 10
27.1914
 20
53.0296
 30
0.0
 11
27.1914
 21
54.03
 31
0.0
  0
LINE
  8
0
 62
     0
 10
27.1914
 20
54.03
 30
0.0
 11
27.9921
 21
54.03
 31
0.0
  0
LINE
  8
0
 62
     0
 10
27.9921
 20
54.03
 30
0.0
 11
27.9921
 21
57.1306
 31
0.0
  0
LINE
  8
0
 62
     0
 10
27.9921
 20
57.1306
 30
0.0
 11
27.1914
 21
57.1306
 31
0.0
  0
LINE
  8
0
 62
     0
 10
27.1914
 20
57.1306
 30
0.0
 11
27.1914
 21
62.9296
 31
0.0
  0
LINE
  8
0
 62
     0
 10
27.1914
 20
62.9296
 30
0.0
 11
27.9921
 21
62.9296
 31
0.0
  0
LINE
  8
0
 62
     0
 10
27.9921
 20
62.9296
 30
0.0
 11
27.9921
 21
66.0315
 31
0.0
  0
LINE
  8
0
 62
     0
 10
27.9921
 20
66.0315
 30
0.0
 11
27.1914
 21
66.0315
 31
0.0
  0
LINE
  8
0
 62
     0
 10
27.1914
 20
66.0315
 30
0.0
 11
27.1914
 21
67.0306
 31
0.0
  0
LINE
  8
0
 62
     0
 10
27.1914
 20
67.0306
 30
0.0
 11
13.1919
 21
67.0306
 31
0.0
  0
LINE
  8
0
 62
     0
 10
58.7664
 20
68.6855
 30
0.0
 11
57.9783
 21
68.8248
 31
0.0
  0
LINE
  8
0
 62
     0
 10
57.9783
 20
68.8248
 30
0.0
 11
57.4407
 21
65.7722
 31
0.0
  0
LINE
  8
0
 62
     0
 10
57.4407
 20
65.7722
 30
0.0
 11
58.2277
 21
65.6332
 31
0.0
  0
LINE
  8
0
 62
     0
 10
58.2277
 20
65.6332
 30
0.0
 11
57.2202
 21
59.9211
 31
0.0
  0
LINE
  8
0
 62
     0
 10
57.2202
 20
59.9211
 30
0.0
 11
56.4321
 21
60.0604
 31
0.0
  0
LINE
  8
0
 62
     0
 10
56.4321
 20
60.0604
 30
0.0
 11
55.8945
 21
57.0068
 31
0.0
  0
LINE
  8
0
 62
     0
 10
55.8945
 20
57.0068
 30
0.0
 11
56.6829
 21
56.8674
 31
0.0
  0
LINE
  8
0
 62
     0
 10
56.6829
 20
56.8674
 30
0.0
 11
56.5079
 21
55.8835
 31
0.0
  0
LINE
  8
0
 62
     0
 10
56.5079
 20
55.8835
 30
0.0
 11
70.2966
 21
53.4529
 31
0.0
  0
LINE
  8
0
 62
     0
 10
70.2966
 20
53.4529
 30
0.0
 11
70.4702
 21
54.4368
 31
0.0
  0
LINE
  8
0
 62
     0
 10
70.4702
 20
54.4368
 30
0.0
 11
71.2569
 21
54.2988
 31
0.0
  0
LINE
  8
0
 62
     0
 10
71.2569
 20
54.2988
 30
0.0
 11
71.7959
 21
57.3511
 31
0.0
  0
LINE
  8
0
 62
     0
 10
71.7959
 20
57.3511
 30
0.0
 11
71.0089
 21
57.4904
 31
0.0
  0
LINE
  8
0
 62
     0
 10
71.0089
 20
57.4904
 30
0.0
 11
72.015
 21
63.2023
 31
0.0
  0
LINE
  8
0
 62
     0
 10
72.015
 20
63.2023
 30
0.0
 11
72.8031
 21
63.0633
 31
0.0
  0
LINE
  8
0
 62
     0
 10
72.8031
 20
63.0633
 30
0.0
 11
73.3418
 21
66.1169
 31
0.0
  0
LINE
  8
0
 62
     0
 10
73.3418
 20
66.1169
 30
0.0
 11
72.5537
 21
66.2548
 31
0.0
  0
LINE
  8
0
 62
     0
 10
72.5537
 20
66.2548
 30
0.0
 11
72.7273
 21
67.2402
 31
0.0
  0
LINE
  8
0
 62
     0
 10
72.7273
 20
67.2402
 30
0.0
 11
58.94
 21
69.6708
 31
0.0
  0
LINE
  8
0
 62
     0
 10
58.94
 20
69.6708
 30
0.0
 11
58.7664
 21
68.6855
 31
0.0
  0
LINE
  8
0
 62
     0
 10
277.034
 20
68.9349
 30
0.0
 11
277.034
 21
67.9344
 31
0.0
  0
LINE
  8
0
 62
     0
 10
277.034
 20
67.9344
 30
0.0
 11
276.235
 21
67.9344
 31
0.0
  0
LINE
  8
0
 62
     0
 10
276.235
 20
67.9344
 30
0.0
 11
276.235
 21
64.8353
 31
0.0
  0
LINE
  8
0
 62
     0
 10
276.235
 20
64.8353
 30
0.0
 11
277.034
 21
64.8353
 31
0.0
  0
LINE
  8
0
 62
     0
 10
277.034
 20
64.8353
 30
0.0
 11
277.034
 21
59.0352
 31
0.0
  0
LINE
  8
0
 62
     0
 10
277.034
 20
59.0352
 30
0.0
 11
276.235
 21
59.0352
 31
0.0
  0
LINE
  8
0
 62
     0
 10
276.235
 20
59.0352
 30
0.0
 11
276.235
 21
55.9347
 31
0.0
  0
LINE
  8
0
 62
     0
 10
276.235
 20
55.9347
 30
0.0
 11
277.034
 21
55.9347
 31
0.0
  0
LINE
  8
0
 62
     0
 10
277.034
 20
55.9347
 30
0.0
 11
277.034
 21
54.9356
 31
0.0
  0
LINE
  8
0
 62
     0
 10
277.034
 20
54.9356
 30
0.0
 11
291.035
 21
54.9356
 31
0.0
  0
LINE
  8
0
 62
     0
 10
291.035
 20
54.9356
 30
0.0
 11
291.035
 21
55.9347
 31
0.0
  0
LINE
  8
0
 62
     0
 10
291.035
 20
55.9347
 30
0.0
 11
291.834
 21
55.9347
 31
0.0
  0
LINE
  8
0
 62
     0
 10
291.834
 20
55.9347
 30
0.0
 11
291.834
 21
59.0352
 31
0.0
  0
LINE
  8
0
 62
     0
 10
291.834
 20
59.0352
 30
0.0
 11
291.035
 21
59.0352
 31
0.0
  0
LINE
  8
0
 62
     0
 10
291.035
 20
59.0352
 30
0.0
 11
291.035
 21
64.8353
 31
0.0
  0
LINE
  8
0
 62
     0
 10
291.035
 20
64.8353
 30
0.0
 11
291.834
 21
64.8353
 31
0.0
  0
LINE
  8
0
 62
     0
 10
291.834
 20
64.8353
 30
0.0
 11
291.834
 21
67.9344
 31
0.0
  0
LINE
  8
0
 62
     0
 10
291.834
 20
67.9344
 30
0.0
 11
291.035
 21
67.9344
 31
0.0
  0
LINE
  8
0
 62
     0
 10
291.035
 20
67.9344
 30
0.0
 11
291.035
 21
68.9349
 31
0.0
  0
LINE
  8
0
 62
     0
 10
291.035
 20
68.9349
 30
0.0
 11
277.034
 21
68.9349
 31
0.0
  0
LINE
  8
0
 62
     0
 10
253.221
 20
68.9349
 30
0.0
 11
253.221
 21
67.9344
 31
0.0
  0
LINE
  8
0
 62
     0
 10
253.221
 20
67.9344
 30
0.0
 11
252.422
 21
67.9344
 31
0.0
  0
LINE
  8
0
 62
     0
 10
252.422
 20
67.9344
 30
0.0
 11
252.422
 21
64.8353
 31
0.0
  0
LINE
  8
0
 62
     0
 10
252.422
 20
64.8353
 30
0.0
 11
253.221
 21
64.8353
 31
0.0
  0
LINE
  8
0
 62
     0
 10
253.221
 20
64.8353
 30
0.0
 11
253.221
 21
59.0352
 31
0.0
  0
LINE
  8
0
 62
     0
 10
253.221
 20
59.0352
 30
0.0
 11
252.422
 21
59.0352
 31
0.0
  0
LINE
  8
0
 62
     0
 10
252.422
 20
59.0352
 30
0.0
 11
252.422
 21
55.9347
 31
0.0
  0
LINE
  8
0
 62
     0
 10
252.422
 20
55.9347
 30
0.0
 11
253.221
 21
55.9347
 31
0.0
  0
LINE
  8
0
 62
     0
 10
253.221
 20
55.9347
 30
0.0
 11
253.221
 21
54.9356
 31
0.0
  0
LINE
  8
0
 62
     0
 10
253.221
 20
54.9356
 30
0.0
 11
267.221
 21
54.9356
 31
0.0
  0
LINE
  8
0
 62
     0
 10
267.221
 20
54.9356
 30
0.0
 11
267.221
 21
55.9347
 31
0.0
  0
LINE
  8
0
 62
     0
 10
267.221
 20
55.9347
 30
0.0
 11
268.021
 21
55.9347
 31
0.0
  0
LINE
  8
0
 62
     0
 10
268.021
 20
55.9347
 30
0.0
 11
268.021
 21
59.0352
 31
0.0
  0
LINE
  8
0
 62
     0
 10
268.021
 20
59.0352
 30
0.0
 11
267.221
 21
59.0352
 31
0.0
  0
LINE
  8
0
 62
     0
 10
267.221
 20
59.0352
 30
0.0
 11
267.221
 21
64.8353
 31
0.0
  0
LINE
  8
0
 62
     0
 10
267.221
 20
64.8353
 30
0.0
 11
268.021
 21
64.8353
 31
0.0
  0
LINE
  8
0
 62
     0
 10
268.021
 20
64.8353
 30
0.0
 11
268.021
 21
67.9344
 31
0.0
  0
LINE
  8
0
 62
     0
 10
268.021
 20
67.9344
 30
0.0
 11
267.221
 21
67.9344
 31
0.0
  0
LINE
  8
0
 62
     0
 10
267.221
 20
67.9344
 30
0.0
 11
267.221
 21
68.9349
 31
0.0
  0
LINE
  8
0
 62
     0
 10
267.221
 20
68.9349
 30
0.0
 11
253.221
 21
68.9349
 31
0.0
  0
LINE
  8
0
 62
     0
 10
37.0046
 20
68.9349
 30
0.0
 11
37.0046
 21
67.9344
 31
0.0
  0
LINE
  8
0
 62
     0
 10
37.0046
 20
67.9344
 30
0.0
 11
36.2038
 21
67.9344
 31
0.0
  0
LINE
  8
0
 62
     0
 10
36.2038
 20
67.9344
 30
0.0
 11
36.2038
 21
64.8353
 31
0.0
  0
LINE
  8
0
 62
     0
 10
36.2038
 20
64.8353
 30
0.0
 11
37.0046
 21
64.8353
 31
0.0
  0
LINE
  8
0
 62
     0
 10
37.0046
 20
64.8353
 30
0.0
 11
37.0046
 21
59.0352
 31
0.0
  0
LINE
  8
0
 62
     0
 10
37.0046
 20
59.0352
 30
0.0
 11
36.2038
 21
59.0352
 31
0.0
  0
LINE
  8
0
 62
     0
 10
36.2038
 20
59.0352
 30
0.0
 11
36.2038
 21
55.9347
 31
0.0
  0
LINE
  8
0
 62
     0
 10
36.2038
 20
55.9347
 30
0.0
 11
37.0046
 21
55.9347
 31
0.0
  0
LINE
  8
0
 62
     0
 10
37.0046
 20
55.9347
 30
0.0
 11
37.0046
 21
54.9356
 31
0.0
  0
LINE
  8
0
 62
     0
 10
37.0046
 20
54.9356
 30
0.0
 11
51.0039
 21
54.9356
 31
0.0
  0
LINE
  8
0
 62
     0
 10
51.0039
 20
54.9356
 30
0.0
 11
51.0039
 21
55.9347
 31
0.0
  0
LINE
  8
0
 62
     0
 10
51.0039
 20
55.9347
 30
0.0
 11
51.8033
 21
55.9347
 31
0.0
  0
LINE
  8
0
 62
     0
 10
51.8033
 20
55.9347
 30
0.0
 11
51.8033
 21
59.0352
 31
0.0
  0
LINE
  8
0
 62
     0
 10
51.8033
 20
59.0352
 30
0.0
 11
51.0039
 21
59.0352
 31
0.0
  0
LINE
  8
0
 62
     0
 10
51.0039
 20
59.0352
 30
0.0
 11
51.0039
 21
64.8353
 31
0.0
  0
LINE
  8
0
 62
     0
 10
51.0039
 20
64.8353
 30
0.0
 11
51.8033
 21
64.8353
 31
0.0
  0
LINE
  8
0
 62
     0
 10
51.8033
 20
64.8353
 30
0.0
 11
51.8033
 21
67.9344
 31
0.0
  0
LINE
  8
0
 62
     0
 10
51.8033
 20
67.9344
 30
0.0
 11
51.0039
 21
67.9344
 31
0.0
  0
LINE
  8
0
 62
     0
 10
51.0039
 20
67.9344
 30
0.0
 11
51.0039
 21
68.9349
 31
0.0
  0
LINE
  8
0
 62
     0
 10
51.0039
 20
68.9349
 30
0.0
 11
37.0046
 21
68.9349
 31
0.0
  0
LINE
  8
0
 62
     0
 10
234.171
 20
69.887
 30
0.0
 11
234.171
 21
68.8869
 31
0.0
  0
LINE
  8
0
 62
     0
 10
234.171
 20
68.8869
 30
0.0
 11
233.372
 21
68.8869
 31
0.0
  0
LINE
  8
0
 62
     0
 10
233.372
 20
68.8869
 30
0.0
 11
233.372
 21
65.7874
 31
0.0
  0
LINE
  8
0
 62
     0
 10
233.372
 20
65.7874
 30
0.0
 11
234.171
 21
65.7874
 31
0.0
  0
LINE
  8
0
 62
     0
 10
234.171
 20
65.7874
 30
0.0
 11
234.171
 21
59.9874
 31
0.0
  0
LINE
  8
0
 62
     0
 10
234.171
 20
59.9874
 30
0.0
 11
233.372
 21
59.9874
 31
0.0
  0
LINE
  8
0
 62
     0
 10
233.372
 20
59.9874
 30
0.0
 11
233.372
 21
56.8868
 31
0.0
  0
LINE
  8
0
 62
     0
 10
233.372
 20
56.8868
 30
0.0
 11
234.171
 21
56.8868
 31
0.0
  0
LINE
  8
0
 62
     0
 10
234.171
 20
56.8868
 30
0.0
 11
234.171
 21
55.8878
 31
0.0
  0
LINE
  8
0
 62
     0
 10
234.171
 20
55.8878
 30
0.0
 11
248.171
 21
55.8878
 31
0.0
  0
LINE
  8
0
 62
     0
 10
248.171
 20
55.8878
 30
0.0
 11
248.171
 21
56.8868
 31
0.0
  0
LINE
  8
0
 62
     0
 10
248.171
 20
56.8868
 30
0.0
 11
248.971
 21
56.8868
 31
0.0
  0
LINE
  8
0
 62
     0
 10
248.971
 20
56.8868
 30
0.0
 11
248.971
 21
59.9874
 31
0.0
  0
LINE
  8
0
 62
     0
 10
248.971
 20
59.9874
 30
0.0
 11
248.171
 21
59.9874
 31
0.0
  0
LINE
  8
0
 62
     0
 10
248.171
 20
59.9874
 30
0.0
 11
248.171
 21
65.7874
 31
0.0
  0
LINE
  8
0
 62
     0
 10
248.171
 20
65.7874
 30
0.0
 11
248.971
 21
65.7874
 31
0.0
  0
LINE
  8
0
 62
     0
 10
248.971
 20
65.7874
 30
0.0
 11
248.971
 21
68.8869
 31
0.0
  0
LINE
  8
0
 62
     0
 10
248.971
 20
68.8869
 30
0.0
 11
248.171
 21
68.8869
 31
0.0
  0
LINE
  8
0
 62
     0
 10
248.171
 20
68.8869
 30
0.0
 11
248.171
 21
69.887
 31
0.0
  0
LINE
  8
0
 62
     0
 10
248.171
 20
69.887
 30
0.0
 11
234.171
 21
69.887
 31
0.0
  0
LINE
  8
0
 62
     0
 10
148.748
 20
74.603
 30
0.0
 11
148.922
 21
73.6177
 31
0.0
  0
LINE
  8
0
 62
     0
 10
148.922
 20
73.6177
 30
0.0
 11
148.135
 21
73.4797
 31
0.0
  0
LINE
  8
0
 62
     0
 10
148.135
 20
73.4797
 30
0.0
 11
148.673
 21
70.4261
 31
0.0
  0
LINE
  8
0
 62
     0
 10
148.673
 20
70.4261
 30
0.0
 11
149.461
 21
70.5651
 31
0.0
  0
LINE
  8
0
 62
     0
 10
149.461
 20
70.5651
 30
0.0
 11
150.468
 21
64.8547
 31
0.0
  0
LINE
  8
0
 62
     0
 10
150.468
 20
64.8547
 30
0.0
 11
149.68
 21
64.7153
 31
0.0
  0
LINE
  8
0
 62
     0
 10
149.68
 20
64.7153
 30
0.0
 11
150.217
 21
61.6617
 31
0.0
  0
LINE
  8
0
 62
     0
 10
150.217
 20
61.6617
 30
0.0
 11
151.005
 21
61.801
 31
0.0
  0
LINE
  8
0
 62
     0
 10
151.005
 20
61.801
 30
0.0
 11
151.179
 21
60.8157
 31
0.0
  0
LINE
  8
0
 62
     0
 10
151.179
 20
60.8157
 30
0.0
 11
164.966
 21
63.2478
 31
0.0
  0
LINE
  8
0
 62
     0
 10
164.966
 20
63.2478
 30
0.0
 11
164.793
 21
64.2317
 31
0.0
  0
LINE
  8
0
 62
     0
 10
164.793
 20
64.2317
 30
0.0
 11
165.581
 21
64.371
 31
0.0
  0
LINE
  8
0
 62
     0
 10
165.581
 20
64.371
 30
0.0
 11
165.042
 21
67.4232
 31
0.0
  0
LINE
  8
0
 62
     0
 10
165.042
 20
67.4232
 30
0.0
 11
164.254
 21
67.2853
 31
0.0
  0
LINE
  8
0
 62
     0
 10
164.254
 20
67.2853
 30
0.0
 11
163.248
 21
72.9961
 31
0.0
  0
LINE
  8
0
 62
     0
 10
163.248
 20
72.9961
 30
0.0
 11
164.036
 21
73.1354
 31
0.0
  0
LINE
  8
0
 62
     0
 10
164.036
 20
73.1354
 30
0.0
 11
163.497
 21
76.1877
 31
0.0
  0
LINE
  8
0
 62
     0
 10
163.497
 20
76.1877
 30
0.0
 11
162.709
 21
76.0497
 31
0.0
  0
LINE
  8
0
 62
     0
 10
162.709
 20
76.0497
 30
0.0
 11
162.535
 21
77.0336
 31
0.0
  0
LINE
  8
0
 62
     0
 10
162.535
 20
77.0336
 30
0.0
 11
148.748
 21
74.603
 31
0.0
  0
LINE
  8
0
 62
     0
 10
112.728
 20
78.5153
 30
0.0
 11
111.941
 21
78.6543
 31
0.0
  0
LINE
  8
0
 62
     0
 10
111.941
 20
78.6543
 30
0.0
 11
111.402
 21
75.6006
 31
0.0
  0
LINE
  8
0
 62
     0
 10
111.402
 20
75.6006
 30
0.0
 11
112.189
 21
75.4627
 31
0.0
  0
LINE
  8
0
 62
     0
 10
112.189
 20
75.4627
 30
0.0
 11
111.183
 21
69.7509
 31
0.0
  0
LINE
  8
0
 62
     0
 10
111.183
 20
69.7509
 30
0.0
 11
110.395
 21
69.8885
 31
0.0
  0
LINE
  8
0
 62
     0
 10
110.395
 20
69.8885
 30
0.0
 11
109.856
 21
66.8376
 31
0.0
  0
LINE
  8
0
 62
     0
 10
109.856
 20
66.8376
 30
0.0
 11
110.644
 21
66.6972
 31
0.0
  0
LINE
  8
0
 62
     0
 10
110.644
 20
66.6972
 30
0.0
 11
110.471
 21
65.7119
 31
0.0
  0
LINE
  8
0
 62
     0
 10
110.471
 20
65.7119
 30
0.0
 11
124.258
 21
63.2809
 31
0.0
  0
LINE
  8
0
 62
     0
 10
124.258
 20
63.2809
 30
0.0
 11
124.43
 21
64.2662
 31
0.0
  0
LINE
  8
0
 62
     0
 10
124.43
 20
64.2662
 30
0.0
 11
125.22
 21
64.1269
 31
0.0
  0
LINE
  8
0
 62
     0
 10
125.22
 20
64.1269
 30
0.0
 11
125.757
 21
67.1809
 31
0.0
  0
LINE
  8
0
 62
     0
 10
125.757
 20
67.1809
 30
0.0
 11
124.97
 21
67.3185
 31
0.0
  0
LINE
  8
0
 62
     0
 10
124.97
 20
67.3185
 30
0.0
 11
125.976
 21
73.0306
 31
0.0
  0
LINE
  8
0
 62
     0
 10
125.976
 20
73.0306
 30
0.0
 11
126.764
 21
72.8927
 31
0.0
  0
LINE
  8
0
 62
     0
 10
126.764
 20
72.8927
 30
0.0
 11
127.303
 21
75.9449
 31
0.0
  0
LINE
  8
0
 62
     0
 10
127.303
 20
75.9449
 30
0.0
 11
126.515
 21
76.0843
 31
0.0
  0
LINE
  8
0
 62
     0
 10
126.515
 20
76.0843
 30
0.0
 11
126.688
 21
77.0696
 31
0.0
  0
LINE
  8
0
 62
     0
 10
126.688
 20
77.0696
 30
0.0
 11
112.901
 21
79.5002
 31
0.0
  0
LINE
  8
0
 62
     0
 10
112.901
 20
79.5002
 30
0.0
 11
112.728
 21
78.5153
 31
0.0
  0
LINE
  8
0
 62
     0
 10
167.509
 20
77.9117
 30
0.0
 11
167.682
 21
76.9264
 31
0.0
  0
LINE
  8
0
 62
     0
 10
167.682
 20
76.9264
 30
0.0
 11
166.894
 21
76.787
 31
0.0
  0
LINE
  8
0
 62
     0
 10
166.894
 20
76.787
 30
0.0
 11
167.433
 21
73.7348
 31
0.0
  0
LINE
  8
0
 62
     0
 10
167.433
 20
73.7348
 30
0.0
 11
168.22
 21
73.8724
 31
0.0
  0
LINE
  8
0
 62
     0
 10
168.22
 20
73.8724
 30
0.0
 11
169.227
 21
68.162
 31
0.0
  0
LINE
  8
0
 62
     0
 10
169.227
 20
68.162
 30
0.0
 11
168.44
 21
68.0226
 31
0.0
  0
LINE
  8
0
 62
     0
 10
168.44
 20
68.0226
 30
0.0
 11
168.978
 21
64.9704
 31
0.0
  0
LINE
  8
0
 62
     0
 10
168.978
 20
64.9704
 30
0.0
 11
169.766
 21
65.1097
 31
0.0
  0
LINE
  8
0
 62
     0
 10
169.766
 20
65.1097
 30
0.0
 11
169.94
 21
64.1244
 31
0.0
  0
LINE
  8
0
 62
     0
 10
169.94
 20
64.1244
 30
0.0
 11
183.727
 21
66.5551
 31
0.0
  0
LINE
  8
0
 62
     0
 10
183.727
 20
66.5551
 30
0.0
 11
183.553
 21
67.5404
 31
0.0
  0
LINE
  8
0
 62
     0
 10
183.553
 20
67.5404
 30
0.0
 11
184.342
 21
67.6797
 31
0.0
  0
LINE
  8
0
 62
     0
 10
184.342
 20
67.6797
 30
0.0
 11
183.804
 21
70.7305
 31
0.0
  0
LINE
  8
0
 62
     0
 10
183.804
 20
70.7305
 30
0.0
 11
183.016
 21
70.5926
 31
0.0
  0
LINE
  8
0
 62
     0
 10
183.016
 20
70.5926
 30
0.0
 11
182.009
 21
76.3048
 31
0.0
  0
LINE
  8
0
 62
     0
 10
182.009
 20
76.3048
 30
0.0
 11
182.795
 21
76.4427
 31
0.0
  0
LINE
  8
0
 62
     0
 10
182.795
 20
76.4427
 30
0.0
 11
182.258
 21
79.4964
 31
0.0
  0
LINE
  8
0
 62
     0
 10
182.258
 20
79.4964
 30
0.0
 11
181.47
 21
79.357
 31
0.0
  0
LINE
  8
0
 62
     0
 10
181.47
 20
79.357
 30
0.0
 11
181.296
 21
80.3423
 31
0.0
  0
LINE
  8
0
 62
     0
 10
181.296
 20
80.3423
 30
0.0
 11
167.509
 21
77.9117
 31
0.0
  0
LINE
  8
0
 62
     0
 10
93.9669
 20
81.8236
 30
0.0
 11
93.1788
 21
81.9616
 31
0.0
  0
LINE
  8
0
 62
     0
 10
93.1788
 20
81.9616
 30
0.0
 11
92.6412
 21
78.9093
 31
0.0
  0
LINE
  8
0
 62
     0
 10
92.6412
 20
78.9093
 30
0.0
 11
93.4283
 21
78.77
 31
0.0
  0
LINE
  8
0
 62
     0
 10
93.4283
 20
78.77
 30
0.0
 11
92.4207
 21
73.0582
 31
0.0
  0
LINE
  8
0
 62
     0
 10
92.4207
 20
73.0582
 30
0.0
 11
91.634
 21
73.1972
 31
0.0
  0
LINE
  8
0
 62
     0
 10
91.634
 20
73.1972
 30
0.0
 11
91.0953
 21
70.1435
 31
0.0
  0
LINE
  8
0
 62
     0
 10
91.0953
 20
70.1435
 30
0.0
 11
91.8834
 21
70.0056
 31
0.0
  0
LINE
  8
0
 62
     0
 10
91.8834
 20
70.0056
 30
0.0
 11
91.7099
 21
69.0203
 31
0.0
  0
LINE
  8
0
 62
     0
 10
91.7099
 20
69.0203
 30
0.0
 11
105.497
 21
66.5896
 31
0.0
  0
LINE
  8
0
 62
     0
 10
105.497
 20
66.5896
 30
0.0
 11
105.671
 21
67.5749
 31
0.0
  0
LINE
  8
0
 62
     0
 10
105.671
 20
67.5749
 30
0.0
 11
106.459
 21
67.4356
 31
0.0
  0
LINE
  8
0
 62
     0
 10
106.459
 20
67.4356
 30
0.0
 11
106.996
 21
70.4882
 31
0.0
  0
LINE
  8
0
 62
     0
 10
106.996
 20
70.4882
 30
0.0
 11
106.209
 21
70.6272
 31
0.0
  0
LINE
  8
0
 62
     0
 10
106.209
 20
70.6272
 30
0.0
 11
107.217
 21
76.3393
 31
0.0
  0
LINE
  8
0
 62
     0
 10
107.217
 20
76.3393
 30
0.0
 11
108.005
 21
76.2
 31
0.0
  0
LINE
  8
0
 62
     0
 10
108.005
 20
76.2
 30
0.0
 11
108.543
 21
79.2536
 31
0.0
  0
LINE
  8
0
 62
     0
 10
108.543
 20
79.2536
 30
0.0
 11
107.754
 21
79.3916
 31
0.0
  0
LINE
  8
0
 62
     0
 10
107.754
 20
79.3916
 30
0.0
 11
107.928
 21
80.3769
 31
0.0
  0
LINE
  8
0
 62
     0
 10
107.928
 20
80.3769
 30
0.0
 11
94.1405
 21
82.8075
 31
0.0
  0
LINE
  8
0
 62
     0
 10
94.1405
 20
82.8075
 30
0.0
 11
93.9669
 21
81.8236
 31
0.0
  0
LINE
  8
0
 62
     0
 10
186.269
 20
81.219
 30
0.0
 11
186.443
 21
80.2337
 31
0.0
  0
LINE
  8
0
 62
     0
 10
186.443
 20
80.2337
 30
0.0
 11
185.655
 21
80.0957
 31
0.0
  0
LINE
  8
0
 62
     0
 10
185.655
 20
80.0957
 30
0.0
 11
186.194
 21
77.0421
 31
0.0
  0
LINE
  8
0
 62
     0
 10
186.194
 20
77.0421
 30
0.0
 11
186.982
 21
77.1811
 31
0.0
  0
LINE
  8
0
 62
     0
 10
186.982
 20
77.1811
 30
0.0
 11
187.988
 21
71.4707
 31
0.0
  0
LINE
  8
0
 62
     0
 10
187.988
 20
71.4707
 30
0.0
 11
187.201
 21
71.3313
 31
0.0
  0
LINE
  8
0
 62
     0
 10
187.201
 20
71.3313
 30
0.0
 11
187.738
 21
68.2777
 31
0.0
  0
LINE
  8
0
 62
     0
 10
187.738
 20
68.2777
 30
0.0
 11
188.527
 21
68.417
 31
0.0
  0
LINE
  8
0
 62
     0
 10
188.527
 20
68.417
 30
0.0
 11
188.7
 21
67.4317
 31
0.0
  0
LINE
  8
0
 62
     0
 10
188.7
 20
67.4317
 30
0.0
 11
202.487
 21
69.8638
 31
0.0
  0
LINE
  8
0
 62
     0
 10
202.487
 20
69.8638
 30
0.0
 11
202.314
 21
70.8477
 31
0.0
  0
LINE
  8
0
 62
     0
 10
202.314
 20
70.8477
 30
0.0
 11
203.102
 21
70.987
 31
0.0
  0
LINE
  8
0
 62
     0
 10
203.102
 20
70.987
 30
0.0
 11
202.563
 21
74.0392
 31
0.0
  0
LINE
  8
0
 62
     0
 10
202.563
 20
74.0392
 30
0.0
 11
201.775
 21
73.9013
 31
0.0
  0
LINE
  8
0
 62
     0
 10
201.775
 20
73.9013
 30
0.0
 11
200.769
 21
79.6121
 31
0.0
  0
LINE
  8
0
 62
     0
 10
200.769
 20
79.6121
 30
0.0
 11
201.556
 21
79.7511
 31
0.0
  0
LINE
  8
0
 62
     0
 10
201.556
 20
79.7511
 30
0.0
 11
201.018
 21
82.8036
 31
0.0
  0
LINE
  8
0
 62
     0
 10
201.018
 20
82.8036
 30
0.0
 11
200.23
 21
82.6657
 31
0.0
  0
LINE
  8
0
 62
     0
 10
200.23
 20
82.6657
 30
0.0
 11
200.057
 21
83.6496
 31
0.0
  0
LINE
  8
0
 62
     0
 10
200.057
 20
83.6496
 30
0.0
 11
186.269
 21
81.219
 31
0.0
  0
LINE
  8
0
 62
     0
 10
75.2066
 20
85.1309
 30
0.0
 11
74.4181
 21
85.2703
 31
0.0
  0
LINE
  8
0
 62
     0
 10
74.4181
 20
85.2703
 30
0.0
 11
73.8808
 21
82.2166
 31
0.0
  0
LINE
  8
0
 62
     0
 10
73.8808
 20
82.2166
 30
0.0
 11
74.6689
 21
82.0787
 31
0.0
  0
LINE
  8
0
 62
     0
 10
74.6689
 20
82.0787
 30
0.0
 11
73.6618
 21
76.3669
 31
0.0
  0
LINE
  8
0
 62
     0
 10
73.6618
 20
76.3669
 30
0.0
 11
72.8733
 21
76.5044
 31
0.0
  0
LINE
  8
0
 62
     0
 10
72.8733
 20
76.5044
 30
0.0
 11
72.336
 21
73.4522
 31
0.0
  0
LINE
  8
0
 62
     0
 10
72.336
 20
73.4522
 30
0.0
 11
73.1227
 21
73.3129
 31
0.0
  0
LINE
  8
0
 62
     0
 10
73.1227
 20
73.3129
 30
0.0
 11
72.9492
 21
72.3276
 31
0.0
  0
LINE
  8
0
 62
     0
 10
72.9492
 20
72.3276
 30
0.0
 11
86.7364
 21
69.8969
 31
0.0
  0
LINE
  8
0
 62
     0
 10
86.7364
 20
69.8969
 30
0.0
 11
86.91
 21
70.8822
 31
0.0
  0
LINE
  8
0
 62
     0
 10
86.91
 20
70.8822
 30
0.0
 11
87.6984
 21
70.7429
 31
0.0
  0
LINE
  8
0
 62
     0
 10
87.6984
 20
70.7429
 30
0.0
 11
88.2371
 21
73.7969
 31
0.0
  0
LINE
  8
0
 62
     0
 10
88.2371
 20
73.7969
 30
0.0
 11
87.449
 21
73.9345
 31
0.0
  0
LINE
  8
0
 62
     0
 10
87.449
 20
73.9345
 30
0.0
 11
88.4548
 21
79.6477
 31
0.0
  0
LINE
  8
0
 62
     0
 10
88.4548
 20
79.6477
 30
0.0
 11
89.2433
 21
79.5087
 31
0.0
  0
LINE
  8
0
 62
     0
 10
89.2433
 20
79.5087
 30
0.0
 11
89.7819
 21
82.5609
 31
0.0
  0
LINE
  8
0
 62
     0
 10
89.7819
 20
82.5609
 30
0.0
 11
88.9938
 21
82.7003
 31
0.0
  0
LINE
  8
0
 62
     0
 10
88.9938
 20
82.7003
 30
0.0
 11
89.1674
 21
83.6856
 31
0.0
  0
LINE
  8
0
 62
     0
 10
89.1674
 20
83.6856
 30
0.0
 11
75.3801
 21
86.1162
 31
0.0
  0
LINE
  8
0
 62
     0
 10
75.3801
 20
86.1162
 30
0.0
 11
75.2066
 21
85.1309
 31
0.0
  0
LINE
  8
0
 62
     0
 10
205.03
 20
84.5273
 30
0.0
 11
205.204
 21
83.5424
 31
0.0
  0
LINE
  8
0
 62
     0
 10
205.204
 20
83.5424
 30
0.0
 11
204.415
 21
83.403
 31
0.0
  0
LINE
  8
0
 62
     0
 10
204.415
 20
83.403
 30
0.0
 11
204.954
 21
80.3508
 31
0.0
  0
LINE
  8
0
 62
     0
 10
204.954
 20
80.3508
 30
0.0
 11
205.741
 21
80.4898
 31
0.0
  0
LINE
  8
0
 62
     0
 10
205.741
 20
80.4898
 30
0.0
 11
206.75
 21
74.778
 31
0.0
  0
LINE
  8
0
 62
     0
 10
206.75
 20
74.778
 30
0.0
 11
205.962
 21
74.6386
 31
0.0
  0
LINE
  8
0
 62
     0
 10
205.962
 20
74.6386
 30
0.0
 11
206.499
 21
71.5864
 31
0.0
  0
LINE
  8
0
 62
     0
 10
206.499
 20
71.5864
 30
0.0
 11
207.287
 21
71.7254
 31
0.0
  0
LINE
  8
0
 62
     0
 10
207.287
 20
71.7254
 30
0.0
 11
207.461
 21
70.7401
 31
0.0
  0
LINE
  8
0
 62
     0
 10
207.461
 20
70.7401
 30
0.0
 11
221.248
 21
73.1711
 31
0.0
  0
LINE
  8
0
 62
     0
 10
221.248
 20
73.1711
 30
0.0
 11
221.075
 21
74.1564
 31
0.0
  0
LINE
  8
0
 62
     0
 10
221.075
 20
74.1564
 30
0.0
 11
221.863
 21
74.2957
 31
0.0
  0
LINE
  8
0
 62
     0
 10
221.863
 20
74.2957
 30
0.0
 11
221.324
 21
77.3465
 31
0.0
  0
LINE
  8
0
 62
     0
 10
221.324
 20
77.3465
 30
0.0
 11
220.537
 21
77.2086
 31
0.0
  0
LINE
  8
0
 62
     0
 10
220.537
 20
77.2086
 30
0.0
 11
219.53
 21
82.9208
 31
0.0
  0
LINE
  8
0
 62
     0
 10
219.53
 20
82.9208
 30
0.0
 11
220.318
 21
83.0584
 31
0.0
  0
LINE
  8
0
 62
     0
 10
220.318
 20
83.0584
 30
0.0
 11
219.778
 21
86.1124
 31
0.0
  0
LINE
  8
0
 62
     0
 10
219.778
 20
86.1124
 30
0.0
 11
218.991
 21
85.973
 31
0.0
  0
LINE
  8
0
 62
     0
 10
218.991
 20
85.973
 30
0.0
 11
218.817
 21
86.9583
 31
0.0
  0
LINE
  8
0
 62
     0
 10
218.817
 20
86.9583
 30
0.0
 11
205.03
 21
84.5273
 31
0.0
  0
LINE
  8
0
 62
     0
 10
11.2861
 20
86.0806
 30
0.0
 11
11.2861
 21
85.0801
 31
0.0
  0
LINE
  8
0
 62
     0
 10
11.2861
 20
85.0801
 30
0.0
 11
10.4869
 21
85.0801
 31
0.0
  0
LINE
  8
0
 62
     0
 10
10.4869
 20
85.0801
 30
0.0
 11
10.4869
 21
81.9796
 31
0.0
  0
LINE
  8
0
 62
     0
 10
10.4869
 20
81.9796
 30
0.0
 11
11.2861
 21
81.9796
 31
0.0
  0
LINE
  8
0
 62
     0
 10
11.2861
 20
81.9796
 30
0.0
 11
11.2861
 21
76.1806
 31
0.0
  0
LINE
  8
0
 62
     0
 10
11.2861
 20
76.1806
 30
0.0
 11
10.4869
 21
76.1806
 31
0.0
  0
LINE
  8
0
 62
     0
 10
10.4869
 20
76.1806
 30
0.0
 11
10.4869
 21
73.08
 31
0.0
  0
LINE
  8
0
 62
     0
 10
10.4869
 20
73.08
 30
0.0
 11
11.2861
 21
73.08
 31
0.0
  0
LINE
  8
0
 62
     0
 10
11.2861
 20
73.08
 30
0.0
 11
11.2861
 21
72.0796
 31
0.0
  0
LINE
  8
0
 62
     0
 10
11.2861
 20
72.0796
 30
0.0
 11
25.287
 21
72.0796
 31
0.0
  0
LINE
  8
0
 62
     0
 10
25.287
 20
72.0796
 30
0.0
 11
25.287
 21
73.08
 31
0.0
  0
LINE
  8
0
 62
     0
 10
25.287
 20
73.08
 30
0.0
 11
26.0863
 21
73.08
 31
0.0
  0
LINE
  8
0
 62
     0
 10
26.0863
 20
73.08
 30
0.0
 11
26.0863
 21
76.1806
 31
0.0
  0
LINE
  8
0
 62
     0
 10
26.0863
 20
76.1806
 30
0.0
 11
25.287
 21
76.1806
 31
0.0
  0
LINE
  8
0
 62
     0
 10
25.287
 20
76.1806
 30
0.0
 11
25.287
 21
81.9796
 31
0.0
  0
LINE
  8
0
 62
     0
 10
25.287
 20
81.9796
 30
0.0
 11
26.0863
 21
81.9796
 31
0.0
  0
LINE
  8
0
 62
     0
 10
26.0863
 20
81.9796
 30
0.0
 11
26.0863
 21
85.0801
 31
0.0
  0
LINE
  8
0
 62
     0
 10
26.0863
 20
85.0801
 30
0.0
 11
25.287
 21
85.0801
 31
0.0
  0
LINE
  8
0
 62
     0
 10
25.287
 20
85.0801
 30
0.0
 11
25.287
 21
86.0806
 31
0.0
  0
LINE
  8
0
 62
     0
 10
25.287
 20
86.0806
 30
0.0
 11
11.2861
 21
86.0806
 31
0.0
  0
LINE
  8
0
 62
     0
 10
56.4459
 20
88.4396
 30
0.0
 11
55.6588
 21
88.5776
 31
0.0
  0
LINE
  8
0
 62
     0
 10
55.6588
 20
88.5776
 30
0.0
 11
55.1201
 21
85.5253
 31
0.0
  0
LINE
  8
0
 62
     0
 10
55.1201
 20
85.5253
 30
0.0
 11
55.9072
 21
85.386
 31
0.0
  0
LINE
  8
0
 62
     0
 10
55.9072
 20
85.386
 30
0.0
 11
54.901
 21
79.6742
 31
0.0
  0
LINE
  8
0
 62
     0
 10
54.901
 20
79.6742
 30
0.0
 11
54.1129
 21
79.8132
 31
0.0
  0
LINE
  8
0
 62
     0
 10
54.1129
 20
79.8132
 30
0.0
 11
53.5739
 21
76.7609
 31
0.0
  0
LINE
  8
0
 62
     0
 10
53.5739
 20
76.7609
 30
0.0
 11
54.3624
 21
76.6216
 31
0.0
  0
LINE
  8
0
 62
     0
 10
54.3624
 20
76.6216
 30
0.0
 11
54.1884
 21
75.6363
 31
0.0
  0
LINE
  8
0
 62
     0
 10
54.1884
 20
75.6363
 30
0.0
 11
67.976
 21
73.2056
 31
0.0
  0
LINE
  8
0
 62
     0
 10
67.976
 20
73.2056
 30
0.0
 11
68.1496
 21
74.1909
 31
0.0
  0
LINE
  8
0
 62
     0
 10
68.1496
 20
74.1909
 30
0.0
 11
68.9377
 21
74.0516
 31
0.0
  0
LINE
  8
0
 62
     0
 10
68.9377
 20
74.0516
 30
0.0
 11
69.4754
 21
77.1042
 31
0.0
  0
LINE
  8
0
 62
     0
 10
69.4754
 20
77.1042
 30
0.0
 11
68.6869
 21
77.2432
 31
0.0
  0
LINE
  8
0
 62
     0
 10
68.6869
 20
77.2432
 30
0.0
 11
69.6958
 21
82.955
 31
0.0
  0
LINE
  8
0
 62
     0
 10
69.6958
 20
82.955
 30
0.0
 11
70.4825
 21
82.816
 31
0.0
  0
LINE
  8
0
 62
     0
 10
70.4825
 20
82.816
 30
0.0
 11
71.0212
 21
85.8696
 31
0.0
  0
LINE
  8
0
 62
     0
 10
71.0212
 20
85.8696
 30
0.0
 11
70.2331
 21
86.0076
 31
0.0
  0
LINE
  8
0
 62
     0
 10
70.2331
 20
86.0076
 30
0.0
 11
70.4081
 21
86.9929
 31
0.0
  0
LINE
  8
0
 62
     0
 10
70.4081
 20
86.9929
 30
0.0
 11
56.6194
 21
89.4235
 31
0.0
  0
LINE
  8
0
 62
     0
 10
56.6194
 20
89.4235
 30
0.0
 11
56.4459
 21
88.4396
 31
0.0
  0
LINE
  8
0
 62
     0
 10
283.32
 20
87.9849
 30
0.0
 11
283.32
 21
86.9844
 31
0.0
  0
LINE
  8
0
 62
     0
 10
283.32
 20
86.9844
 30
0.0
 11
282.52
 21
86.9844
 31
0.0
  0
LINE
  8
0
 62
     0
 10
282.52
 20
86.9844
 30
0.0
 11
282.52
 21
83.8853
 31
0.0
  0
LINE
  8
0
 62
     0
 10
282.52
 20
83.8853
 30
0.0
 11
283.32
 21
83.8853
 31
0.0
  0
LINE
  8
0
 62
     0
 10
283.32
 20
83.8853
 30
0.0
 11
283.32
 21
78.0852
 31
0.0
  0
LINE
  8
0
 62
     0
 10
283.32
 20
78.0852
 30
0.0
 11
282.52
 21
78.0852
 31
0.0
  0
LINE
  8
0
 62
     0
 10
282.52
 20
78.0852
 30
0.0
 11
282.52
 21
74.9847
 31
0.0
  0
LINE
  8
0
 62
     0
 10
282.52
 20
74.9847
 30
0.0
 11
283.32
 21
74.9847
 31
0.0
  0
LINE
  8
0
 62
     0
 10
283.32
 20
74.9847
 30
0.0
 11
283.32
 21
73.9856
 31
0.0
  0
LINE
  8
0
 62
     0
 10
283.32
 20
73.9856
 30
0.0
 11
297.32
 21
73.9856
 31
0.0
  0
LINE
  8
0
 62
     0
 10
297.32
 20
73.9856
 30
0.0
 11
297.32
 21
74.9847
 31
0.0
  0
LINE
  8
0
 62
     0
 10
297.32
 20
74.9847
 30
0.0
 11
298.12
 21
74.9847
 31
0.0
  0
LINE
  8
0
 62
     0
 10
298.12
 20
74.9847
 30
0.0
 11
298.12
 21
78.0852
 31
0.0
  0
LINE
  8
0
 62
     0
 10
298.12
 20
78.0852
 30
0.0
 11
297.32
 21
78.0852
 31
0.0
  0
LINE
  8
0
 62
     0
 10
297.32
 20
78.0852
 30
0.0
 11
297.32
 21
83.8853
 31
0.0
  0
LINE
  8
0
 62
     0
 10
297.32
 20
83.8853
 30
0.0
 11
298.12
 21
83.8853
 31
0.0
  0
LINE
  8
0
 62
     0
 10
298.12
 20
83.8853
 30
0.0
 11
298.12
 21
86.9844
 31
0.0
  0
LINE
  8
0
 62
     0
 10
298.12
 20
86.9844
 30
0.0
 11
297.32
 21
86.9844
 31
0.0
  0
LINE
  8
0
 62
     0
 10
297.32
 20
86.9844
 30
0.0
 11
297.32
 21
87.9849
 31
0.0
  0
LINE
  8
0
 62
     0
 10
297.32
 20
87.9849
 30
0.0
 11
283.32
 21
87.9849
 31
0.0
  0
LINE
  8
0
 62
     0
 10
264.27
 20
87.9849
 30
0.0
 11
264.27
 21
86.9844
 31
0.0
  0
LINE
  8
0
 62
     0
 10
264.27
 20
86.9844
 30
0.0
 11
263.47
 21
86.9844
 31
0.0
  0
LINE
  8
0
 62
     0
 10
263.47
 20
86.9844
 30
0.0
 11
263.47
 21
83.8853
 31
0.0
  0
LINE
  8
0
 62
     0
 10
263.47
 20
83.8853
 30
0.0
 11
264.27
 21
83.8853
 31
0.0
  0
LINE
  8
0
 62
     0
 10
264.27
 20
83.8853
 30
0.0
 11
264.27
 21
78.0852
 31
0.0
  0
LINE
  8
0
 62
     0
 10
264.27
 20
78.0852
 30
0.0
 11
263.47
 21
78.0852
 31
0.0
  0
LINE
  8
0
 62
     0
 10
263.47
 20
78.0852
 30
0.0
 11
263.47
 21
74.9847
 31
0.0
  0
LINE
  8
0
 62
     0
 10
263.47
 20
74.9847
 30
0.0
 11
264.27
 21
74.9847
 31
0.0
  0
LINE
  8
0
 62
     0
 10
264.27
 20
74.9847
 30
0.0
 11
264.27
 21
73.9856
 31
0.0
  0
LINE
  8
0
 62
     0
 10
264.27
 20
73.9856
 30
0.0
 11
278.27
 21
73.9856
 31
0.0
  0
LINE
  8
0
 62
     0
 10
278.27
 20
73.9856
 30
0.0
 11
278.27
 21
74.9847
 31
0.0
  0
LINE
  8
0
 62
     0
 10
278.27
 20
74.9847
 30
0.0
 11
279.07
 21
74.9847
 31
0.0
  0
LINE
  8
0
 62
     0
 10
279.07
 20
74.9847
 30
0.0
 11
279.07
 21
78.0852
 31
0.0
  0
LINE
  8
0
 62
     0
 10
279.07
 20
78.0852
 30
0.0
 11
278.27
 21
78.0852
 31
0.0
  0
LINE
  8
0
 62
     0
 10
278.27
 20
78.0852
 30
0.0
 11
278.27
 21
83.8853
 31
0.0
  0
LINE
  8
0
 62
     0
 10
278.27
 20
83.8853
 30
0.0
 11
279.07
 21
83.8853
 31
0.0
  0
LINE
  8
0
 62
     0
 10
279.07
 20
83.8853
 30
0.0
 11
279.07
 21
86.9844
 31
0.0
  0
LINE
  8
0
 62
     0
 10
279.07
 20
86.9844
 30
0.0
 11
278.27
 21
86.9844
 31
0.0
  0
LINE
  8
0
 62
     0
 10
278.27
 20
86.9844
 30
0.0
 11
278.27
 21
87.9849
 31
0.0
  0
LINE
  8
0
 62
     0
 10
278.27
 20
87.9849
 30
0.0
 11
264.27
 21
87.9849
 31
0.0
  0
LINE
  8
0
 62
     0
 10
35.1
 20
87.9849
 30
0.0
 11
35.1
 21
86.9844
 31
0.0
  0
LINE
  8
0
 62
     0
 10
35.1
 20
86.9844
 30
0.0
 11
34.2994
 21
86.9844
 31
0.0
  0
LINE
  8
0
 62
     0
 10
34.2994
 20
86.9844
 30
0.0
 11
34.2994
 21
83.8853
 31
0.0
  0
LINE
  8
0
 62
     0
 10
34.2994
 20
83.8853
 30
0.0
 11
35.1
 21
83.8853
 31
0.0
  0
LINE
  8
0
 62
     0
 10
35.1
 20
83.8853
 30
0.0
 11
35.1
 21
78.0852
 31
0.0
  0
LINE
  8
0
 62
     0
 10
35.1
 20
78.0852
 30
0.0
 11
34.2994
 21
78.0852
 31
0.0
  0
LINE
  8
0
 62
     0
 10
34.2994
 20
78.0852
 30
0.0
 11
34.2994
 21
74.9847
 31
0.0
  0
LINE
  8
0
 62
     0
 10
34.2994
 20
74.9847
 30
0.0
 11
35.1
 21
74.9847
 31
0.0
  0
LINE
  8
0
 62
     0
 10
35.1
 20
74.9847
 30
0.0
 11
35.1
 21
73.9856
 31
0.0
  0
LINE
  8
0
 62
     0
 10
35.1
 20
73.9856
 30
0.0
 11
49.0996
 21
73.9856
 31
0.0
  0
LINE
  8
0
 62
     0
 10
49.0996
 20
73.9856
 30
0.0
 11
49.0996
 21
74.9847
 31
0.0
  0
LINE
  8
0
 62
     0
 10
49.0996
 20
74.9847
 30
0.0
 11
49.9001
 21
74.9847
 31
0.0
  0
LINE
  8
0
 62
     0
 10
49.9001
 20
74.9847
 30
0.0
 11
49.9001
 21
78.0852
 31
0.0
  0
LINE
  8
0
 62
     0
 10
49.9001
 20
78.0852
 30
0.0
 11
49.0996
 21
78.0852
 31
0.0
  0
LINE
  8
0
 62
     0
 10
49.0996
 20
78.0852
 30
0.0
 11
49.0996
 21
83.8853
 31
0.0
  0
LINE
  8
0
 62
     0
 10
49.0996
 20
83.8853
 30
0.0
 11
49.9001
 21
83.8853
 31
0.0
  0
LINE
  8
0
 62
     0
 10
49.9001
 20
83.8853
 30
0.0
 11
49.9001
 21
86.9844
 31
0.0
  0
LINE
  8
0
 62
     0
 10
49.9001
 20
86.9844
 30
0.0
 11
49.0996
 21
86.9844
 31
0.0
  0
LINE
  8
0
 62
     0
 10
49.0996
 20
86.9844
 30
0.0
 11
49.0996
 21
87.9849
 31
0.0
  0
LINE
  8
0
 62
     0
 10
49.0996
 20
87.9849
 30
0.0
 11
35.1
 21
87.9849
 31
0.0
  0
LINE
  8
0
 62
     0
 10
245.22
 20
88.937
 30
0.0
 11
245.22
 21
87.9369
 31
0.0
  0
LINE
  8
0
 62
     0
 10
245.22
 20
87.9369
 30
0.0
 11
244.42
 21
87.9369
 31
0.0
  0
LINE
  8
0
 62
     0
 10
244.42
 20
87.9369
 30
0.0
 11
244.42
 21
84.8374
 31
0.0
  0
LINE
  8
0
 62
     0
 10
244.42
 20
84.8374
 30
0.0
 11
245.22
 21
84.8374
 31
0.0
  0
LINE
  8
0
 62
     0
 10
245.22
 20
84.8374
 30
0.0
 11
245.22
 21
79.0374
 31
0.0
  0
LINE
  8
0
 62
     0
 10
245.22
 20
79.0374
 30
0.0
 11
244.42
 21
79.0374
 31
0.0
  0
LINE
  8
0
 62
     0
 10
244.42
 20
79.0374
 30
0.0
 11
244.42
 21
75.9368
 31
0.0
  0
LINE
  8
0
 62
     0
 10
244.42
 20
75.9368
 30
0.0
 11
245.22
 21
75.9368
 31
0.0
  0
LINE
  8
0
 62
     0
 10
245.22
 20
75.9368
 30
0.0
 11
245.22
 21
74.9378
 31
0.0
  0
LINE
  8
0
 62
     0
 10
245.22
 20
74.9378
 30
0.0
 11
259.22
 21
74.9378
 31
0.0
  0
LINE
  8
0
 62
     0
 10
259.22
 20
74.9378
 30
0.0
 11
259.22
 21
75.9368
 31
0.0
  0
LINE
  8
0
 62
     0
 10
259.22
 20
75.9368
 30
0.0
 11
260.02
 21
75.9368
 31
0.0
  0
LINE
  8
0
 62
     0
 10
260.02
 20
75.9368
 30
0.0
 11
260.02
 21
79.0374
 31
0.0
  0
LINE
  8
0
 62
     0
 10
260.02
 20
79.0374
 30
0.0
 11
259.22
 21
79.0374
 31
0.0
  0
LINE
  8
0
 62
     0
 10
259.22
 20
79.0374
 30
0.0
 11
259.22
 21
84.8374
 31
0.0
  0
LINE
  8
0
 62
     0
 10
259.22
 20
84.8374
 30
0.0
 11
260.02
 21
84.8374
 31
0.0
  0
LINE
  8
0
 62
     0
 10
260.02
 20
84.8374
 30
0.0
 11
260.02
 21
87.9369
 31
0.0
  0
LINE
  8
0
 62
     0
 10
260.02
 20
87.9369
 30
0.0
 11
259.22
 21
87.9369
 31
0.0
  0
LINE
  8
0
 62
     0
 10
259.22
 20
87.9369
 30
0.0
 11
259.22
 21
88.937
 31
0.0
  0
LINE
  8
0
 62
     0
 10
259.22
 20
88.937
 30
0.0
 11
245.22
 21
88.937
 31
0.0
  0
LINE
  8
0
 62
     0
 10
226.17
 20
88.937
 30
0.0
 11
226.17
 21
87.9369
 31
0.0
  0
LINE
  8
0
 62
     0
 10
226.17
 20
87.9369
 30
0.0
 11
225.37
 21
87.9369
 31
0.0
  0
LINE
  8
0
 62
     0
 10
225.37
 20
87.9369
 30
0.0
 11
225.37
 21
84.8374
 31
0.0
  0
LINE
  8
0
 62
     0
 10
225.37
 20
84.8374
 30
0.0
 11
226.17
 21
84.8374
 31
0.0
  0
LINE
  8
0
 62
     0
 10
226.17
 20
84.8374
 30
0.0
 11
226.17
 21
79.0374
 31
0.0
  0
LINE
  8
0
 62
     0
 10
226.17
 20
79.0374
 30
0.0
 11
225.37
 21
79.0374
 31
0.0
  0
LINE
  8
0
 62
     0
 10
225.37
 20
79.0374
 30
0.0
 11
225.37
 21
75.9368
 31
0.0
  0
LINE
  8
0
 62
     0
 10
225.37
 20
75.9368
 30
0.0
 11
226.17
 21
75.9368
 31
0.0
  0
LINE
  8
0
 62
     0
 10
226.17
 20
75.9368
 30
0.0
 11
226.17
 21
74.9378
 31
0.0
  0
LINE
  8
0
 62
     0
 10
226.17
 20
74.9378
 30
0.0
 11
240.17
 21
74.9378
 31
0.0
  0
LINE
  8
0
 62
     0
 10
240.17
 20
74.9378
 30
0.0
 11
240.17
 21
75.9368
 31
0.0
  0
LINE
  8
0
 62
     0
 10
240.17
 20
75.9368
 30
0.0
 11
240.97
 21
75.9368
 31
0.0
  0
LINE
  8
0
 62
     0
 10
240.97
 20
75.9368
 30
0.0
 11
240.97
 21
79.0374
 31
0.0
  0
LINE
  8
0
 62
     0
 10
240.97
 20
79.0374
 30
0.0
 11
240.17
 21
79.0374
 31
0.0
  0
LINE
  8
0
 62
     0
 10
240.17
 20
79.0374
 30
0.0
 11
240.17
 21
84.8374
 31
0.0
  0
LINE
  8
0
 62
     0
 10
240.17
 20
84.8374
 30
0.0
 11
240.97
 21
84.8374
 31
0.0
  0
LINE
  8
0
 62
     0
 10
240.97
 20
84.8374
 30
0.0
 11
240.97
 21
87.9369
 31
0.0
  0
LINE
  8
0
 62
     0
 10
240.97
 20
87.9369
 30
0.0
 11
240.17
 21
87.9369
 31
0.0
  0
LINE
  8
0
 62
     0
 10
240.17
 20
87.9369
 30
0.0
 11
240.17
 21
88.937
 31
0.0
  0
LINE
  8
0
 62
     0
 10
240.17
 20
88.937
 30
0.0
 11
226.17
 21
88.937
 31
0.0
  0
LINE
  8
0
 62
     0
 10
125.417
 20
95.6222
 30
0.0
 11
124.627
 21
95.7598
 31
0.0
  0
LINE
  8
0
 62
     0
 10
124.627
 20
95.7598
 30
0.0
 11
124.09
 21
92.7075
 31
0.0
  0
LINE
  8
0
 62
     0
 10
124.09
 20
92.7075
 30
0.0
 11
124.876
 21
92.5696
 31
0.0
  0
LINE
  8
0
 62
     0
 10
124.876
 20
92.5696
 30
0.0
 11
123.871
 21
86.8578
 31
0.0
  0
LINE
  8
0
 62
     0
 10
123.871
 20
86.8578
 30
0.0
 11
123.082
 21
86.9957
 31
0.0
  0
LINE
  8
0
 62
     0
 10
123.082
 20
86.9957
 30
0.0
 11
122.545
 21
83.9431
 31
0.0
  0
LINE
  8
0
 62
     0
 10
122.545
 20
83.9431
 30
0.0
 11
123.333
 21
83.8041
 31
0.0
  0
LINE
  8
0
 62
     0
 10
123.333
 20
83.8041
 30
0.0
 11
123.158
 21
82.8188
 31
0.0
  0
LINE
  8
0
 62
     0
 10
123.158
 20
82.8188
 30
0.0
 11
136.947
 21
80.3878
 31
0.0
  0
LINE
  8
0
 62
     0
 10
136.947
 20
80.3878
 30
0.0
 11
137.119
 21
81.3731
 31
0.0
  0
LINE
  8
0
 62
     0
 10
137.119
 20
81.3731
 30
0.0
 11
137.907
 21
81.2341
 31
0.0
  0
LINE
  8
0
 62
     0
 10
137.907
 20
81.2341
 30
0.0
 11
138.446
 21
84.2878
 31
0.0
  0
LINE
  8
0
 62
     0
 10
138.446
 20
84.2878
 30
0.0
 11
137.658
 21
84.4254
 31
0.0
  0
LINE
  8
0
 62
     0
 10
137.658
 20
84.4254
 30
0.0
 11
138.665
 21
90.139
 31
0.0
  0
LINE
  8
0
 62
     0
 10
138.665
 20
90.139
 30
0.0
 11
139.452
 21
89.9996
 31
0.0
  0
LINE
  8
0
 62
     0
 10
139.452
 20
89.9996
 30
0.0
 11
139.992
 21
93.0522
 31
0.0
  0
LINE
  8
0
 62
     0
 10
139.992
 20
93.0522
 30
0.0
 11
139.204
 21
93.1898
 31
0.0
  0
LINE
  8
0
 62
     0
 10
139.204
 20
93.1898
 30
0.0
 11
139.378
 21
94.1751
 31
0.0
  0
LINE
  8
0
 62
     0
 10
139.378
 20
94.1751
 30
0.0
 11
125.589
 21
96.6061
 31
0.0
  0
LINE
  8
0
 62
     0
 10
125.589
 20
96.6061
 30
0.0
 11
125.417
 21
95.6222
 31
0.0
  0
LINE
  8
0
 62
     0
 10
154.82
 20
95.0186
 30
0.0
 11
154.995
 21
94.0333
 31
0.0
  0
LINE
  8
0
 62
     0
 10
154.995
 20
94.0333
 30
0.0
 11
154.207
 21
93.8939
 31
0.0
  0
LINE
  8
0
 62
     0
 10
154.207
 20
93.8939
 30
0.0
 11
154.744
 21
90.8417
 31
0.0
  0
LINE
  8
0
 62
     0
 10
154.744
 20
90.8417
 30
0.0
 11
155.532
 21
90.9807
 31
0.0
  0
LINE
  8
0
 62
     0
 10
155.532
 20
90.9807
 30
0.0
 11
156.539
 21
85.2674
 31
0.0
  0
LINE
  8
0
 62
     0
 10
156.539
 20
85.2674
 30
0.0
 11
155.751
 21
85.1299
 31
0.0
  0
LINE
  8
0
 62
     0
 10
155.751
 20
85.1299
 30
0.0
 11
156.29
 21
82.0759
 31
0.0
  0
LINE
  8
0
 62
     0
 10
156.29
 20
82.0759
 30
0.0
 11
157.077
 21
82.2152
 31
0.0
  0
LINE
  8
0
 62
     0
 10
157.077
 20
82.2152
 30
0.0
 11
157.252
 21
81.2299
 31
0.0
  0
LINE
  8
0
 62
     0
 10
157.252
 20
81.2299
 30
0.0
 11
171.038
 21
83.6605
 31
0.0
  0
LINE
  8
0
 62
     0
 10
171.038
 20
83.6605
 30
0.0
 11
170.866
 21
84.6459
 31
0.0
  0
LINE
  8
0
 62
     0
 10
170.866
 20
84.6459
 30
0.0
 11
171.654
 21
84.7852
 31
0.0
  0
LINE
  8
0
 62
     0
 10
171.654
 20
84.7852
 30
0.0
 11
171.115
 21
87.8374
 31
0.0
  0
LINE
  8
0
 62
     0
 10
171.115
 20
87.8374
 30
0.0
 11
170.327
 21
87.6999
 31
0.0
  0
LINE
  8
0
 62
     0
 10
170.327
 20
87.6999
 30
0.0
 11
169.32
 21
93.4117
 31
0.0
  0
LINE
  8
0
 62
     0
 10
169.32
 20
93.4117
 30
0.0
 11
170.108
 21
93.5496
 31
0.0
  0
LINE
  8
0
 62
     0
 10
170.108
 20
93.5496
 30
0.0
 11
169.569
 21
96.6033
 31
0.0
  0
LINE
  8
0
 62
     0
 10
169.569
 20
96.6033
 30
0.0
 11
168.782
 21
96.4639
 31
0.0
  0
LINE
  8
0
 62
     0
 10
168.782
 20
96.4639
 30
0.0
 11
168.607
 21
97.4492
 31
0.0
  0
LINE
  8
0
 62
     0
 10
168.607
 20
97.4492
 30
0.0
 11
154.82
 21
95.0186
 31
0.0
  0
LINE
  8
0
 62
     0
 10
106.656
 20
98.9309
 30
0.0
 11
105.868
 21
99.0685
 31
0.0
  0
LINE
  8
0
 62
     0
 10
105.868
 20
99.0685
 30
0.0
 11
105.329
 21
96.0162
 31
0.0
  0
LINE
  8
0
 62
     0
 10
105.329
 20
96.0162
 30
0.0
 11
106.117
 21
95.8769
 31
0.0
  0
LINE
  8
0
 62
     0
 10
106.117
 20
95.8769
 30
0.0
 11
105.11
 21
90.1651
 31
0.0
  0
LINE
  8
0
 62
     0
 10
105.11
 20
90.1651
 30
0.0
 11
104.323
 21
90.3041
 31
0.0
  0
LINE
  8
0
 62
     0
 10
104.323
 20
90.3041
 30
0.0
 11
103.783
 21
87.2518
 31
0.0
  0
LINE
  8
0
 62
     0
 10
103.783
 20
87.2518
 30
0.0
 11
104.571
 21
87.1128
 31
0.0
  0
LINE
  8
0
 62
     0
 10
104.571
 20
87.1128
 30
0.0
 11
104.399
 21
86.1275
 31
0.0
  0
LINE
  8
0
 62
     0
 10
104.399
 20
86.1275
 30
0.0
 11
118.186
 21
83.6965
 31
0.0
  0
LINE
  8
0
 62
     0
 10
118.186
 20
83.6965
 30
0.0
 11
118.36
 21
84.6818
 31
0.0
  0
LINE
  8
0
 62
     0
 10
118.36
 20
84.6818
 30
0.0
 11
119.146
 21
84.5425
 31
0.0
  0
LINE
  8
0
 62
     0
 10
119.146
 20
84.5425
 30
0.0
 11
119.686
 21
87.5951
 31
0.0
  0
LINE
  8
0
 62
     0
 10
119.686
 20
87.5951
 30
0.0
 11
118.897
 21
87.7341
 31
0.0
  0
LINE
  8
0
 62
     0
 10
118.897
 20
87.7341
 30
0.0
 11
119.905
 21
93.4462
 31
0.0
  0
LINE
  8
0
 62
     0
 10
119.905
 20
93.4462
 30
0.0
 11
120.693
 21
93.3069
 31
0.0
  0
LINE
  8
0
 62
     0
 10
120.693
 20
93.3069
 30
0.0
 11
121.23
 21
96.3605
 31
0.0
  0
LINE
  8
0
 62
     0
 10
121.23
 20
96.3605
 30
0.0
 11
120.442
 21
96.4985
 31
0.0
  0
LINE
  8
0
 62
     0
 10
120.442
 20
96.4985
 30
0.0
 11
120.617
 21
97.4838
 31
0.0
  0
LINE
  8
0
 62
     0
 10
120.617
 20
97.4838
 30
0.0
 11
106.83
 21
99.9148
 31
0.0
  0
LINE
  8
0
 62
     0
 10
106.83
 20
99.9148
 30
0.0
 11
106.656
 21
98.9309
 31
0.0
  0
LINE
  8
0
 62
     0
 10
173.582
 20
98.3259
 30
0.0
 11
173.754
 21
97.342
 31
0.0
  0
LINE
  8
0
 62
     0
 10
173.754
 20
97.342
 30
0.0
 11
172.966
 21
97.2026
 31
0.0
  0
LINE
  8
0
 62
     0
 10
172.966
 20
97.2026
 30
0.0
 11
173.506
 21
94.149
 31
0.0
  0
LINE
  8
0
 62
     0
 10
173.506
 20
94.149
 30
0.0
 11
174.293
 21
94.288
 31
0.0
  0
LINE
  8
0
 62
     0
 10
174.293
 20
94.288
 30
0.0
 11
175.3
 21
88.5762
 31
0.0
  0
LINE
  8
0
 62
     0
 10
175.3
 20
88.5762
 30
0.0
 11
174.512
 21
88.4372
 31
0.0
  0
LINE
  8
0
 62
     0
 10
174.512
 20
88.4372
 30
0.0
 11
175.051
 21
85.3846
 31
0.0
  0
LINE
  8
0
 62
     0
 10
175.051
 20
85.3846
 30
0.0
 11
175.839
 21
85.5239
 31
0.0
  0
LINE
  8
0
 62
     0
 10
175.839
 20
85.5239
 30
0.0
 11
176.013
 21
84.5386
 31
0.0
  0
LINE
  8
0
 62
     0
 10
176.013
 20
84.5386
 30
0.0
 11
189.8
 21
86.9692
 31
0.0
  0
LINE
  8
0
 62
     0
 10
189.8
 20
86.9692
 30
0.0
 11
189.625
 21
87.9546
 31
0.0
  0
LINE
  8
0
 62
     0
 10
189.625
 20
87.9546
 30
0.0
 11
190.413
 21
88.0939
 31
0.0
  0
LINE
  8
0
 62
     0
 10
190.413
 20
88.0939
 30
0.0
 11
189.876
 21
91.1461
 31
0.0
  0
LINE
  8
0
 62
     0
 10
189.876
 20
91.1461
 30
0.0
 11
189.087
 21
91.0071
 31
0.0
  0
LINE
  8
0
 62
     0
 10
189.087
 20
91.0071
 30
0.0
 11
188.08
 21
96.719
 31
0.0
  0
LINE
  8
0
 62
     0
 10
188.08
 20
96.719
 30
0.0
 11
188.868
 21
96.8583
 31
0.0
  0
LINE
  8
0
 62
     0
 10
188.868
 20
96.8583
 30
0.0
 11
188.33
 21
99.9105
 31
0.0
  0
LINE
  8
0
 62
     0
 10
188.33
 20
99.9105
 30
0.0
 11
187.543
 21
99.7726
 31
0.0
  0
LINE
  8
0
 62
     0
 10
187.543
 20
99.7726
 30
0.0
 11
187.369
 21
100.757
 31
0.0
  0
LINE
  8
0
 62
     0
 10
187.369
 20
100.757
 30
0.0
 11
173.582
 21
98.3259
 31
0.0
  0
LINE
  8
0
 62
     0
 10
87.8939
 20
102.238
 30
0.0
 11
87.1072
 21
102.376
 31
0.0
  0
LINE
  8
0
 62
     0
 10
87.1072
 20
102.376
 30
0.0
 11
86.5685
 21
99.3249
 31
0.0
  0
LINE
  8
0
 62
     0
 10
86.5685
 20
99.3249
 30
0.0
 11
87.3566
 21
99.1856
 31
0.0
  0
LINE
  8
0
 62
     0
 10
87.3566
 20
99.1856
 30
0.0
 11
86.3494
 21
93.4738
 31
0.0
  0
LINE
  8
0
 62
     0
 10
86.3494
 20
93.4738
 30
0.0
 11
85.561
 21
93.6114
 31
0.0
  0
LINE
  8
0
 62
     0
 10
85.561
 20
93.6114
 30
0.0
 11
85.0237
 21
90.5591
 31
0.0
  0
LINE
  8
0
 62
     0
 10
85.0237
 20
90.5591
 30
0.0
 11
85.8118
 21
90.4201
 31
0.0
  0
LINE
  8
0
 62
     0
 10
85.8118
 20
90.4201
 30
0.0
 11
85.6368
 21
89.4348
 31
0.0
  0
LINE
  8
0
 62
     0
 10
85.6368
 20
89.4348
 30
0.0
 11
99.4241
 21
87.0038
 31
0.0
  0
LINE
  8
0
 62
     0
 10
99.4241
 20
87.0038
 30
0.0
 11
99.599
 21
87.9891
 31
0.0
  0
LINE
  8
0
 62
     0
 10
99.599
 20
87.9891
 30
0.0
 11
100.386
 21
87.8498
 31
0.0
  0
LINE
  8
0
 62
     0
 10
100.386
 20
87.8498
 30
0.0
 11
100.925
 21
90.9038
 31
0.0
  0
LINE
  8
0
 62
     0
 10
100.925
 20
90.9038
 30
0.0
 11
100.137
 21
91.0428
 31
0.0
  0
LINE
  8
0
 62
     0
 10
100.137
 20
91.0428
 30
0.0
 11
101.144
 21
96.7549
 31
0.0
  0
LINE
  8
0
 62
     0
 10
101.144
 20
96.7549
 30
0.0
 11
101.932
 21
96.6156
 31
0.0
  0
LINE
  8
0
 62
     0
 10
101.932
 20
96.6156
 30
0.0
 11
102.471
 21
99.6678
 31
0.0
  0
LINE
  8
0
 62
     0
 10
102.471
 20
99.6678
 30
0.0
 11
101.683
 21
99.8058
 31
0.0
  0
LINE
  8
0
 62
     0
 10
101.683
 20
99.8058
 30
0.0
 11
101.855
 21
100.791
 31
0.0
  0
LINE
  8
0
 62
     0
 10
101.855
 20
100.791
 30
0.0
 11
88.0692
 21
103.222
 31
0.0
  0
LINE
  8
0
 62
     0
 10
88.0692
 20
103.222
 30
0.0
 11
87.8939
 21
102.238
 31
0.0
  0
LINE
  8
0
 62
     0
 10
192.341
 20
101.635
 30
0.0
 11
192.516
 21
100.649
 31
0.0
  0
LINE
  8
0
 62
     0
 10
192.516
 20
100.649
 30
0.0
 11
191.728
 21
100.51
 31
0.0
  0
LINE
  8
0
 62
     0
 10
191.728
 20
100.51
 30
0.0
 11
192.265
 21
97.4577
 31
0.0
  0
LINE
  8
0
 62
     0
 10
192.265
 20
97.4577
 30
0.0
 11
193.053
 21
97.5967
 31
0.0
  0
LINE
  8
0
 62
     0
 10
193.053
 20
97.5967
 30
0.0
 11
194.061
 21
91.8849
 31
0.0
  0
LINE
  8
0
 62
     0
 10
194.061
 20
91.8849
 30
0.0
 11
193.272
 21
91.7455
 31
0.0
  0
LINE
  8
0
 62
     0
 10
193.272
 20
91.7455
 30
0.0
 11
193.812
 21
88.6919
 31
0.0
  0
LINE
  8
0
 62
     0
 10
193.812
 20
88.6919
 30
0.0
 11
194.6
 21
88.8312
 31
0.0
  0
LINE
  8
0
 62
     0
 10
194.6
 20
88.8312
 30
0.0
 11
194.772
 21
87.8459
 31
0.0
  0
LINE
  8
0
 62
     0
 10
194.772
 20
87.8459
 30
0.0
 11
208.56
 21
90.2765
 31
0.0
  0
LINE
  8
0
 62
     0
 10
208.56
 20
90.2765
 30
0.0
 11
208.387
 21
91.2619
 31
0.0
  0
LINE
  8
0
 62
     0
 10
208.387
 20
91.2619
 30
0.0
 11
209.174
 21
91.4012
 31
0.0
  0
LINE
  8
0
 62
     0
 10
209.174
 20
91.4012
 30
0.0
 11
208.635
 21
94.4534
 31
0.0
  0
LINE
  8
0
 62
     0
 10
208.635
 20
94.4534
 30
0.0
 11
207.848
 21
94.3158
 31
0.0
  0
LINE
  8
0
 62
     0
 10
207.848
 20
94.3158
 30
0.0
 11
206.841
 21
100.028
 31
0.0
  0
LINE
  8
0
 62
     0
 10
206.841
 20
100.028
 30
0.0
 11
207.629
 21
100.167
 31
0.0
  0
LINE
  8
0
 62
     0
 10
207.629
 20
100.167
 30
0.0
 11
207.09
 21
103.219
 31
0.0
  0
LINE
  8
0
 62
     0
 10
207.09
 20
103.219
 30
0.0
 11
206.302
 21
103.08
 31
0.0
  0
LINE
  8
0
 62
     0
 10
206.302
 20
103.08
 30
0.0
 11
206.128
 21
104.065
 31
0.0
  0
LINE
  8
0
 62
     0
 10
206.128
 20
104.065
 30
0.0
 11
192.341
 21
101.635
 31
0.0
  0
LINE
  8
0
 62
     0
 10
69.1349
 20
105.547
 30
0.0
 11
68.3465
 21
105.684
 31
0.0
  0
LINE
  8
0
 62
     0
 10
68.3465
 20
105.684
 30
0.0
 11
67.8092
 21
102.632
 31
0.0
  0
LINE
  8
0
 62
     0
 10
67.8092
 20
102.632
 30
0.0
 11
68.5959
 21
102.493
 31
0.0
  0
LINE
  8
0
 62
     0
 10
68.5959
 20
102.493
 30
0.0
 11
67.5887
 21
96.7811
 31
0.0
  0
LINE
  8
0
 62
     0
 10
67.5887
 20
96.7811
 30
0.0
 11
66.8016
 21
96.9201
 31
0.0
  0
LINE
  8
0
 62
     0
 10
66.8016
 20
96.9201
 30
0.0
 11
66.263
 21
93.8678
 31
0.0
  0
LINE
  8
0
 62
     0
 10
66.263
 20
93.8678
 30
0.0
 11
67.05
 21
93.7288
 31
0.0
  0
LINE
  8
0
 62
     0
 10
67.05
 20
93.7288
 30
0.0
 11
66.8761
 21
92.7435
 31
0.0
  0
LINE
  8
0
 62
     0
 10
66.8761
 20
92.7435
 30
0.0
 11
80.6648
 21
90.3125
 31
0.0
  0
LINE
  8
0
 62
     0
 10
80.6648
 20
90.3125
 30
0.0
 11
80.8373
 21
91.2978
 31
0.0
  0
LINE
  8
0
 62
     0
 10
80.8373
 20
91.2978
 30
0.0
 11
81.6254
 21
91.1585
 31
0.0
  0
LINE
  8
0
 62
     0
 10
81.6254
 20
91.1585
 30
0.0
 11
82.1641
 21
94.2111
 31
0.0
  0
LINE
  8
0
 62
     0
 10
82.1641
 20
94.2111
 30
0.0
 11
81.376
 21
94.3501
 31
0.0
  0
LINE
  8
0
 62
     0
 10
81.376
 20
94.3501
 30
0.0
 11
82.3831
 21
100.062
 31
0.0
  0
LINE
  8
0
 62
     0
 10
82.3831
 20
100.062
 30
0.0
 11
83.1716
 21
99.9229
 31
0.0
  0
LINE
  8
0
 62
     0
 10
83.1716
 20
99.9229
 30
0.0
 11
83.7089
 21
102.977
 31
0.0
  0
LINE
  8
0
 62
     0
 10
83.7089
 20
102.977
 30
0.0
 11
82.9222
 21
103.114
 31
0.0
  0
LINE
  8
0
 62
     0
 10
82.9222
 20
103.114
 30
0.0
 11
83.0957
 21
104.1
 31
0.0
  0
LINE
  8
0
 62
     0
 10
83.0957
 20
104.1
 30
0.0
 11
69.3085
 21
106.531
 31
0.0
  0
LINE
  8
0
 62
     0
 10
69.3085
 20
106.531
 30
0.0
 11
69.1349
 21
105.547
 31
0.0
  0
LINE
  8
0
 62
     0
 10
9.95355
 20
105.131
 30
0.0
 11
9.95355
 21
104.13
 31
0.0
  0
LINE
  8
0
 62
     0
 10
9.95355
 20
104.13
 30
0.0
 11
9.15293
 21
104.13
 31
0.0
  0
LINE
  8
0
 62
     0
 10
9.15293
 20
104.13
 30
0.0
 11
9.15293
 21
101.03
 31
0.0
  0
LINE
  8
0
 62
     0
 10
9.15293
 20
101.03
 30
0.0
 11
9.95355
 21
101.03
 31
0.0
  0
LINE
  8
0
 62
     0
 10
9.95355
 20
101.03
 30
0.0
 11
9.95355
 21
95.2306
 31
0.0
  0
LINE
  8
0
 62
     0
 10
9.95355
 20
95.2306
 30
0.0
 11
9.15293
 21
95.2306
 31
0.0
  0
LINE
  8
0
 62
     0
 10
9.15293
 20
95.2306
 30
0.0
 11
9.15293
 21
92.13
 31
0.0
  0
LINE
  8
0
 62
     0
 10
9.15293
 20
92.13
 30
0.0
 11
9.95355
 21
92.13
 31
0.0
  0
LINE
  8
0
 62
     0
 10
9.95355
 20
92.13
 30
0.0
 11
9.95355
 21
91.1296
 31
0.0
  0
LINE
  8
0
 62
     0
 10
9.95355
 20
91.1296
 30
0.0
 11
23.953
 21
91.1296
 31
0.0
  0
LINE
  8
0
 62
     0
 10
23.953
 20
91.1296
 30
0.0
 11
23.953
 21
92.13
 31
0.0
  0
LINE
  8
0
 62
     0
 10
23.953
 20
92.13
 30
0.0
 11
24.7537
 21
92.13
 31
0.0
  0
LINE
  8
0
 62
     0
 10
24.7537
 20
92.13
 30
0.0
 11
24.7537
 21
95.2306
 31
0.0
  0
LINE
  8
0
 62
     0
 10
24.7537
 20
95.2306
 30
0.0
 11
23.953
 21
95.2306
 31
0.0
  0
LINE
  8
0
 62
     0
 10
23.953
 20
95.2306
 30
0.0
 11
23.953
 21
101.03
 31
0.0
  0
LINE
  8
0
 62
     0
 10
23.953
 20
101.03
 30
0.0
 11
24.7537
 21
101.03
 31
0.0
  0
LINE
  8
0
 62
     0
 10
24.7537
 20
101.03
 30
0.0
 11
24.7537
 21
104.13
 31
0.0
  0
LINE
  8
0
 62
     0
 10
24.7537
 20
104.13
 30
0.0
 11
23.953
 21
104.13
 31
0.0
  0
LINE
  8
0
 62
     0
 10
23.953
 20
104.13
 30
0.0
 11
23.953
 21
105.131
 31
0.0
  0
LINE
  8
0
 62
     0
 10
23.953
 20
105.131
 30
0.0
 11
9.95355
 21
105.131
 31
0.0
  0
LINE
  8
0
 62
     0
 10
210.936
 20
105.88
 30
0.0
 11
211.11
 21
104.895
 31
0.0
  0
LINE
  8
0
 62
     0
 10
211.11
 20
104.895
 30
0.0
 11
210.323
 21
104.756
 31
0.0
  0
LINE
  8
0
 62
     0
 10
210.323
 20
104.756
 30
0.0
 11
210.861
 21
101.703
 31
0.0
  0
LINE
  8
0
 62
     0
 10
210.861
 20
101.703
 30
0.0
 11
211.649
 21
101.843
 31
0.0
  0
LINE
  8
0
 62
     0
 10
211.649
 20
101.843
 30
0.0
 11
212.656
 21
96.1305
 31
0.0
  0
LINE
  8
0
 62
     0
 10
212.656
 20
96.1305
 30
0.0
 11
211.868
 21
95.9915
 31
0.0
  0
LINE
  8
0
 62
     0
 10
211.868
 20
95.9915
 30
0.0
 11
212.407
 21
92.9375
 31
0.0
  0
LINE
  8
0
 62
     0
 10
212.407
 20
92.9375
 30
0.0
 11
213.195
 21
93.0769
 31
0.0
  0
LINE
  8
0
 62
     0
 10
213.195
 20
93.0769
 30
0.0
 11
213.367
 21
92.0916
 31
0.0
  0
LINE
  8
0
 62
     0
 10
213.367
 20
92.0916
 30
0.0
 11
227.156
 21
94.5236
 31
0.0
  0
LINE
  8
0
 62
     0
 10
227.156
 20
94.5236
 30
0.0
 11
226.981
 21
95.5075
 31
0.0
  0
LINE
  8
0
 62
     0
 10
226.981
 20
95.5075
 30
0.0
 11
227.769
 21
95.6469
 31
0.0
  0
LINE
  8
0
 62
     0
 10
227.769
 20
95.6469
 30
0.0
 11
227.232
 21
98.7005
 31
0.0
  0
LINE
  8
0
 62
     0
 10
227.232
 20
98.7005
 30
0.0
 11
226.443
 21
98.5615
 31
0.0
  0
LINE
  8
0
 62
     0
 10
226.443
 20
98.5615
 30
0.0
 11
225.436
 21
104.273
 31
0.0
  0
LINE
  8
0
 62
     0
 10
225.436
 20
104.273
 30
0.0
 11
226.223
 21
104.413
 31
0.0
  0
LINE
  8
0
 62
     0
 10
226.223
 20
104.413
 30
0.0
 11
225.685
 21
107.465
 31
0.0
  0
LINE
  8
0
 62
     0
 10
225.685
 20
107.465
 30
0.0
 11
224.897
 21
107.326
 31
0.0
  0
LINE
  8
0
 62
     0
 10
224.897
 20
107.326
 30
0.0
 11
224.725
 21
108.311
 31
0.0
  0
LINE
  8
0
 62
     0
 10
224.725
 20
108.311
 30
0.0
 11
210.936
 21
105.88
 31
0.0
  0
LINE
  8
0
 62
     0
 10
275.13
 20
107.035
 30
0.0
 11
275.13
 21
106.034
 31
0.0
  0
LINE
  8
0
 62
     0
 10
275.13
 20
106.034
 30
0.0
 11
274.329
 21
106.034
 31
0.0
  0
LINE
  8
0
 62
     0
 10
274.329
 20
106.034
 30
0.0
 11
274.329
 21
102.935
 31
0.0
  0
LINE
  8
0
 62
     0
 10
274.329
 20
102.935
 30
0.0
 11
275.13
 21
102.935
 31
0.0
  0
LINE
  8
0
 62
     0
 10
275.13
 20
102.935
 30
0.0
 11
275.13
 21
97.1352
 31
0.0
  0
LINE
  8
0
 62
     0
 10
275.13
 20
97.1352
 30
0.0
 11
274.329
 21
97.1352
 31
0.0
  0
LINE
  8
0
 62
     0
 10
274.329
 20
97.1352
 30
0.0
 11
274.329
 21
94.0347
 31
0.0
  0
LINE
  8
0
 62
     0
 10
274.329
 20
94.0347
 30
0.0
 11
275.13
 21
94.0347
 31
0.0
  0
LINE
  8
0
 62
     0
 10
275.13
 20
94.0347
 30
0.0
 11
275.13
 21
93.0356
 31
0.0
  0
LINE
  8
0
 62
     0
 10
275.13
 20
93.0356
 30
0.0
 11
289.129
 21
93.0356
 31
0.0
  0
LINE
  8
0
 62
     0
 10
289.129
 20
93.0356
 30
0.0
 11
289.129
 21
94.0347
 31
0.0
  0
LINE
  8
0
 62
     0
 10
289.129
 20
94.0347
 30
0.0
 11
289.93
 21
94.0347
 31
0.0
  0
LINE
  8
0
 62
     0
 10
289.93
 20
94.0347
 30
0.0
 11
289.93
 21
97.1352
 31
0.0
  0
LINE
  8
0
 62
     0
 10
289.93
 20
97.1352
 30
0.0
 11
289.129
 21
97.1352
 31
0.0
  0
LINE
  8
0
 62
     0
 10
289.129
 20
97.1352
 30
0.0
 11
289.129
 21
102.935
 31
0.0
  0
LINE
  8
0
 62
     0
 10
289.129
 20
102.935
 30
0.0
 11
289.93
 21
102.935
 31
0.0
  0
LINE
  8
0
 62
     0
 10
289.93
 20
102.935
 30
0.0
 11
289.93
 21
106.034
 31
0.0
  0
LINE
  8
0
 62
     0
 10
289.93
 20
106.034
 30
0.0
 11
289.129
 21
106.034
 31
0.0
  0
LINE
  8
0
 62
     0
 10
289.129
 20
106.034
 30
0.0
 11
289.129
 21
107.035
 31
0.0
  0
LINE
  8
0
 62
     0
 10
289.129
 20
107.035
 30
0.0
 11
275.13
 21
107.035
 31
0.0
  0
LINE
  8
0
 62
     0
 10
29.0036
 20
107.035
 30
0.0
 11
29.0036
 21
106.034
 31
0.0
  0
LINE
  8
0
 62
     0
 10
29.0036
 20
106.034
 30
0.0
 11
28.2029
 21
106.034
 31
0.0
  0
LINE
  8
0
 62
     0
 10
28.2029
 20
106.034
 30
0.0
 11
28.2029
 21
102.935
 31
0.0
  0
LINE
  8
0
 62
     0
 10
28.2029
 20
102.935
 30
0.0
 11
29.0036
 21
102.935
 31
0.0
  0
LINE
  8
0
 62
     0
 10
29.0036
 20
102.935
 30
0.0
 11
29.0036
 21
97.1352
 31
0.0
  0
LINE
  8
0
 62
     0
 10
29.0036
 20
97.1352
 30
0.0
 11
28.2029
 21
97.1352
 31
0.0
  0
LINE
  8
0
 62
     0
 10
28.2029
 20
97.1352
 30
0.0
 11
28.2029
 21
94.0347
 31
0.0
  0
LINE
  8
0
 62
     0
 10
28.2029
 20
94.0347
 30
0.0
 11
29.0036
 21
94.0347
 31
0.0
  0
LINE
  8
0
 62
     0
 10
29.0036
 20
94.0347
 30
0.0
 11
29.0036
 21
93.0356
 31
0.0
  0
LINE
  8
0
 62
     0
 10
29.0036
 20
93.0356
 30
0.0
 11
43.0029
 21
93.0356
 31
0.0
  0
LINE
  8
0
 62
     0
 10
43.0029
 20
93.0356
 30
0.0
 11
43.0029
 21
94.0347
 31
0.0
  0
LINE
  8
0
 62
     0
 10
43.0029
 20
94.0347
 30
0.0
 11
43.8023
 21
94.0347
 31
0.0
  0
LINE
  8
0
 62
     0
 10
43.8023
 20
94.0347
 30
0.0
 11
43.8023
 21
97.1352
 31
0.0
  0
LINE
  8
0
 62
     0
 10
43.8023
 20
97.1352
 30
0.0
 11
43.0029
 21
97.1352
 31
0.0
  0
LINE
  8
0
 62
     0
 10
43.0029
 20
97.1352
 30
0.0
 11
43.0029
 21
102.935
 31
0.0
  0
LINE
  8
0
 62
     0
 10
43.0029
 20
102.935
 30
0.0
 11
43.8023
 21
102.935
 31
0.0
  0
LINE
  8
0
 62
     0
 10
43.8023
 20
102.935
 30
0.0
 11
43.8023
 21
106.034
 31
0.0
  0
LINE
  8
0
 62
     0
 10
43.8023
 20
106.034
 30
0.0
 11
43.0029
 21
106.034
 31
0.0
  0
LINE
  8
0
 62
     0
 10
43.0029
 20
106.034
 30
0.0
 11
43.0029
 21
107.035
 31
0.0
  0
LINE
  8
0
 62
     0
 10
43.0029
 20
107.035
 30
0.0
 11
29.0036
 21
107.035
 31
0.0
  0
LINE
  8
0
 62
     0
 10
251.316
 20
107.987
 30
0.0
 11
251.316
 21
106.987
 31
0.0
  0
LINE
  8
0
 62
     0
 10
251.316
 20
106.987
 30
0.0
 11
250.516
 21
106.987
 31
0.0
  0
LINE
  8
0
 62
     0
 10
250.516
 20
106.987
 30
0.0
 11
250.516
 21
103.887
 31
0.0
  0
LINE
  8
0
 62
     0
 10
250.516
 20
103.887
 30
0.0
 11
251.316
 21
103.887
 31
0.0
  0
LINE
  8
0
 62
     0
 10
251.316
 20
103.887
 30
0.0
 11
251.316
 21
98.0888
 31
0.0
  0
LINE
  8
0
 62
     0
 10
251.316
 20
98.0888
 30
0.0
 11
250.516
 21
98.0888
 31
0.0
  0
LINE
  8
0
 62
     0
 10
250.516
 20
98.0888
 30
0.0
 11
250.516
 21
94.9868
 31
0.0
  0
LINE
  8
0
 62
     0
 10
250.516
 20
94.9868
 30
0.0
 11
251.316
 21
94.9868
 31
0.0
  0
LINE
  8
0
 62
     0
 10
251.316
 20
94.9868
 30
0.0
 11
251.316
 21
93.9878
 31
0.0
  0
LINE
  8
0
 62
     0
 10
251.316
 20
93.9878
 30
0.0
 11
265.316
 21
93.9878
 31
0.0
  0
LINE
  8
0
 62
     0
 10
265.316
 20
93.9878
 30
0.0
 11
265.316
 21
94.9868
 31
0.0
  0
LINE
  8
0
 62
     0
 10
265.316
 20
94.9868
 30
0.0
 11
266.117
 21
94.9868
 31
0.0
  0
LINE
  8
0
 62
     0
 10
266.117
 20
94.9868
 30
0.0
 11
266.117
 21
98.0888
 31
0.0
  0
LINE
  8
0
 62
     0
 10
266.117
 20
98.0888
 30
0.0
 11
265.316
 21
98.0888
 31
0.0
  0
LINE
  8
0
 62
     0
 10
265.316
 20
98.0888
 30
0.0
 11
265.316
 21
103.887
 31
0.0
  0
LINE
  8
0
 62
     0
 10
265.316
 20
103.887
 30
0.0
 11
266.117
 21
103.887
 31
0.0
  0
LINE
  8
0
 62
     0
 10
266.117
 20
103.887
 30
0.0
 11
266.117
 21
106.987
 31
0.0
  0
LINE
  8
0
 62
     0
 10
266.117
 20
106.987
 30
0.0
 11
265.316
 21
106.987
 31
0.0
  0
LINE
  8
0
 62
     0
 10
265.316
 20
106.987
 30
0.0
 11
265.316
 21
107.987
 31
0.0
  0
LINE
  8
0
 62
     0
 10
265.316
 20
107.987
 30
0.0
 11
251.316
 21
107.987
 31
0.0
  0
LINE
  8
0
 62
     0
 10
232.267
 20
107.987
 30
0.0
 11
232.267
 21
106.987
 31
0.0
  0
LINE
  8
0
 62
     0
 10
232.267
 20
106.987
 30
0.0
 11
231.466
 21
106.987
 31
0.0
  0
LINE
  8
0
 62
     0
 10
231.466
 20
106.987
 30
0.0
 11
231.466
 21
103.887
 31
0.0
  0
LINE
  8
0
 62
     0
 10
231.466
 20
103.887
 30
0.0
 11
232.267
 21
103.887
 31
0.0
  0
LINE
  8
0
 62
     0
 10
232.267
 20
103.887
 30
0.0
 11
232.267
 21
98.0888
 31
0.0
  0
LINE
  8
0
 62
     0
 10
232.267
 20
98.0888
 30
0.0
 11
231.466
 21
98.0888
 31
0.0
  0
LINE
  8
0
 62
     0
 10
231.466
 20
98.0888
 30
0.0
 11
231.466
 21
94.9868
 31
0.0
  0
LINE
  8
0
 62
     0
 10
231.466
 20
94.9868
 30
0.0
 11
232.267
 21
94.9868
 31
0.0
  0
LINE
  8
0
 62
     0
 10
232.267
 20
94.9868
 30
0.0
 11
232.267
 21
93.9878
 31
0.0
  0
LINE
  8
0
 62
     0
 10
232.267
 20
93.9878
 30
0.0
 11
246.266
 21
93.9878
 31
0.0
  0
LINE
  8
0
 62
     0
 10
246.266
 20
93.9878
 30
0.0
 11
246.266
 21
94.9868
 31
0.0
  0
LINE
  8
0
 62
     0
 10
246.266
 20
94.9868
 30
0.0
 11
247.067
 21
94.9868
 31
0.0
  0
LINE
  8
0
 62
     0
 10
247.067
 20
94.9868
 30
0.0
 11
247.067
 21
98.0888
 31
0.0
  0
LINE
  8
0
 62
     0
 10
247.067
 20
98.0888
 30
0.0
 11
246.266
 21
98.0888
 31
0.0
  0
LINE
  8
0
 62
     0
 10
246.266
 20
98.0888
 30
0.0
 11
246.266
 21
103.887
 31
0.0
  0
LINE
  8
0
 62
     0
 10
246.266
 20
103.887
 30
0.0
 11
247.067
 21
103.887
 31
0.0
  0
LINE
  8
0
 62
     0
 10
247.067
 20
103.887
 30
0.0
 11
247.067
 21
106.987
 31
0.0
  0
LINE
  8
0
 62
     0
 10
247.067
 20
106.987
 30
0.0
 11
246.266
 21
106.987
 31
0.0
  0
LINE
  8
0
 62
     0
 10
246.266
 20
106.987
 30
0.0
 11
246.266
 21
107.987
 31
0.0
  0
LINE
  8
0
 62
     0
 10
246.266
 20
107.987
 30
0.0
 11
232.267
 21
107.987
 31
0.0
  0
LINE
  8
0
 62
     0
 10
48.0522
 20
108.941
 30
0.0
 11
48.0522
 21
107.94
 31
0.0
  0
LINE
  8
0
 62
     0
 10
48.0522
 20
107.94
 30
0.0
 11
47.2528
 21
107.94
 31
0.0
  0
LINE
  8
0
 62
     0
 10
47.2528
 20
107.94
 30
0.0
 11
47.2528
 21
104.84
 31
0.0
  0
LINE
  8
0
 62
     0
 10
47.2528
 20
104.84
 30
0.0
 11
48.0522
 21
104.84
 31
0.0
  0
LINE
  8
0
 62
     0
 10
48.0522
 20
104.84
 30
0.0
 11
48.0522
 21
99.0395
 31
0.0
  0
LINE
  8
0
 62
     0
 10
48.0522
 20
99.0395
 30
0.0
 11
47.2528
 21
99.0395
 31
0.0
  0
LINE
  8
0
 62
     0
 10
47.2528
 20
99.0395
 30
0.0
 11
47.2528
 21
95.9404
 31
0.0
  0
LINE
  8
0
 62
     0
 10
47.2528
 20
95.9404
 30
0.0
 11
48.0522
 21
95.9404
 31
0.0
  0
LINE
  8
0
 62
     0
 10
48.0522
 20
95.9404
 30
0.0
 11
48.0522
 21
94.9399
 31
0.0
  0
LINE
  8
0
 62
     0
 10
48.0522
 20
94.9399
 30
0.0
 11
62.0529
 21
94.9399
 31
0.0
  0
LINE
  8
0
 62
     0
 10
62.0529
 20
94.9399
 30
0.0
 11
62.0529
 21
95.9404
 31
0.0
  0
LINE
  8
0
 62
     0
 10
62.0529
 20
95.9404
 30
0.0
 11
62.8537
 21
95.9404
 31
0.0
  0
LINE
  8
0
 62
     0
 10
62.8537
 20
95.9404
 30
0.0
 11
62.8537
 21
99.0395
 31
0.0
  0
LINE
  8
0
 62
     0
 10
62.8537
 20
99.0395
 30
0.0
 11
62.0529
 21
99.0395
 31
0.0
  0
LINE
  8
0
 62
     0
 10
62.0529
 20
99.0395
 30
0.0
 11
62.0529
 21
104.84
 31
0.0
  0
LINE
  8
0
 62
     0
 10
62.0529
 20
104.84
 30
0.0
 11
62.8537
 21
104.84
 31
0.0
  0
LINE
  8
0
 62
     0
 10
62.8537
 20
104.84
 30
0.0
 11
62.8537
 21
107.94
 31
0.0
  0
LINE
  8
0
 62
     0
 10
62.8537
 20
107.94
 30
0.0
 11
62.0529
 21
107.94
 31
0.0
  0
LINE
  8
0
 62
     0
 10
62.0529
 20
107.94
 30
0.0
 11
62.0529
 21
108.941
 31
0.0
  0
LINE
  8
0
 62
     0
 10
62.0529
 20
108.941
 30
0.0
 11
48.0522
 21
108.941
 31
0.0
  0
ENDSEC
  0
EOF
