  0
SECTION
  2
HEADER
  9
$ACADVER
  1
AC1009
  9
$EXTMIN
 10
0.0
 20
0.0
 30
0.0
  9
$EXTMAX
 10
1000.0
 20
1000.0
 30
0.0
  9
$FILLMODE
 70
 0
  9
$SPLFRAME
 70
 1
  0
ENDSEC
  0
SECTION
  2
TABLES
  0
TABLE
  2
LAYER
 70
1
  0
LAYER
  2
0
 70
     0
 62
     7
  6
CONTINUOUS
  0
ENDTAB
  0
ENDSEC
  0
SECTION
  2
ENTITIES
  0
LINE
  8
0
 62
     0
 10
0.0950846
 20
125.846
 30
0.0
 11
301.847
 21
125.846
 31
0.0
  0
LINE
  8
0
 62
     0
 10
301.847
 20
125.846
 30
0.0
 11
301.847
 21
0.418924
 31
0.0
  0
LINE
  8
0
 62
     0
 10
301.847
 20
0.418924
 30
0.0
 11
0.0950846
 21
0.418924
 31
0.0
  0
LINE
  8
0
 62
     0
 10
0.0950846
 20
0.418924
 30
0.0
 11
0.0950846
 21
125.846
 31
0.0
  0
LINE
  8
0
 62
     0
 10
45.5263
 20
111.467
 30
0.0
 11
45.5263
 21
109.561
 31
0.0
  0
LINE
  8
0
 62
     0
 10
45.5263
 20
109.561
 30
0.0
 11
26.4776
 21
109.561
 31
0.0
  0
LINE
  8
0
 62
     0
 10
26.4776
 20
109.561
 30
0.0
 11
26.4776
 21
107.656
 31
0.0
  0
LINE
  8
0
 62
     0
 10
26.4776
 20
107.656
 30
0.0
 11
7.42763
 21
107.656
 31
0.0
  0
LINE
  8
0
 62
     0
 10
7.42763
 20
107.656
 30
0.0
 11
7.42763
 21
88.6065
 31
0.0
  0
LINE
  8
0
 62
     0
 10
7.42763
 20
88.6065
 30
0.0
 11
3.99905
 21
88.6065
 31
0.0
  0
LINE
  8
0
 62
     0
 10
3.99905
 20
88.6065
 30
0.0
 11
3.99905
 21
69.5537
 31
0.0
  0
LINE
  8
0
 62
     0
 10
3.99905
 20
69.5537
 30
0.0
 11
5.90352
 21
69.5537
 31
0.0
  0
LINE
  8
0
 62
     0
 10
5.90352
 20
69.5537
 30
0.0
 11
5.90352
 21
50.5037
 31
0.0
  0
LINE
  8
0
 62
     0
 10
5.90352
 20
50.5037
 30
0.0
 11
8.76018
 21
50.5037
 31
0.0
  0
LINE
  8
0
 62
     0
 10
8.76018
 20
50.5037
 30
0.0
 11
8.76018
 21
31.4537
 31
0.0
  0
LINE
  8
0
 62
     0
 10
8.76018
 20
31.4537
 30
0.0
 11
12.5705
 21
31.4537
 31
0.0
  0
LINE
  8
0
 62
     0
 10
12.5705
 20
31.4537
 30
0.0
 11
12.5705
 21
12.4037
 31
0.0
  0
LINE
  8
0
 62
     0
 10
12.5705
 20
12.4037
 30
0.0
 11
50.6719
 21
12.4037
 31
0.0
  0
LINE
  8
0
 62
     0
 10
50.6719
 20
12.4037
 30
0.0
 11
50.6719
 21
14.6926
 31
0.0
  0
LINE
  8
0
 62
     0
 10
50.6719
 20
14.6926
 30
0.0
 11
69.3152
 21
11.4046
 31
0.0
  0
LINE
  8
0
 62
     0
 10
69.3152
 20
11.4046
 30
0.0
 11
69.4821
 21
12.3445
 31
0.0
  0
LINE
  8
0
 62
     0
 10
69.4821
 20
12.3445
 30
0.0
 11
88.2414
 21
9.0358
 31
0.0
  0
LINE
  8
0
 62
     0
 10
88.2414
 20
9.0358
 30
0.0
 11
125.764
 21
2.41984
 31
0.0
  0
LINE
  8
0
 62
     0
 10
125.764
 20
2.41984
 30
0.0
 11
129.071
 21
21.1805
 31
0.0
  0
LINE
  8
0
 62
     0
 10
129.071
 20
21.1805
 30
0.0
 11
135.637
 21
20.0215
 31
0.0
  0
LINE
  8
0
 62
     0
 10
135.637
 20
20.0215
 30
0.0
 11
138.945
 21
38.7847
 31
0.0
  0
LINE
  8
0
 62
     0
 10
138.945
 20
38.7847
 30
0.0
 11
128.626
 21
40.604
 31
0.0
  0
LINE
  8
0
 62
     0
 10
128.626
 20
40.604
 30
0.0
 11
131.936
 21
59.3644
 31
0.0
  0
LINE
  8
0
 62
     0
 10
131.936
 20
59.3644
 30
0.0
 11
126.307
 21
60.3567
 31
0.0
  0
LINE
  8
0
 62
     0
 10
126.307
 20
60.3567
 30
0.0
 11
129.615
 21
79.1161
 31
0.0
  0
LINE
  8
0
 62
     0
 10
129.615
 20
79.1161
 30
0.0
 11
138.996
 21
77.4622
 31
0.0
  0
LINE
  8
0
 62
     0
 10
138.996
 20
77.4622
 30
0.0
 11
142.303
 21
96.2244
 31
0.0
  0
LINE
  8
0
 62
     0
 10
142.303
 20
96.2244
 30
0.0
 11
123.541
 21
99.5331
 31
0.0
  0
LINE
  8
0
 62
     0
 10
123.541
 20
99.5331
 30
0.0
 11
123.541
 21
99.5317
 31
0.0
  0
LINE
  8
0
 62
     0
 10
123.541
 20
99.5317
 30
0.0
 11
104.781
 21
102.842
 31
0.0
  0
LINE
  8
0
 62
     0
 10
104.781
 20
102.842
 30
0.0
 11
104.781
 21
102.84
 31
0.0
  0
LINE
  8
0
 62
     0
 10
104.781
 20
102.84
 30
0.0
 11
86.0199
 21
106.149
 31
0.0
  0
LINE
  8
0
 62
     0
 10
86.0199
 20
106.149
 30
0.0
 11
86.0199
 21
106.148
 31
0.0
  0
LINE
  8
0
 62
     0
 10
86.0199
 20
106.148
 30
0.0
 11
67.2592
 21
109.457
 31
0.0
  0
LINE
  8
0
 62
     0
 10
67.2592
 20
109.457
 30
0.0
 11
64.5791
 21
94.2605
 31
0.0
  0
LINE
  8
0
 62
     0
 10
64.5791
 20
94.2605
 30
0.0
 11
64.5791
 21
111.467
 31
0.0
  0
LINE
  8
0
 62
     0
 10
64.5791
 20
111.467
 30
0.0
 11
45.5263
 21
111.467
 31
0.0
  0
LINE
  8
0
 62
     0
 10
208.011
 20
107.929
 30
0.0
 11
208.176
 21
106.991
 31
0.0
  0
LINE
  8
0
 62
     0
 10
208.176
 20
106.991
 30
0.0
 11
151.894
 21
97.0675
 31
0.0
  0
LINE
  8
0
 62
     0
 10
151.894
 20
97.0675
 30
0.0
 11
155.203
 21
78.3057
 31
0.0
  0
LINE
  8
0
 62
     0
 10
155.203
 20
78.3057
 30
0.0
 11
145.821
 21
76.6519
 31
0.0
  0
LINE
  8
0
 62
     0
 10
145.821
 20
76.6519
 30
0.0
 11
149.13
 21
57.8901
 31
0.0
  0
LINE
  8
0
 62
     0
 10
149.13
 20
57.8901
 30
0.0
 11
153.821
 21
58.7167
 31
0.0
  0
LINE
  8
0
 62
     0
 10
153.821
 20
58.7167
 30
0.0
 11
157.128
 21
39.9563
 31
0.0
  0
LINE
  8
0
 62
     0
 10
157.128
 20
39.9563
 30
0.0
 11
161.819
 21
40.7829
 31
0.0
  0
LINE
  8
0
 62
     0
 10
161.819
 20
40.7829
 30
0.0
 11
165.126
 21
22.0238
 31
0.0
  0
LINE
  8
0
 62
     0
 10
165.126
 20
22.0238
 30
0.0
 11
160.437
 21
21.197
 31
0.0
  0
LINE
  8
0
 62
     0
 10
160.437
 20
21.197
 30
0.0
 11
163.744
 21
2.43499
 31
0.0
  0
LINE
  8
0
 62
     0
 10
163.744
 20
2.43499
 30
0.0
 11
238.314
 21
15.5829
 31
0.0
  0
LINE
  8
0
 62
     0
 10
238.314
 20
15.5829
 30
0.0
 11
238.314
 21
14.3095
 31
0.0
  0
LINE
  8
0
 62
     0
 10
238.314
 20
14.3095
 30
0.0
 11
295.465
 21
14.3095
 31
0.0
  0
LINE
  8
0
 62
     0
 10
295.465
 20
14.3095
 30
0.0
 11
295.465
 21
33.3595
 31
0.0
  0
LINE
  8
0
 62
     0
 10
295.465
 20
33.3595
 30
0.0
 11
297.179
 21
33.3595
 31
0.0
  0
LINE
  8
0
 62
     0
 10
297.179
 20
33.3595
 30
0.0
 11
297.179
 21
52.4097
 31
0.0
  0
LINE
  8
0
 62
     0
 10
297.179
 20
52.4097
 30
0.0
 11
298.322
 21
52.4097
 31
0.0
  0
LINE
  8
0
 62
     0
 10
298.322
 20
52.4097
 30
0.0
 11
298.322
 21
71.4597
 31
0.0
  0
LINE
  8
0
 62
     0
 10
298.322
 20
71.4597
 30
0.0
 11
299.846
 21
71.4597
 31
0.0
  0
LINE
  8
0
 62
     0
 10
299.846
 20
71.4597
 30
0.0
 11
299.846
 21
90.5108
 31
0.0
  0
LINE
  8
0
 62
     0
 10
299.846
 20
90.5108
 30
0.0
 11
296.417
 21
90.5108
 31
0.0
  0
LINE
  8
0
 62
     0
 10
296.417
 20
90.5108
 30
0.0
 11
296.417
 21
109.561
 31
0.0
  0
LINE
  8
0
 62
     0
 10
296.417
 20
109.561
 30
0.0
 11
267.842
 21
109.561
 31
0.0
  0
LINE
  8
0
 62
     0
 10
267.842
 20
109.561
 30
0.0
 11
267.842
 21
110.513
 31
0.0
  0
LINE
  8
0
 62
     0
 10
267.842
 20
110.513
 30
0.0
 11
229.741
 21
110.513
 31
0.0
  0
LINE
  8
0
 62
     0
 10
229.741
 20
110.513
 30
0.0
 11
229.741
 21
94.4079
 31
0.0
  0
LINE
  8
0
 62
     0
 10
229.741
 20
94.4079
 30
0.0
 11
226.774
 21
111.236
 31
0.0
  0
LINE
  8
0
 62
     0
 10
226.774
 20
111.236
 30
0.0
 11
208.011
 21
107.929
 31
0.0
  0
LINE
  8
0
 62
     0
 10
50.6719
 20
15.3886
 30
0.0
 11
50.6719
 21
31.4565
 31
0.0
  0
LINE
  8
0
 62
     0
 10
50.6719
 20
31.4565
 30
0.0
 11
42.1005
 21
31.4565
 31
0.0
  0
LINE
  8
0
 62
     0
 10
42.1005
 20
31.4565
 30
0.0
 11
42.1005
 21
33.3595
 31
0.0
  0
LINE
  8
0
 62
     0
 10
42.1005
 20
33.3595
 30
0.0
 11
53.8399
 21
33.3595
 31
0.0
  0
LINE
  8
0
 62
     0
 10
53.8399
 20
33.3595
 30
0.0
 11
50.6719
 21
15.3886
 31
0.0
  0
LINE
  8
0
 62
     0
 10
240.028
 20
33.3609
 30
0.0
 11
238.314
 21
33.3609
 31
0.0
  0
LINE
  8
0
 62
     0
 10
238.314
 20
33.3609
 30
0.0
 11
238.314
 21
18.361
 31
0.0
  0
LINE
  8
0
 62
     0
 10
238.314
 20
18.361
 30
0.0
 11
235.481
 21
34.4275
 31
0.0
  0
LINE
  8
0
 62
     0
 10
235.481
 20
34.4275
 30
0.0
 11
240.028
 21
35.2296
 31
0.0
  0
LINE
  8
0
 62
     0
 10
240.028
 20
35.2296
 30
0.0
 11
240.028
 21
33.3609
 31
0.0
  0
LINE
  8
0
 62
     0
 10
60.5924
 20
33.2548
 30
0.0
 11
72.7879
 21
31.1037
 31
0.0
  0
LINE
  8
0
 62
     0
 10
72.7879
 20
31.1037
 30
0.0
 11
72.6225
 21
30.168
 31
0.0
  0
LINE
  8
0
 62
     0
 10
72.6225
 20
30.168
 30
0.0
 11
54.525
 21
33.3595
 31
0.0
  0
LINE
  8
0
 62
     0
 10
54.525
 20
33.3595
 30
0.0
 11
60.6104
 21
33.3595
 31
0.0
  0
LINE
  8
0
 62
     0
 10
60.6104
 20
33.3595
 30
0.0
 11
60.5924
 21
33.2548
 31
0.0
  0
LINE
  8
0
 62
     0
 10
250.696
 20
52.4108
 30
0.0
 11
240.028
 21
52.4108
 31
0.0
  0
LINE
  8
0
 62
     0
 10
240.028
 20
52.4108
 30
0.0
 11
240.028
 21
36.0659
 31
0.0
  0
LINE
  8
0
 62
     0
 10
240.028
 20
36.0659
 30
0.0
 11
236.978
 21
53.3619
 31
0.0
  0
LINE
  8
0
 62
     0
 10
236.978
 20
53.3619
 30
0.0
 11
250.696
 21
53.3619
 31
0.0
  0
LINE
  8
0
 62
     0
 10
250.696
 20
53.3619
 30
0.0
 11
250.696
 21
52.4108
 31
0.0
  0
LINE
  8
0
 62
     0
 10
56.8911
 20
72.595
 30
0.0
 11
53.5824
 21
53.8346
 31
0.0
  0
LINE
  8
0
 62
     0
 10
53.5824
 20
53.8346
 30
0.0
 11
63.9011
 21
52.0153
 31
0.0
  0
LINE
  8
0
 62
     0
 10
63.9011
 20
52.0153
 30
0.0
 11
61.1505
 21
36.4187
 31
0.0
  0
LINE
  8
0
 62
     0
 10
61.1505
 20
36.4187
 30
0.0
 11
61.1505
 21
52.4108
 31
0.0
  0
LINE
  8
0
 62
     0
 10
61.1505
 20
52.4108
 30
0.0
 11
53.5298
 21
52.4108
 31
0.0
  0
LINE
  8
0
 62
     0
 10
53.5298
 20
52.4108
 30
0.0
 11
53.5298
 21
71.4608
 31
0.0
  0
LINE
  8
0
 62
     0
 10
53.5298
 20
71.4608
 30
0.0
 11
51.6255
 21
71.4608
 31
0.0
  0
LINE
  8
0
 62
     0
 10
51.6255
 20
71.4608
 30
0.0
 11
51.6255
 21
73.5238
 31
0.0
  0
LINE
  8
0
 62
     0
 10
51.6255
 20
73.5238
 30
0.0
 11
56.8911
 21
72.595
 31
0.0
  0
LINE
  8
0
 62
     0
 10
34.4799
 20
52.4097
 30
0.0
 11
42.0991
 21
52.4097
 31
0.0
  0
LINE
  8
0
 62
     0
 10
42.0991
 20
52.4097
 30
0.0
 11
42.0991
 21
50.5065
 31
0.0
  0
LINE
  8
0
 62
     0
 10
42.0991
 20
50.5065
 30
0.0
 11
34.4799
 21
50.5065
 31
0.0
  0
LINE
  8
0
 62
     0
 10
34.4799
 20
50.5065
 30
0.0
 11
34.4799
 21
52.4097
 31
0.0
  0
LINE
  8
0
 62
     0
 10
232.172
 20
53.1894
 30
0.0
 11
232.142
 21
53.3619
 31
0.0
  0
LINE
  8
0
 62
     0
 10
232.142
 20
53.3619
 30
0.0
 11
233.142
 21
53.3619
 31
0.0
  0
LINE
  8
0
 62
     0
 10
233.142
 20
53.3619
 30
0.0
 11
232.172
 21
53.1894
 31
0.0
  0
LINE
  8
0
 62
     0
 10
231.646
 20
56.177
 30
0.0
 11
228.865
 21
71.9515
 31
0.0
  0
LINE
  8
0
 62
     0
 10
228.865
 20
71.9515
 30
0.0
 11
224.175
 21
71.1246
 31
0.0
  0
LINE
  8
0
 62
     0
 10
224.175
 20
71.1246
 30
0.0
 11
223.948
 21
72.4119
 31
0.0
  0
LINE
  8
0
 62
     0
 10
223.948
 20
72.4119
 30
0.0
 11
231.646
 21
72.4119
 31
0.0
  0
LINE
  8
0
 62
     0
 10
231.646
 20
72.4119
 30
0.0
 11
231.646
 21
56.177
 31
0.0
  0
LINE
  8
0
 62
     0
 10
32.5754
 20
71.4597
 30
0.0
 11
34.4785
 21
71.4597
 31
0.0
  0
LINE
  8
0
 62
     0
 10
34.4785
 20
71.4597
 30
0.0
 11
34.4785
 21
69.5565
 31
0.0
  0
LINE
  8
0
 62
     0
 10
34.4785
 20
69.5565
 30
0.0
 11
32.5754
 21
69.5565
 31
0.0
  0
LINE
  8
0
 62
     0
 10
32.5754
 20
69.5565
 30
0.0
 11
32.5754
 21
71.4597
 31
0.0
  0
LINE
  8
0
 62
     0
 10
250.697
 20
72.4119
 30
0.0
 11
261.745
 21
72.4119
 31
0.0
  0
LINE
  8
0
 62
     0
 10
261.745
 20
72.4119
 30
0.0
 11
261.745
 21
71.4608
 31
0.0
  0
LINE
  8
0
 62
     0
 10
261.745
 20
71.4608
 30
0.0
 11
250.697
 21
71.4608
 31
0.0
  0
LINE
  8
0
 62
     0
 10
250.697
 20
71.4608
 30
0.0
 11
250.697
 21
72.4119
 31
0.0
  0
LINE
  8
0
 62
     0
 10
223.645
 20
74.1288
 30
0.0
 11
220.866
 21
89.8839
 31
0.0
  0
LINE
  8
0
 62
     0
 10
220.866
 20
89.8839
 30
0.0
 11
211.486
 21
88.2304
 31
0.0
  0
LINE
  8
0
 62
     0
 10
211.486
 20
88.2304
 30
0.0
 11
211.321
 21
89.166
 31
0.0
  0
LINE
  8
0
 62
     0
 10
211.321
 20
89.166
 30
0.0
 11
223.645
 21
91.3391
 31
0.0
  0
LINE
  8
0
 62
     0
 10
223.645
 20
91.3391
 30
0.0
 11
223.645
 21
74.1288
 31
0.0
  0
LINE
  8
0
 62
     0
 10
63.9505
 20
90.6956
 30
0.0
 11
54.5705
 21
92.3505
 31
0.0
  0
LINE
  8
0
 62
     0
 10
54.5705
 20
92.3505
 30
0.0
 11
51.6255
 21
75.6461
 31
0.0
  0
LINE
  8
0
 62
     0
 10
51.6255
 20
75.6461
 30
0.0
 11
51.6255
 21
90.5108
 31
0.0
  0
LINE
  8
0
 62
     0
 10
51.6255
 20
90.5108
 30
0.0
 11
45.5291
 21
90.5108
 31
0.0
  0
LINE
  8
0
 62
     0
 10
45.5291
 20
90.5108
 30
0.0
 11
45.5291
 21
92.414
 31
0.0
  0
LINE
  8
0
 62
     0
 10
45.5291
 20
92.414
 30
0.0
 11
64.2539
 21
92.414
 31
0.0
  0
LINE
  8
0
 62
     0
 10
64.2539
 20
92.414
 30
0.0
 11
63.9505
 21
90.6956
 31
0.0
  0
LINE
  8
0
 62
     0
 10
26.479
 20
90.5097
 30
0.0
 11
32.5741
 21
90.5097
 31
0.0
  0
LINE
  8
0
 62
     0
 10
32.5741
 20
90.5097
 30
0.0
 11
32.5741
 21
88.6065
 31
0.0
  0
LINE
  8
0
 62
     0
 10
32.5741
 20
88.6065
 30
0.0
 11
26.479
 21
88.6065
 31
0.0
  0
LINE
  8
0
 62
     0
 10
26.479
 20
88.6065
 30
0.0
 11
26.479
 21
90.5097
 31
0.0
  0
LINE
  8
0
 62
     0
 10
261.746
 20
91.4619
 30
0.0
 11
267.841
 21
91.4619
 31
0.0
  0
LINE
  8
0
 62
     0
 10
267.841
 20
91.4619
 30
0.0
 11
267.841
 21
90.5108
 31
0.0
  0
LINE
  8
0
 62
     0
 10
267.841
 20
90.5108
 30
0.0
 11
261.746
 21
90.5108
 31
0.0
  0
LINE
  8
0
 62
     0
 10
261.746
 20
90.5108
 30
0.0
 11
261.746
 21
91.4619
 31
0.0
  0
LINE
  8
0
 62
     0
 10
229.741
 20
91.4633
 30
0.0
 11
224.347
 21
91.4633
 31
0.0
  0
LINE
  8
0
 62
     0
 10
224.347
 20
91.4633
 30
0.0
 11
229.741
 21
92.414
 31
0.0
  0
LINE
  8
0
 62
     0
 10
229.741
 20
92.414
 30
0.0
 11
229.741
 21
91.4633
 31
0.0
  0
ENDSEC
  0
EOF
